<?xml version="1.0" encoding="UTF-8" standalone="no"?>
<!-- Created with Inkscape (http://www.inkscape.org/) -->

<svg
   id="svg5871"
   version="1.1"
   inkscape:version="1.3.2 (091e20ef0f, 2023-11-25)"
   width="659.37567"
   height="72.405312"
   sodipodi:docname="langnostic.svg"
   inkscape:export-filename="/home/inaimathi/quicklisp/local-projects/langnostic/static/img/langnostic.png"
   inkscape:export-xdpi="149.82518"
   inkscape:export-ydpi="149.82518"
   xmlns:inkscape="http://www.inkscape.org/namespaces/inkscape"
   xmlns:sodipodi="http://sodipodi.sourceforge.net/DTD/sodipodi-0.dtd"
   xmlns="http://www.w3.org/2000/svg"
   xmlns:svg="http://www.w3.org/2000/svg"
   xmlns:rdf="http://www.w3.org/1999/02/22-rdf-syntax-ns#"
   xmlns:cc="http://creativecommons.org/ns#"
   xmlns:dc="http://purl.org/dc/elements/1.1/">
  <metadata
     id="metadata5877">
    <rdf:RDF>
      <cc:Work
         rdf:about="">
        <dc:format>image/svg+xml</dc:format>
        <dc:type
           rdf:resource="http://purl.org/dc/dcmitype/StillImage" />
        <dc:title />
      </cc:Work>
    </rdf:RDF>
  </metadata>
  <defs
     id="defs5875">
    <inkscape:perspective
       sodipodi:type="inkscape:persp3d"
       inkscape:vp_x="0 : 0.5 : 1"
       inkscape:vp_y="0 : 1000 : 0"
       inkscape:vp_z="1 : 0.5 : 1"
       inkscape:persp3d-origin="0.5 : 0.33333333 : 1"
       id="perspective5879" />
    <inkscape:perspective
       id="perspective2976"
       inkscape:persp3d-origin="0.5 : 0.33333333 : 1"
       inkscape:vp_z="1 : 0.5 : 1"
       inkscape:vp_y="0 : 1000 : 0"
       inkscape:vp_x="0 : 0.5 : 1"
       sodipodi:type="inkscape:persp3d" />
    <inkscape:perspective
       id="perspective3071"
       inkscape:persp3d-origin="0.5 : 0.33333333 : 1"
       inkscape:vp_z="1 : 0.5 : 1"
       inkscape:vp_y="0 : 1000 : 0"
       inkscape:vp_x="0 : 0.5 : 1"
       sodipodi:type="inkscape:persp3d" />
    <inkscape:perspective
       id="perspective6645"
       inkscape:persp3d-origin="178.5 : 75.666667 : 1"
       inkscape:vp_z="357 : 113.5 : 1"
       inkscape:vp_y="0 : 1000 : 0"
       inkscape:vp_x="0 : 113.5 : 1"
       sodipodi:type="inkscape:persp3d" />
    <inkscape:perspective
       id="perspective6713"
       inkscape:persp3d-origin="301 : 141.66667 : 1"
       inkscape:vp_z="602 : 212.5 : 1"
       inkscape:vp_y="0 : 1000 : 0"
       inkscape:vp_x="0 : 212.5 : 1"
       sodipodi:type="inkscape:persp3d" />
    <inkscape:perspective
       id="perspective6771"
       inkscape:persp3d-origin="104.84355 : 84.275467 : 1"
       inkscape:vp_z="209.6871 : 126.4132 : 1"
       inkscape:vp_y="0 : 1000 : 0"
       inkscape:vp_x="0 : 126.4132 : 1"
       sodipodi:type="inkscape:persp3d" />
    <clipPath
       id="clipPath22">
      <path
         id="path24"
         d="m 2976.38,3717.38 c 516.62,0 935.43,220.31 935.43,492.07 0,271.76 -418.81,492.07 -935.43,492.07 -516.62,0 -935.43,-220.31 -935.43,-492.07 0,-271.76 418.81,-492.07 935.43,-492.07 z"
         inkscape:connector-curvature="0" />
    </clipPath>
    <inkscape:perspective
       id="perspective7198"
       inkscape:persp3d-origin="116.92875 : 41.005834 : 1"
       inkscape:vp_z="233.8575 : 61.508751 : 1"
       inkscape:vp_y="0 : 1000 : 0"
       inkscape:vp_x="0 : 61.508751 : 1"
       sodipodi:type="inkscape:persp3d" />
    <inkscape:perspective
       id="perspective7406"
       inkscape:persp3d-origin="117.41838 : 78.648727 : 1"
       inkscape:vp_z="234.83676 : 117.97309 : 1"
       inkscape:vp_y="0 : 1000 : 0"
       inkscape:vp_x="0 : 117.97309 : 1"
       sodipodi:type="inkscape:persp3d" />
    <inkscape:perspective
       id="perspective7464"
       inkscape:persp3d-origin="498.66422 : 331.47864 : 1"
       inkscape:vp_z="997.32843 : 497.21796 : 1"
       inkscape:vp_y="0 : 1000 : 0"
       inkscape:vp_x="0 : 497.21796 : 1"
       sodipodi:type="inkscape:persp3d" />
    <inkscape:perspective
       id="perspective7521"
       inkscape:persp3d-origin="210.0625 : 139.95833 : 1"
       inkscape:vp_z="420.125 : 209.9375 : 1"
       inkscape:vp_y="0 : 1000 : 0"
       inkscape:vp_x="0 : 209.9375 : 1"
       sodipodi:type="inkscape:persp3d" />
    <inkscape:perspective
       id="perspective10"
       inkscape:persp3d-origin="372.04724 : 350.78739 : 1"
       inkscape:vp_z="744.09448 : 526.18109 : 1"
       inkscape:vp_y="0 : 1000 : 0"
       inkscape:vp_x="0 : 526.18109 : 1"
       sodipodi:type="inkscape:persp3d" />
  </defs>
  <sodipodi:namedview
     pagecolor="#ffffff"
     bordercolor="#666666"
     borderopacity="1"
     objecttolerance="10"
     gridtolerance="10"
     guidetolerance="10"
     inkscape:pageopacity="0"
     inkscape:pageshadow="2"
     inkscape:window-width="1918"
     inkscape:window-height="1078"
     id="namedview5873"
     showgrid="false"
     showguides="false"
     inkscape:guide-bbox="true"
     inkscape:zoom="1.2610394"
     inkscape:cx="244.24297"
     inkscape:cy="288.65078"
     inkscape:window-x="0"
     inkscape:window-y="0"
     inkscape:window-maximized="0"
     inkscape:current-layer="svg5871"
     fit-margin-top="0"
     fit-margin-left="0"
     fit-margin-right="0"
     fit-margin-bottom="0"
     inkscape:showpageshadow="2"
     inkscape:pagecheckerboard="0"
     inkscape:deskcolor="#d1d1d1">
    <sodipodi:guide
       orientation="1,0"
       position="498.64234,-21.827812"
       id="guide5943"
       inkscape:locked="false" />
    <sodipodi:guide
       orientation="1,0"
       position="635.2243,-109.48517"
       id="guide6455"
       inkscape:locked="false" />
  </sodipodi:namedview>
  <path
     style="fill:#000000;stroke-width:0.941095"
     d="m 590.14568,5.0677178 c -2.28421,-0.00489 -4.67359,0.095029 -6.01842,0.3117114 -0.99249,0.1599033 -2.40891,0.3787588 -3.16507,0.4795557 -1.88592,0.2513928 -5.93033,1.5799641 -6.64185,2.1819769 -0.14923,0.1262639 -0.33338,0.2157997 -0.43159,0.2157997 -0.0983,0 -0.72252,0.3592358 -1.36674,0.7912662 -0.97077,0.6509641 -1.21633,0.7691958 -1.51059,0.623423 -1.10957,-0.5496026 -3.80948,-0.7280728 -5.15523,-0.3356888 -1.18339,0.3450178 -2.35688,1.3223731 -2.92529,2.4457331 -0.43973,0.868641 -0.5112,1.197425 -0.50353,2.421754 0.008,1.213025 0.0779,1.519877 0.50353,2.301867 0.53281,0.978829 1.4727,1.835507 2.56562,2.349822 0.79944,0.376185 0.77677,0.183709 0.35967,3.500754 -0.6156,4.896191 -0.54534,7.666041 0.35967,14.986108 l 0.048,0.455578 h 0.81525 l -0.0239,-0.191823 c -0.51193,-3.076706 -0.97669,-8.682348 -0.8632,-10.526241 0.14777,-2.400494 0.77906,-7.316789 1.03105,-8.08051 0.12475,-0.378088 0.32056,-1.037294 0.43158,-1.462644 0.17887,-0.685765 0.32192,-1.063627 1.03105,-2.613577 0.50979,-1.114175 0.84425,-1.620987 2.11006,-3.237 0.72493,-0.925562 2.40763,-2.3977765 2.75743,-2.3977765 0.12032,0 0.42198,-0.1361228 0.6474,-0.3117114 0.22536,-0.1755877 0.70096,-0.4237968 1.079,-0.5514883 0.37812,-0.1276935 0.78222,-0.2842117 0.88718,-0.3596668 0.42953,-0.3087074 3.32263,-1.1656799 4.5318,-1.3427554 0.71266,-0.1043731 2.02733,-0.3223938 2.92529,-0.4795557 1.24677,-0.2182155 2.73868,-0.284894 6.28217,-0.2877332 4.31846,-0.00358 4.7547,0.022652 6.35411,0.4076231 1.61692,0.3891785 3.98193,1.1944802 4.55578,1.5585541 0.14179,0.08995 0.49858,0.2892672 0.81524,0.4315994 0.99479,0.4471114 3.03018,2.1980547 3.74053,3.2370007 2.46489,3.605121 3.56786,6.705925 4.29204,12.060819 0.19066,1.410123 0.31458,4.03656 0.38363,8.296309 l 0.0959,5.850577 h 0.62343 v -5.347044 c 0,-6.259376 -0.33171,-10.593675 -1.00707,-12.780153 -0.47357,-1.533301 -0.47572,-1.674814 0.26372,-1.942199 0.77427,-0.279938 2.10813,-1.565172 2.56566,-2.493687 0.5193,-1.053888 0.46834,-3.343872 -0.0959,-4.459867 -0.77726,-1.5374764 -1.84901,-2.3188065 -3.74052,-2.709488 -0.92644,-0.1913529 -1.26101,-0.1821762 -2.46972,0.071928 -0.76767,0.1613762 -1.61718,0.4132574 -1.89424,0.5514892 -0.34336,0.1712944 -0.58245,0.189834 -0.71934,0.071928 -0.41356,-0.3560633 -2.07475,-1.3427554 -2.2539,-1.3427554 -0.10244,0 -0.29399,-0.1021427 -0.40762,-0.2157997 C 600.58786,6.781866 598.5321,6.0976391 595.56477,5.403397 594.6179,5.1818604 592.43001,5.0725494 590.1458,5.0677074 Z m 5.75466,3.5966659 c -0.53588,0.039648 -1.12385,0.1931089 -1.91821,0.4555775 -1.51709,0.5012839 -2.4099,1.1624728 -3.59668,2.6375558 -0.54239,0.67415 -1.27082,2.739285 -1.27082,3.620644 0,0.298655 0.11798,1.019173 0.26376,1.582532 0.69078,2.669412 3.02565,4.806834 5.61079,5.179199 3.48519,0.501998 6.67043,-1.153727 7.76881,-4.028266 1.00139,-2.620643 0.30446,-5.802718 -1.6305,-7.433109 -1.45163,-1.2231389 -1.69813,-1.3502698 -3.57268,-1.8223108 -0.62518,-0.1574245 -1.11859,-0.2314765 -1.65447,-0.1918225 z m 11.74911,0.1198889 c 1.41144,0 2.4821,0.4200079 3.35689,1.2948004 0.8464,0.846398 1.15861,1.67011 1.15093,3.11711 -0.008,1.571369 -0.74895,2.823146 -2.158,3.692577 -0.28359,0.17497 -0.60945,0.311351 -0.71932,0.311711 -0.18508,5.95e-4 -1.07905,-2.089388 -1.07905,-2.517665 0,-0.104575 0.10665,-0.273201 0.23979,-0.383645 0.13311,-0.110443 0.37358,-0.466812 0.5275,-0.791267 0.25642,-0.539934 0.24929,-0.64494 0,-1.126955 -0.35195,-0.680696 -0.95665,-0.901183 -1.77431,-0.671378 -0.60079,0.168854 -0.65727,0.140362 -1.15093,-0.479555 -0.28276,-0.355057 -0.71654,-0.877911 -0.9831,-1.150933 -0.26656,-0.2730232 -0.4364,-0.53167 -0.35967,-0.5994448 0.33538,-0.296287 2.02201,-0.6953556 2.94927,-0.6953556 z m -11.38944,0.4316003 c 1.51279,-0.0016 1.83797,0.049709 2.68551,0.4555778 2.77498,1.3288883 4.23732,4.0655323 3.76451,7.0015093 -0.2829,1.756354 -0.96598,2.893616 -2.42175,3.980311 -0.69746,0.520616 -0.97013,0.624492 -2.22994,0.935132 -3.28905,0.811007 -6.29399,-0.538997 -7.81675,-3.500754 -0.45355,-0.882279 -0.52697,-1.145449 -0.52751,-2.613577 -4.6e-4,-1.383041 0.0759,-1.741795 0.4316,-2.469711 0.63102,-1.291114 2.07441,-2.711127 3.33291,-3.284955 0.94346,-0.4301672 1.26258,-0.5019219 2.78142,-0.5035331 z M 578.75623,9.455651 c -1.6411,0.089348 -3.21969,0.755424 -4.38793,1.918221 -0.5282,0.525729 -1.08698,1.096283 -1.22286,1.270822 -0.47672,0.612313 -1.03036,2.556906 -1.03105,3.596667 -0.002,1.727931 0.96874,3.871369 2.18198,4.819532 0.24684,0.192912 0.62772,0.530635 0.8632,0.743311 0.23555,0.212674 0.49375,0.383645 0.57547,0.383645 0.0818,0 0.48649,0.151645 0.88718,0.335688 0.40068,0.184043 0.96332,0.363626 1.24684,0.407622 0.28358,0.044 1.06488,0.06178 1.75037,0.02397 0.98275,-0.0542 1.51149,-0.196324 2.49369,-0.671378 1.36462,-0.659999 1.8339,-1.02651 2.68551,-2.110044 0.68704,-0.874133 1.41469,-2.867226 1.41469,-3.884398 0,-0.84925 -0.41548,-2.287849 -0.91116,-3.260978 -0.40873,-0.802511 -1.62798,-2.181978 -1.94219,-2.181978 -0.125,0 -0.30845,-0.114732 -0.38365,-0.239777 -0.0756,-0.125046 -0.65579,-0.418335 -1.2948,-0.6713777 -0.94483,-0.3741362 -1.94063,-0.5331607 -2.92529,-0.4795548 z m -10.45431,0.4076221 c 0.32494,0.014568 0.63459,0.063176 0.93514,0.119889 1.63026,0.3076059 1.66602,0.3527049 0.8632,1.3187769 -0.38005,0.457292 -0.79568,1.003088 -0.91115,1.222866 -0.18354,0.349214 -0.28014,0.386246 -0.8632,0.287734 -0.89973,-0.152008 -1.33145,0.02272 -1.65447,0.6474 -0.34658,0.670294 -0.19677,1.491448 0.35966,2.014133 0.38772,0.364242 0.4148,0.431953 0.19182,0.863199 -0.13274,0.256663 -0.34485,0.831196 -0.45558,1.270822 -0.11071,0.439628 -0.27668,0.801564 -0.38364,0.791267 -0.5051,-0.04866 -1.51708,-0.734485 -2.15799,-1.462644 -1.02472,-1.164137 -1.28752,-2.439153 -0.8632,-4.124177 0.22711,-0.90191 1.337,-2.181003 2.20595,-2.541645 0.71812,-0.2980388 1.75868,-0.4513046 2.73346,-0.4076209 z m 10.83796,0.095914 c 1.53143,-0.00518 2.52284,0.2305329 3.40484,0.8152439 1.93702,1.28409 2.96247,2.926216 3.09314,4.963399 0.17762,2.767484 -1.11956,4.951351 -3.69259,6.210244 -0.71511,0.349856 -1.2196,0.477376 -2.39777,0.52751 -2.31628,0.09857 -3.72403,-0.426814 -5.22716,-1.942199 -1.07182,-1.080637 -1.56192,-2.20357 -1.65446,-3.740532 -0.0801,-1.3319 0.20218,-3.189045 0.47956,-3.189045 0.0775,0 0.18299,-0.204756 0.23978,-0.4316 0.12398,-0.493901 1.51885,-1.913479 2.39777,-2.445732 0.89642,-0.54288 1.86452,-0.762302 3.35689,-0.7672889 z m 13.54744,3.8124659 c -0.73314,0 -1.02844,0.09588 -1.46265,0.455578 -0.64681,0.535883 -0.96562,1.404465 -0.81523,2.205954 0.12445,0.663321 0.9362,1.567675 1.51059,1.678444 0.6865,0.132385 0.84175,0.12846 1.5106,-0.07193 0.4461,-0.133659 0.8169,-0.41575 1.12696,-0.8632 0.3871,-0.558771 0.43701,-0.776144 0.35966,-1.462644 -0.0733,-0.650029 -0.20207,-0.938687 -0.69535,-1.390711 -0.53488,-0.490153 -0.74036,-0.551488 -1.53458,-0.551488 z m -17.40786,0.575467 c -1.33993,0.115688 -2.47777,1.39908 -1.96618,2.949266 0.10627,0.321845 0.43482,0.767668 0.71933,1.007065 0.41733,0.35118 0.69436,0.455578 1.46265,0.455578 0.88199,0 0.99287,-0.05771 1.63048,-0.695354 0.66379,-0.663594 0.69709,-0.713673 0.62343,-1.606511 -0.0648,-0.780648 -0.16477,-1.021865 -0.6474,-1.462644 -0.55629,-0.508088 -1.21326,-0.699987 -1.82231,-0.6474 z m 18.55879,1.678444 c 0.36391,0.0039 0.70387,0.473713 0.50353,0.791266 -0.25037,0.397001 -0.4634,0.442685 -0.83922,0.167844 -0.36023,-0.263421 -0.25052,-0.76539 0.19183,-0.935133 0.0514,-0.01968 0.0919,-0.02453 0.14386,-0.02397 z m -17.16809,0.671377 c 0.3291,0 0.62393,0.429641 0.50354,0.743311 -0.059,0.153763 -0.28746,0.287733 -0.50354,0.287733 -0.21606,0 -0.44444,-0.13397 -0.50352,-0.287733 -0.12032,-0.31367 0.17444,-0.743311 0.50352,-0.743311 z m 11.60525,3.4528 c -0.80879,0.0012 -1.75287,0.151985 -2.15801,0.359666 -0.65747,0.337075 -1.29478,1.061624 -1.29478,1.462644 0,0.283556 -0.20185,0.525568 -0.74332,0.863201 -1.46062,0.910813 -1.94945,2.035622 -1.39071,3.21302 0.34857,0.734635 0.99371,1.126955 1.87027,1.126955 h 0.62341 l -0.11988,0.815246 c -0.30247,1.770802 0.0452,3.347338 0.79127,3.548709 0.72455,0.195558 1.232,0.07954 1.75037,-0.383644 l 0.55148,-0.503534 0.35968,0.431601 c 0.3063,0.356173 0.52992,0.442081 1.22286,0.4316 0.70522,-0.01066 0.90848,-0.09426 1.24685,-0.503534 0.37574,-0.453968 0.40244,-0.597813 0.33569,-2.158 l -0.0719,-1.678444 h 0.71932 c 0.62458,0 0.79764,-0.0845 1.27083,-0.623421 0.48861,-0.556297 0.55475,-0.720413 0.47955,-1.390711 -0.11087,-0.983197 -0.81148,-1.863914 -1.96617,-2.445733 -0.75179,-0.378799 -0.90348,-0.52115 -0.91117,-0.935134 -0.0131,-0.704682 -0.85291,-1.437162 -1.82231,-1.582532 -0.21748,-0.03261 -0.47371,-0.04835 -0.7433,-0.04796 z m 2.30187,2.541642 0.76729,0.287735 c 0.42891,0.162033 1.0356,0.564708 1.34275,0.887178 0.46835,0.49163 0.55149,0.716466 0.55149,1.390709 -0.003,0.997027 -0.12139,1.177963 -0.86321,1.390712 -0.32355,0.09279 -0.67214,0.17821 -0.76728,0.167844 -0.70498,-0.07674 -1.74274,-0.372317 -2.49369,-0.695355 l -0.88717,-0.383645 -1.15094,0.383645 c -1.53427,0.502994 -3.00063,0.652991 -3.54871,0.359666 -0.46943,-0.251228 -0.77876,-1.087431 -0.6474,-1.774355 0.0986,-0.515387 1.23388,-1.602682 1.82232,-1.750377 0.23056,-0.05786 0.7524,0.05154 1.24684,0.263756 1.47296,0.632227 2.26239,0.626322 3.52474,0 z m -2.56562,3.644623 c 0.0262,0.02764 0.004,0.941219 -0.048,2.014132 -0.0849,1.763358 -0.13087,2.001111 -0.50353,2.3738 -0.4659,0.465875 -1.19839,0.514037 -1.70242,0.143867 -0.28682,-0.210465 -0.32477,-0.443123 -0.31171,-1.678444 0.0239,-2.236559 0.0334,-2.278659 1.36673,-2.613577 0.62733,-0.157572 1.17279,-0.267416 1.19889,-0.239778 z m 0.7433,0.2158 c 0.0994,-0.03191 0.22157,-0.01162 0.38365,0.02397 0.65397,0.143637 1.37448,0.500936 1.55856,0.791266 0.25458,0.401492 0.17601,3.179158 -0.0959,3.404844 -0.31115,0.258265 -1.33647,0.415565 -1.58254,0.239777 -0.44495,-0.317969 -0.63339,-1.028364 -0.62342,-2.397776 0.0107,-1.453505 0.0616,-1.966349 0.35966,-2.062089 z"
     id="path4499"
     inkscape:connector-curvature="0" />
  <g
     id="g6120"
     transform="translate(-0.62434221,-46.358297)">
    <g
       transform="translate(0,-6.8280136)"
       id="g6100">
      <path
         id="path5892"
         style="font-size:40px;font-style:normal;font-variant:normal;font-weight:bold;font-stretch:normal;fill:#000000;fill-opacity:1;stroke:none;font-family:DejaVu Sans;-inkscape-font-specification:DejaVu Sans Bold"
         d="m 314.61826,92.800478 5.80116,0 0,25.213982 -5.80116,0 0,-25.213982"
         inkscape:connector-curvature="0" />
      <path
         id="path5894"
         style="font-size:40px;font-style:normal;font-variant:normal;font-weight:bold;font-stretch:normal;fill:#000000;fill-opacity:1;stroke:none;font-family:DejaVu Sans;-inkscape-font-specification:DejaVu Sans Bold"
         d="m 334.16072,109.84747 c -1.20994,0 -2.12279,0.20526 -2.73855,0.61576 -0.60496,0.41052 -0.90744,1.01548 -0.90744,1.81489 0,0.7346 0.24306,1.31256 0.7292,1.73387 0.49693,0.41051 1.18291,0.61576 2.05795,0.61576 1.09109,0 2.00933,-0.3889 2.75474,-1.16671 0.74539,-0.7886 1.11809,-1.77167 1.11811,-2.9492 l 0,-0.66437 -3.01401,0 m 8.86378,-2.18759 0,10.35458 -5.84977,0 0,-2.68992 c -0.77783,1.1019 -1.65286,1.90671 -2.62511,2.41445 -0.97227,0.49694 -2.15519,0.7454 -3.54876,0.7454 -1.87971,0 -3.40832,-0.54554 -4.58583,-1.63664 -1.16671,-1.10189 -1.75007,-2.52788 -1.75007,-4.27795 0,-2.12816 0.7292,-3.68918 2.18759,-4.68306 1.46919,-0.99385 3.7702,-1.49079 6.90305,-1.49081 l 3.41913,0 0,-0.45371 c -2e-5,-0.91824 -0.36192,-1.58802 -1.0857,-2.00935 -0.72381,-0.4321 -1.8527,-0.64816 -3.38671,-0.64817 -1.24234,1e-5 -2.39825,0.12425 -3.46773,0.3727 -1.06949,0.24848 -2.06336,0.62118 -2.9816,1.1181 l 0,-4.42379 c 1.24233,-0.30246 2.49006,-0.529326 3.7432,-0.680582 1.25313,-0.162025 2.50627,-0.24305 3.75941,-0.243067 3.27327,1.7e-5 5.63371,0.648189 7.08131,1.944529 1.45838,1.28556 2.18758,3.38132 2.18759,6.28729"
         inkscape:connector-curvature="0" />
      <path
         id="path5896"
         style="font-size:40px;font-style:normal;font-variant:normal;font-weight:bold;font-stretch:normal;fill:#000000;fill-opacity:1;stroke:none;font-family:DejaVu Sans;-inkscape-font-specification:DejaVu Sans Bold"
         d="m 366.69908,106.96309 0,11.05137 -5.83357,0 0,-1.79868 0,-6.65999 c -2e-5,-1.56641 -0.0378,-2.6467 -0.11343,-3.24087 -0.0648,-0.59415 -0.18367,-1.03167 -0.3565,-1.31256 -0.22688,-0.37809 -0.53476,-0.66977 -0.92365,-0.87503 -0.38892,-0.21605 -0.83184,-0.32408 -1.32875,-0.32409 -1.20994,1e-5 -2.1606,0.46994 -2.85197,1.40978 -0.6914,0.92906 -1.03709,2.22001 -1.03708,3.87284 l 0,8.9286 -5.80117,0 0,-18.148884 5.80117,0 0,2.657524 c 0.87502,-1.05868 1.80407,-1.83648 2.78714,-2.33343 0.98306,-0.507723 2.06874,-0.761592 3.25708,-0.761609 2.09575,1.7e-5 3.68377,0.642789 4.76408,1.928319 1.09108,1.28556 1.63662,3.15447 1.63665,5.60671"
         inkscape:connector-curvature="0" />
      <path
         id="path5898"
         style="font-size:40px;font-style:normal;font-variant:normal;font-weight:bold;font-stretch:normal;fill:#000000;fill-opacity:1;stroke:none;font-family:DejaVu Sans;-inkscape-font-specification:DejaVu Sans Bold"
         d="m 384.45906,114.93563 c -0.79943,1.0587 -1.67987,1.83651 -2.64132,2.33343 -0.96147,0.49694 -2.07416,0.7454 -3.3381,0.7454 -2.21459,0 -4.04568,-0.86962 -5.49327,-2.6089 -1.44759,-1.75006 -2.17139,-3.97546 -2.17139,-6.6762 0,-2.71151 0.7238,-4.93151 2.17139,-6.65999 1.44759,-1.73925 3.27868,-2.608886 5.49327,-2.608902 1.26394,1.6e-5 2.37663,0.248484 3.3381,0.745402 0.96145,0.49695 1.84189,1.28017 2.64132,2.34964 l 0,-2.689934 5.83357,0 0,16.317794 c -3e-5,2.91678 -0.92367,5.14218 -2.77095,6.6762 -1.83651,1.54481 -4.50482,2.31722 -8.00496,2.31722 -1.13431,0 -2.23081,-0.0864 -3.28948,-0.25927 -1.05869,-0.17285 -2.12278,-0.43752 -3.19226,-0.79401 l 0,-4.52102 c 1.01547,0.58336 2.00933,1.01547 2.9816,1.29635 0.97226,0.29168 1.94992,0.43751 2.93299,0.43752 1.9013,-1e-5 3.29488,-0.41592 4.18073,-1.24774 0.88582,-0.83182 1.32874,-2.13357 1.32876,-3.90525 l 0,-1.24774 m -3.82423,-11.29444 c -1.19913,2e-5 -2.13359,0.44294 -2.80336,1.32876 -0.66979,0.88586 -1.00467,2.13899 -1.00467,3.75941 0,1.66366 0.32408,2.9276 0.97226,3.79183 0.64817,0.85343 1.59342,1.28014 2.83577,1.28014 1.20991,0 2.14976,-0.44291 2.81956,-1.32876 0.66976,-0.88583 1.00465,-2.13356 1.00467,-3.74321 -2e-5,-1.62042 -0.33491,-2.87355 -1.00467,-3.75941 -0.6698,-0.88582 -1.60965,-1.32874 -2.81956,-1.32876"
         inkscape:connector-curvature="0" />
      <path
         id="path5900"
         style="font-size:40px;font-style:normal;font-variant:normal;font-weight:bold;font-stretch:normal;fill:none;stroke:#000000;stroke-width:0.82966334;stroke-opacity:1;font-family:DejaVu Sans;-inkscape-font-specification:DejaVu Sans Bold"
         d="m 395.70488,110.94937 0,-11.083794 5.83357,0 0,1.814894 c -1e-5,0.98308 -0.006,2.22001 -0.0162,3.7108 -0.0108,1.48001 -0.0162,2.46847 -0.0162,2.9654 0,1.4584 0.0378,2.51168 0.11344,3.15985 0.0756,0.63738 0.20524,1.1019 0.3889,1.39357 0.23766,0.37811 0.54554,0.66978 0.92365,0.87503 0.38889,0.20527 0.83181,0.30789 1.32875,0.30789 1.20992,0 2.16057,-0.46452 2.85197,-1.39358 0.69138,-0.92904 1.03706,-2.21998 1.03708,-3.87284 l 0,-8.961014 5.80116,0 0,18.148884 -5.80116,0 0,-2.6251 c -0.87505,1.05868 -1.80409,1.84189 -2.78715,2.34963 -0.97227,0.49694 -2.04716,0.7454 -3.22466,0.7454 -2.09578,0 -3.6946,-0.64277 -4.7965,-1.92832 -1.09109,-1.28554 -1.63664,-3.15444 -1.63664,-5.6067"
         inkscape:connector-curvature="0" />
      <path
         id="path5902"
         style="font-size:40px;font-style:normal;font-variant:normal;font-weight:bold;font-stretch:normal;fill:none;stroke:#000000;stroke-width:0.82966334;stroke-opacity:1;font-family:DejaVu Sans;-inkscape-font-specification:DejaVu Sans Bold"
         d="m 427.69229,109.84747 c -1.20993,0 -2.12277,0.20526 -2.73853,0.61576 -0.60498,0.41052 -0.90745,1.01548 -0.90745,1.81489 0,0.7346 0.24306,1.31256 0.7292,1.73387 0.49692,0.41051 1.18291,0.61576 2.05795,0.61576 1.09108,0 2.00933,-0.3889 2.75475,-1.16671 0.74538,-0.7886 1.11808,-1.77167 1.11809,-2.9492 l 0,-0.66437 -3.01401,0 m 8.86379,-2.18759 0,10.35458 -5.84978,0 0,-2.68992 c -0.77781,1.1019 -1.65285,1.90671 -2.6251,2.41445 -0.97228,0.49694 -2.15519,0.7454 -3.54875,0.7454 -1.87972,0 -3.40833,-0.54554 -4.58584,-1.63664 -1.16672,-1.10189 -1.75007,-2.52788 -1.75007,-4.27795 0,-2.12816 0.72919,-3.68918 2.18759,-4.68306 1.46918,-0.99385 3.77021,-1.49079 6.90306,-1.49081 l 3.41911,0 0,-0.45371 c -10e-6,-0.91824 -0.3619,-1.58802 -1.08569,-2.00935 -0.7238,-0.4321 -1.85271,-0.64816 -3.38671,-0.64817 -1.24234,1e-5 -2.39825,0.12425 -3.46773,0.3727 -1.0695,0.24848 -2.06336,0.62118 -2.9816,1.1181 l 0,-4.42379 c 1.24232,-0.30246 2.49006,-0.529326 3.7432,-0.680582 1.25314,-0.162025 2.50627,-0.24305 3.75942,-0.243067 3.27327,1.7e-5 5.63369,0.648189 7.08131,1.944529 1.45836,1.28556 2.18756,3.38132 2.18758,6.28729"
         inkscape:connector-curvature="0" />
      <path
         id="path5904"
         style="font-size:40px;font-style:normal;font-variant:normal;font-weight:bold;font-stretch:normal;fill:none;stroke:#000000;stroke-width:0.82966334;stroke-opacity:1;font-family:DejaVu Sans;-inkscape-font-specification:DejaVu Sans Bold"
         d="m 454.33227,114.93563 c -0.79943,1.0587 -1.67987,1.83651 -2.64132,2.33343 -0.96147,0.49694 -2.07416,0.7454 -3.3381,0.7454 -2.21459,0 -4.04568,-0.86962 -5.49327,-2.6089 -1.44759,-1.75006 -2.17139,-3.97546 -2.17139,-6.6762 0,-2.71151 0.7238,-4.93151 2.17139,-6.65999 1.44759,-1.73925 3.27868,-2.608886 5.49327,-2.608902 1.26394,1.6e-5 2.37663,0.248484 3.3381,0.745402 0.96145,0.49695 1.84189,1.28017 2.64132,2.34964 l 0,-2.689934 5.83357,0 0,16.317794 c -2e-5,2.91678 -0.92367,5.14218 -2.77095,6.6762 -1.83651,1.54481 -4.50482,2.31722 -8.00496,2.31722 -1.13431,0 -2.23081,-0.0864 -3.28948,-0.25927 -1.05869,-0.17285 -2.12278,-0.43752 -3.19226,-0.79401 l 0,-4.52102 c 1.01547,0.58336 2.00933,1.01547 2.9816,1.29635 0.97226,0.29168 1.94992,0.43751 2.93299,0.43752 1.9013,-1e-5 3.29488,-0.41592 4.18073,-1.24774 0.88582,-0.83182 1.32874,-2.13357 1.32876,-3.90525 l 0,-1.24774 m -3.82423,-11.29444 c -1.19913,2e-5 -2.13359,0.44294 -2.80336,1.32876 -0.66979,0.88586 -1.00467,2.13899 -1.00467,3.75941 0,1.66366 0.32408,2.9276 0.97226,3.79183 0.64817,0.85343 1.59342,1.28014 2.83577,1.28014 1.20991,0 2.14976,-0.44291 2.81956,-1.32876 0.66976,-0.88583 1.00465,-2.13356 1.00467,-3.74321 -2e-5,-1.62042 -0.33491,-2.87355 -1.00467,-3.75941 -0.6698,-0.88582 -1.60965,-1.32874 -2.81956,-1.32876"
         inkscape:connector-curvature="0" />
      <path
         id="path5906"
         style="font-size:40px;font-style:normal;font-variant:normal;font-weight:bold;font-stretch:normal;fill:none;stroke:#000000;stroke-width:0.82966334;stroke-opacity:1;font-family:DejaVu Sans;-inkscape-font-specification:DejaVu Sans Bold"
         d="m 483.88903,108.89141 0,1.65284 -13.56306,0 c 0.14043,1.36118 0.63196,2.38205 1.4746,3.06263 0.84262,0.68059 2.02013,1.02087 3.53255,1.02087 1.22071,0 2.46845,-0.17824 3.7432,-0.53474 1.28553,-0.36729 2.60349,-0.91825 3.95387,-1.65285 l 0,4.47241 c -1.37199,0.51854 -2.74395,0.90745 -4.11591,1.16672 -1.37198,0.27007 -2.74395,0.4051 -4.11591,0.4051 -3.28409,0 -5.83897,-0.83182 -7.66466,-2.49547 -1.81489,-1.67445 -2.72233,-4.01868 -2.72233,-7.03269 0,-2.95999 0.89124,-5.28801 2.67372,-6.98409 1.79328,-1.69604 4.25634,-2.544062 7.38919,-2.544079 2.85195,1.7e-5 5.13137,0.858849 6.83824,2.576499 1.71765,1.71768 2.57647,4.01329 2.5765,6.88685 m -5.96321,-1.92832 c -2e-5,-1.10188 -0.32411,-1.98772 -0.97226,-2.65752 -0.63739,-0.68056 -1.47462,-1.02086 -2.51168,-1.02087 -1.12351,1e-5 -2.03636,0.3187 -2.73853,0.95606 -0.70221,0.62658 -1.13972,1.53402 -1.31256,2.72233 l 7.53503,0"
         inkscape:connector-curvature="0" />
    </g>
    <g
       id="g6110">
      <path
         id="path5917"
         style="font-size:40px;font-style:normal;font-variant:normal;font-weight:bold;font-stretch:normal;fill:none;stroke:#000000;stroke-width:0.82966334;stroke-opacity:1;font-family:DejaVu Sans;-inkscape-font-specification:DejaVu Sans Bold"
         d="m 513.72322,102.98293 c -1.20994,1e-5 -2.12278,0.20527 -2.73853,0.61577 -0.60498,0.41052 -0.90745,1.01547 -0.90745,1.81489 0,0.7346 0.24306,1.31256 0.72919,1.73386 0.49693,0.41052 1.18291,0.61577 2.05796,0.61577 1.09108,0 2.00933,-0.38891 2.75474,-1.16671 0.74539,-0.78861 1.11809,-1.77168 1.1181,-2.9492 l 0,-0.66438 -3.01401,0 m 8.86379,-2.1876 0,10.3546 -5.84978,0 0,-2.68993 c -0.77782,1.1019 -1.65285,1.90672 -2.6251,2.41446 -0.97228,0.49693 -2.15519,0.7454 -3.54876,0.7454 -1.87971,0 -3.40832,-0.54555 -4.58583,-1.63664 -1.16672,-1.1019 -1.75008,-2.52788 -1.75007,-4.27796 -10e-6,-2.12816 0.72919,-3.68919 2.18758,-4.68307 1.46919,-0.99385 3.77022,-1.490787 6.90307,-1.490807 l 3.41911,0 0,-0.453715 c -10e-6,-0.91824 -0.3619,-1.58802 -1.08569,-2.00934 -0.7238,-0.4321 -1.85271,-0.64816 -3.38671,-0.64818 -1.24234,2e-5 -2.39825,0.12425 -3.46773,0.3727 -1.0695,0.24849 -2.06337,0.62119 -2.9816,1.11811 l 0,-4.42379 c 1.24233,-0.30246 2.49006,-0.52933 3.7432,-0.68058 1.25313,-0.16203 2.50627,-0.24305 3.75942,-0.24307 3.27326,2e-5 5.63369,0.64819 7.0813,1.94452 1.45837,1.28557 2.18757,3.38132 2.18759,6.287292"
         inkscape:connector-curvature="0" />
      <path
         id="path5919"
         style="font-size:40px;font-style:normal;font-variant:normal;font-weight:bold;font-stretch:normal;fill:none;stroke:#000000;stroke-width:0.82966334;stroke-opacity:1;font-family:DejaVu Sans;-inkscape-font-specification:DejaVu Sans Bold"
         d="m 540.36319,108.0711 c -0.79943,1.05869 -1.67986,1.8365 -2.64131,2.33343 -0.96147,0.49693 -2.07416,0.7454 -3.3381,0.7454 -2.2146,0 -4.04569,-0.86963 -5.49327,-2.6089 -1.4476,-1.75007 -2.17139,-3.97547 -2.17139,-6.67621 0,-2.711522 0.72379,-4.931512 2.17139,-6.659992 1.44758,-1.73925 3.27867,-2.60889 5.49327,-2.6089 1.26394,1e-5 2.37663,0.24848 3.3381,0.7454 0.96145,0.49695 1.84188,1.28016 2.64131,2.34963 l 0,-2.68993 5.83357,0 0,16.317812 c -1e-5,2.91678 -0.92366,5.14218 -2.77094,6.67619 -1.83651,1.54482 -4.50482,2.31723 -8.00496,2.31723 -1.13431,0 -2.2308,-0.0864 -3.28948,-0.25927 -1.05869,-0.17286 -2.12278,-0.43753 -3.19226,-0.79402 l 0,-4.52101 c 1.01546,0.58336 2.00933,1.01547 2.9816,1.29634 0.97226,0.29168 1.94992,0.43752 2.93299,0.43753 1.9013,-1e-5 3.29488,-0.41592 4.18073,-1.24774 0.88582,-0.83182 1.32874,-2.13357 1.32875,-3.90525 l 0,-1.24774 m -3.82422,-11.294452 c -1.19914,2e-5 -2.13359,0.44293 -2.80336,1.32876 -0.66979,0.88585 -1.00467,2.138982 -1.00467,3.759412 0,1.66367 0.32408,2.92761 0.97226,3.79183 0.64817,0.85344 1.59342,1.28015 2.83577,1.28015 1.20991,0 2.14976,-0.44292 2.81956,-1.32876 0.66976,-0.88584 1.00465,-2.13357 1.00466,-3.74322 -10e-6,-1.62043 -0.3349,-2.873562 -1.00466,-3.759412 -0.6698,-0.88583 -1.60965,-1.32874 -2.81956,-1.32876"
         inkscape:connector-curvature="0" />
      <path
         id="path5921"
         style="font-size:40px;font-style:normal;font-variant:normal;font-weight:bold;font-stretch:normal;fill:#000000;fill-opacity:1;stroke:none;font-family:DejaVu Sans;-inkscape-font-specification:DejaVu Sans Bold"
         d="m 570.04958,100.09855 0,11.05138 -5.83357,0 0,-1.79868 0,-6.65999 c -10e-6,-1.56643 -0.0378,-2.64672 -0.11343,-3.240897 -0.0648,-0.594135 -0.18366,-1.031665 -0.35649,-1.312545 -0.22688,-0.37809 -0.53476,-0.66977 -0.92365,-0.87504 -0.38892,-0.21604 -0.83183,-0.32407 -1.32876,-0.32409 -1.20993,2e-5 -2.16059,0.46995 -2.85197,1.40978 -0.69139,0.929065 -1.03709,2.220022 -1.03708,3.872852 l 0,8.92861 -5.80115,0 0,-18.148902 5.80115,0 0,2.65752 c 0.87503,-1.05867 1.80408,-1.83647 2.78716,-2.33342 0.98305,-0.50772 2.06874,-0.76159 3.25707,-0.76161 2.09575,2e-5 3.68378,0.64279 4.76409,1.92832 1.09107,1.28556 1.63662,3.15446 1.63663,5.606712"
         inkscape:connector-curvature="0" />
      <path
         id="path5923"
         style="font-size:40px;font-style:normal;font-variant:normal;font-weight:bold;font-stretch:normal;fill:#000000;fill-opacity:1;stroke:none;font-family:DejaVu Sans;-inkscape-font-specification:DejaVu Sans Bold"
         d="m 584.09877,96.711838 c -1.28555,0 -2.26862,0.46453 -2.9492,1.39357 -0.66978,0.91826 -1.00468,2.247012 -1.00467,3.986272 -10e-6,1.73929 0.33489,3.07345 1.00467,4.00249 0.68058,0.91825 1.66365,1.37737 2.9492,1.37737 1.26393,0 2.23078,-0.45912 2.90058,-1.37737 0.66976,-0.92904 1.00465,-2.2632 1.00467,-4.00249 -2e-5,-1.73926 -0.33491,-3.068012 -1.00467,-3.986272 -0.6698,-0.92904 -1.63665,-1.39357 -2.90058,-1.39357 m 0,-4.14832 c 3.12202,2e-5 5.55808,0.84264 7.30817,2.52788 1.76085,1.68527 2.64129,4.01869 2.6413,7.000282 -10e-6,2.98162 -0.88045,5.31505 -2.6413,7.0003 -1.75009,1.68525 -4.18615,2.52788 -7.30817,2.52788 -3.13285,0 -5.58511,-0.84263 -7.35678,-2.52788 -1.76088,-1.68525 -2.64132,-4.01868 -2.64131,-7.0003 -10e-6,-2.981592 0.88043,-5.315012 2.64131,-7.000282 1.77167,-1.68524 4.22393,-2.52786 7.35678,-2.52788"
         inkscape:connector-curvature="0" />
      <path
         id="path5925"
         style="font-size:40px;font-style:normal;font-variant:normal;font-weight:bold;font-stretch:normal;fill:#000000;fill-opacity:1;stroke:none;font-family:DejaVu Sans;-inkscape-font-specification:DejaVu Sans Bold"
         d="m 612.4564,93.568178 0,4.40759 c -1.24235,-0.51852 -2.44147,-0.90743 -3.59736,-1.16671 -1.15593,-0.25926 -2.24702,-0.38889 -3.27329,-0.38891 -1.1019,2e-5 -1.92292,0.14046 -2.46306,0.42132 -0.52935,0.27009 -0.79402,0.6914 -0.79402,1.26394 0,0.46454 0.19985,0.82103 0.59957,1.06949 0.4105,0.248475 1.1397,0.432115 2.18759,0.550945 l 1.02087,0.14583 c 2.97079,0.378117 4.96932,0.999287 5.99562,1.863507 1.02626,0.86426 1.53939,2.22002 1.53941,4.06731 -2e-5,1.93372 -0.71301,3.38671 -2.13898,4.35897 -1.42599,0.97227 -3.55417,1.4584 -6.38452,1.4584 -1.19912,0 -2.44146,-0.0972 -3.727,-0.29168 -1.27475,-0.18365 -2.5873,-0.46453 -3.93766,-0.84263 l 0,-4.40758 c 1.15591,0.56175 2.33882,0.98306 3.54875,1.26394 1.22073,0.28087 2.45766,0.42131 3.71081,0.42131 1.13429,0 1.98772,-0.15664 2.56029,-0.46993 0.57254,-0.31328 0.85882,-0.7778 0.85882,-1.39357 0,-0.51854 -0.19986,-0.90204 -0.59955,-1.15051 -0.38892,-0.25926 -1.17213,-0.45912 -2.34963,-0.59956 l -1.02088,-0.12964 c -2.5819,-0.32407 -4.39139,-0.92364 -5.42846,-1.79869 -1.03708,-0.87503 -1.55562,-2.20378 -1.55562,-3.986282 0,-1.9229 0.65898,-3.34888 1.97693,-4.27795 1.31795,-0.92903 3.33809,-1.39355 6.06043,-1.39357 1.06948,2e-5 2.19298,0.0811 3.37051,0.24307 1.1775,0.16205 2.45765,0.41592 3.84043,0.76159"
         inkscape:connector-curvature="0" />
      <path
         id="path5927"
         style="font-size:40px;font-style:normal;font-variant:normal;font-weight:bold;font-stretch:normal;fill:#000000;fill-opacity:1;stroke:none;font-family:DejaVu Sans;-inkscape-font-specification:DejaVu Sans Bold"
         d="m 624.38281,87.848048 0,5.15298 5.97942,0 0,4.14832 -5.97942,0 0,7.697082 c -10e-6,0.84264 0.16744,1.41519 0.50234,1.71767 0.33488,0.29168 0.99926,0.43752 1.99314,0.43751 l 2.9816,0 0,4.14832 -4.97474,0 c -2.29022,0 -3.91607,-0.47532 -4.87751,-1.42598 -0.95066,-0.96146 -1.42599,-2.58729 -1.42599,-4.87752 l 0,-7.697082 -2.88438,0 0,-4.14832 2.88438,0 0,-5.15298 5.80116,0"
         inkscape:connector-curvature="0" />
      <path
         id="path5929"
         style="font-size:40px;font-style:normal;font-variant:normal;font-weight:bold;font-stretch:normal;fill:#000000;fill-opacity:1;stroke:none;font-family:DejaVu Sans;-inkscape-font-specification:DejaVu Sans Bold"
         d="m 633.92718,93.001028 5.80117,0 0,18.148902 -5.80117,0 0,-18.148902 m 0,-7.06509 5.80117,0 0,4.73167 -5.80117,0 0,-4.73167"
         inkscape:connector-curvature="0" />
      <path
         id="path5931"
         style="font-size:40px;font-style:normal;font-variant:normal;font-weight:bold;font-stretch:normal;fill:#000000;fill-opacity:1;stroke:none;font-family:DejaVu Sans;-inkscape-font-specification:DejaVu Sans Bold"
         d="m 660,93.568178 0,4.73168 c -0.78863,-0.54013 -1.58264,-0.93984 -2.38204,-1.19912 -0.78863,-0.25926 -1.60964,-0.3889 -2.46306,-0.3889 -1.62045,0 -2.88439,0.47534 -3.79182,1.42598 -0.89665,0.93986 -1.34498,2.257812 -1.34497,3.953862 -10e-6,1.69607 0.44832,3.01943 1.34497,3.97008 0.90743,0.93986 2.17137,1.40978 3.79182,1.40978 0.90743,0 1.76626,-0.13503 2.57649,-0.4051 0.821,-0.27008 1.57721,-0.66978 2.26861,-1.19913 l 0,4.74788 c -0.90746,0.33489 -1.83111,0.58335 -2.77094,0.7454 -0.92907,0.17284 -1.86352,0.25927 -2.80336,0.25927 -3.27329,0 -5.83358,-0.83723 -7.68087,-2.51168 -1.8473,-1.68525 -2.77095,-4.02408 -2.77094,-7.0165 -10e-6,-2.992392 0.92364,-5.325822 2.77094,-7.000282 1.84729,-1.68524 4.40758,-2.52786 7.68087,-2.52788 0.95064,2e-5 1.88509,0.0864 2.80336,0.25927 0.92903,0.16206 1.85268,0.41053 2.77094,0.74539"
         inkscape:connector-curvature="0" />
    </g>
  </g>
  <path
     sodipodi:nodetypes="cscccssscccssssssssscccscccscccsssssscccccsssssssscccsscccsssssssssssssssssssssscccsscccssscccsccccssscccccscccssssssccccccssssssssssscccssssssssscccssccccccsssssssssssssscccsssccssc"
     id="path2980"
     d="m 299.49031,31.514492 c -8.06368,-0.815927 -14.71663,-4.726971 -17.25495,-10.143567 -1.09409,-2.334728 -1.27304,-4.864956 -0.51718,-7.312174 l 0.17851,-0.577952 -0.21997,-0.160227 c -0.12097,-0.08813 -0.33893,-0.371016 -0.48432,-0.628644 -0.20208,-0.358084 -0.35815,-0.513821 -0.66267,-0.661228 -0.40874,-0.197876 -0.51647,-0.352281 -0.24538,-0.351704 0.21257,4.39e-4 0.72815,0.322915 0.94867,0.593316 l 0.18392,0.225518 0.11678,-0.587498 c 0.10846,-0.545659 0.27552,-0.858928 0.37049,-0.694751 0.0223,0.03837 -0.0317,0.364767 -0.11966,0.725287 -0.20881,0.855323 -0.20564,1.012063 0.0236,1.172668 0.18624,0.130449 0.20055,0.115943 0.57227,-0.57973 2.12249,-3.9723951 6.78979,-6.7121628 12.87097,-7.5554264 1.5296,-0.2121077 4.94231,-0.2100646 6.51123,0.00386 3.21406,0.4383198 5.86487,1.2437541 8.50897,2.5853924 6.81133,3.456119 10.1341,9.485675 8.21956,14.915378 -0.34981,0.992107 -0.55294,1.388721 -1.2282,2.398257 -1.02772,1.536468 -2.73961,3.042124 -4.7271,4.157615 l -2.14775,1.015277 -0.86047,0.300756 c -1.15677,0.40432 -2.70738,0.777185 -4.13795,0.995009 -1.35338,0.206076 -4.5953,0.296487 -5.89943,0.164534 v 0 z m 5.15655,-0.60626 c 1.38601,-0.190392 2.99377,-0.55057 4.14838,-0.929331 0.64726,-0.212325 1.20548,-0.414949 1.2405,-0.450281 l 1.39699,-0.635693 0.45262,-0.228089 c 1.23474,-0.622223 3.13618,-2.101451 3.91539,-3.046015 0.54601,-0.661831 1.075,-1.426903 1.38993,-2.010178 0.27924,-0.51719 0.69714,-1.540012 0.69714,-1.706279 0,-0.05052 -0.40156,-0.08555 -0.98324,-0.08575 -1.70832,-4.76e-4 -3.17921,-0.329283 -4.54761,-1.016155 -0.83049,-0.416866 -1.58049,-0.905539 -3.02465,-1.970776 -0.65422,-0.482562 -1.3699,-0.968833 -1.59043,-1.0806 l -0.40091,-0.203211 -0.72558,0.729353 -0.72556,0.729355 0.5147,0.06452 c 0.41389,0.05187 0.69443,0.02029 1.43239,-0.161381 0.50473,-0.124246 0.94894,-0.195216 0.98712,-0.157717 0.0381,0.03752 -0.29612,0.218682 -0.74288,0.402619 -0.44679,0.183933 -0.84274,0.360091 -0.87991,0.391452 -0.0372,0.03137 0.49378,0.50152 1.17988,1.044802 1.77636,1.406578 1.75587,1.491023 -0.10588,0.436176 -0.68387,-0.387483 -1.25315,-0.69229 -1.26507,-0.677344 -0.012,0.01494 -0.1114,0.499129 -0.22105,1.075963 -0.27992,1.47243 -0.38029,1.480001 -0.32836,0.02478 l 0.0428,-1.198826 -0.18544,0.09816 c -0.10203,0.054 -0.5251,0.325956 -0.94018,0.604376 -0.41506,0.278414 -0.77833,0.482551 -0.80725,0.45364 -0.0288,-0.02893 0.25147,-0.370795 0.62306,-0.75974 l 0.67562,-0.707172 -0.78605,-0.122053 c -0.43233,-0.06713 -0.79761,-0.13135 -0.81174,-0.142706 -0.014,-0.01136 0.34442,-0.58593 0.79675,-1.276827 0.67384,-1.029151 0.79693,-1.266907 0.68119,-1.315575 -0.2551,-0.107265 -1.79251,-0.0722 -2.23885,0.05105 -0.94704,0.26153 -1.53917,0.609798 -3.40858,2.004806 -1.70658,1.273518 -3.69084,2.165396 -5.41338,2.433191 -0.57198,0.08892 -0.65448,0.1221 -0.53,0.213116 0.13149,0.09615 0.0351,0.247741 -0.89257,1.403275 -0.57199,0.712518 -1.06517,1.337546 -1.09594,1.388965 -0.0308,0.05142 0.13657,0.382976 0.37188,0.736808 0.23531,0.353828 0.40867,0.674315 0.38526,0.712181 -0.0234,0.03785 -0.32046,-0.109285 -0.66013,-0.327007 -0.33966,-0.217718 -0.62862,-0.383622 -0.64216,-0.368667 -0.0136,0.01495 -0.30303,0.584513 -0.64337,1.265681 -0.56543,1.131696 -0.74917,1.419122 -0.84558,1.322712 -0.0191,-0.01899 0.14095,-0.619431 0.35546,-1.334253 0.21452,-0.714819 0.37313,-1.316593 0.35246,-1.337267 -0.0207,-0.02068 -0.3217,0.02701 -0.66895,0.106004 -0.86499,0.196735 -0.93318,0.0631 -0.17193,-0.336929 0.33888,-0.178081 0.61616,-0.349783 0.61616,-0.381564 0,-0.03179 -0.18445,-0.24504 -0.40988,-0.473913 -0.22544,-0.228873 -0.38248,-0.443531 -0.349,-0.477011 0.0335,-0.03345 0.41076,0.07843 0.83837,0.248702 l 0.77749,0.309577 0.48921,-0.905413 c 0.26905,-0.49798 0.48723,-0.935273 0.48487,-0.97176 -0.0101,-0.152801 -1.57391,-1.233562 -2.33651,-1.614658 -0.45359,-0.226671 -1.11091,-0.606322 -1.46074,-0.843668 l -0.63601,-0.431541 -0.46854,0.231876 c -0.396,0.19598 -0.58356,0.231875 -1.21163,0.231875 -0.64989,0 -0.81485,-0.03398 -1.31531,-0.271169 -0.72093,-0.34163 -1.17449,-0.737563 -1.43244,-1.25045 -0.20274,-0.403129 -0.46916,-1.448582 -0.65905,-2.58614 -0.13569,-0.736633 -0.21972,-1.367615 -0.37293,-2.010175 0.0672,-0.351737 -0.20232,-0.267891 -0.35124,0.109246 -1.61258,8.31057 3.68944,12.458492 9.55497,15.084161 2.84469,1.273416 5.32416,1.763243 7.72937,1.978085 0.97761,0.09814 4.21696,0.04587 5.15655,-0.0832 v 0 z m 13.65795,-9.308887 c 0.013,-0.0105 -0.29267,-0.04553 -0.67936,-0.07777 -3.22227,-0.26873 -5.78222,-1.629496 -8.20679,-4.36238 -0.53045,-0.597898 -0.86124,-1.048159 -0.89977,-1.224693 -0.0335,-0.153546 -0.1568,-0.682452 -0.27399,-1.175342 l -0.21308,-0.896175 1.08042,-0.651135 1.08042,-0.651133 0.7548,0.131752 c 0.41514,0.07245 0.77622,0.110323 0.8024,0.08414 0.0423,-0.04225 -0.80111,-0.45809 -1.3594,-0.670347 l -0.20788,-0.07904 0.33242,-0.458324 c 0.18283,-0.252081 0.60132,-0.82488 0.92999,-1.272898 0.32867,-0.448013 0.58311,-0.8579362 0.56545,-0.9109341 -0.0177,-0.053002 -0.44246,0.2742296 -0.94399,0.7271721 -0.50153,0.452945 -0.99089,0.89469 -1.08745,0.981659 -0.175,0.15758 -0.17569,0.153623 -0.19972,-1.158039 -0.0132,-0.7238887 -0.057,-1.3161593 -0.0972,-1.3161593 -0.0401,0 -0.20655,0.6720124 -0.36964,1.4933613 l -0.29658,1.493356 -0.65501,-0.616076 c -1.0087,-0.948726 -1.02011,-0.876177 -0.0953,0.605943 l 0.61832,0.990917 -1.00896,0.366242 c -0.5549,0.201436 -1.0259,0.383222 -1.04665,0.403967 -0.0208,0.02076 0.0208,0.343239 0.0922,0.716661 0.0714,0.373417 0.1299,0.713186 0.1299,0.755048 0,0.04187 -0.19154,-0.0201 -0.42565,-0.13769 -0.78091,-0.392227 -1.4432,-0.518924 -2.7207,-0.520465 -1.07401,-0.0015 -1.24658,0.02129 -1.92278,0.251459 -0.4086,0.139089 -1.29352,0.50617 -1.96649,0.815744 -3.53221,1.624856 -4.27398,1.860529 -5.84509,1.85716 -0.87462,-0.0019 -1.56818,-0.08423 -1.68389,-0.199933 -0.0234,-0.0234 0.37305,-0.554905 0.88092,-1.181175 0.50788,-0.62627 0.92343,-1.169792 0.92343,-1.207829 0,-0.03804 -0.20649,-0.279202 -0.45886,-0.535927 l -0.45884,-0.466771 0.69919,-0.646845 c 0.38457,-0.35577 0.67361,-0.648412 0.64235,-0.650318 -0.0311,-0.0019 -0.40169,0.155099 -0.82316,0.348893 -0.42148,0.193798 -0.79366,0.32162 -0.8271,0.284047 -0.0334,-0.03757 -0.15015,-0.618929 -0.25938,-1.291902 -0.10922,-0.672971 -0.22723,-1.255619 -0.26224,-1.29477 -0.0705,-0.07877 -0.1443,0.721926 -0.17182,1.862864 -0.01,0.408591 -0.0274,0.752514 -0.0392,0.764265 -0.0117,0.01174 -0.44286,-0.277951 -0.9583,-0.643793 -0.51542,-0.365846 -0.95619,-0.646112 -0.97948,-0.622825 -0.0233,0.0233 0.3291,0.453135 0.7831,0.955216 l 0.82545,0.91287 -0.69129,0.430877 c -0.38022,0.236978 -0.69129,0.45692 -0.69129,0.488754 0,0.03184 0.34412,-0.03829 0.76474,-0.155766 1.19575,-0.334062 1.16201,-0.333779 1.53595,-0.01285 l 0.33421,0.286843 -0.78452,0.719434 c -0.43147,0.39569 -0.91131,0.826137 -1.06628,0.956557 l -0.28183,0.237125 -0.56177,-0.291274 c -0.42935,-0.222601 -0.54827,-0.3245 -0.5044,-0.432217 0.14432,-0.354538 0.14366,-1.218564 -0.002,-1.720443 -0.18174,-0.629207 -0.71557,-1.192457 -1.48853,-1.57064 -0.80286,-0.392797 -1.2642,-0.355456 -3.7583,0.304212 -1.15366,0.305136 -2.11455,0.569431 -2.13528,0.587326 -0.14273,0.123079 2.1727,2.029741 3.66749,3.02003 2.45798,1.628411 4.60733,2.54299 6.68331,2.843837 1.17028,0.1696 2.53353,0.06639 3.76417,-0.284958 1.09634,-0.313005 2.83449,-1.19044 4.30866,-2.175053 1.29126,-0.862441 1.6802,-1.032312 2.7428,-1.197891 0.95947,-0.149518 2.1208,0.09627 3.05852,0.64734 0.20454,0.120198 1.21748,0.892727 2.25098,1.71673 2.27115,1.810793 3.60863,2.725568 4.46854,3.056291 1.36009,0.523087 3.15582,0.831401 4.22767,0.725855 0.24034,-0.02368 0.44765,-0.05165 0.46068,-0.06217 v 0 z m -31.38258,-7.017298 c -0.19962,-0.220568 -0.1872,-0.50489 0.0316,-0.723695 0.23641,-0.236397 0.58433,-0.191175 0.8041,0.104515 0.15275,0.205554 0.15832,0.257239 0.0518,0.480694 -0.15197,0.318577 -0.65359,0.396858 -0.8874,0.138486 z m -1.40114,2.723792 c 0.13415,-0.204719 0.13634,-0.252596 0.0211,-0.458843 -0.24504,-0.438575 -0.95344,-0.279553 -0.95344,0.214023 0,0.481807 0.66298,0.655903 0.93233,0.24482 z"
     style="fill:#000000;stroke-width:0.941095"
     inkscape:connector-curvature="0" />
  <g
     id="g6588"
     transform="matrix(0.36059074,0,0,0.36059074,187.77457,-4.3980274)">
    <g
       transform="matrix(0.85270328,0,0,0.85270328,182.42497,62.700008)"
       id="g3085">
      <path
         style="fill:#000000;fill-opacity:1;fill-rule:evenodd;stroke:none"
         d="m 231.5625,0.03125 c -10.30625,0 -18.65625,8.3500037 -18.65625,18.65625 0,8.694549 5.95351,15.959997 14,18.03125 0.994,-1.788263 2.53306,-4.337689 3.3125,-5.40625 0.50096,-0.68679 0.97426,-1.324489 1.03125,-1.40625 0.057,-0.08176 0.18567,-0.03308 0.3125,0.09375 0.12683,0.126829 -0.20547,0.912052 -0.75,1.75 l -1,1.53125 1.21875,-1.15625 c 1.35247,-1.282881 1.81806,-1.402638 2.4375,-0.65625 0.58665,0.706869 -1.71346,3.28726 -4.84375,5.625 0.96129,0.152682 1.93313,0.25 2.9375,0.25 10.30625,0 18.6875,-8.350004 18.6875,-18.65625 0,-1.499524 -0.19629,-2.946743 -0.53125,-4.34375 -1.00674,1.550731 -2.92784,3.858162 -5.8125,6.96875 l -0.6875,-0.71875 -0.78125,-0.8125 4.15625,-4.40625 c 1.01013,-1.071401 1.89047,-1.967052 2.625,-2.71875 -0.17254,-0.503401 -0.34907,-0.985799 -0.5625,-1.46875 -2.22788,2.554587 -7.1794,7.28125 -7.875,7.28125 -0.12596,0 0.10406,-0.460379 0.5,-1 1.4146,-1.927909 5.01419,-5.427485 7.03125,-7.03125 -3.05443,-6.1624949 -9.40879,-10.40625 -16.75,-10.40625 z m 1.96875,4.25 c 2.29929,-0.022514 5.59441,0.1556565 6.34375,0.46875 2.27174,0.9491935 3.05859,4.0230861 1.375,5.40625 -0.65481,0.537961 -1.05339,0.558247 -3.78125,0.3125 -1.66457,-0.149957 -4.25654,-0.278156 -5.78125,-0.28125 -4.7706,-0.0097 -4.55976,0.735744 1.5,5.4375 2.20202,1.708543 3.94476,3.148989 3.875,3.21875 -0.0698,0.06976 -2.31772,0.258647 -4.96875,0.40625 -4.22926,0.235474 -5.01017,0.364842 -6.5,1.09375 -1.99523,0.976174 -2.66266,1.995936 -1.9375,3.03125 0.68405,0.976621 3.15032,2.148304 6.21875,2.9375 1.46233,0.37611 2.71833,0.723849 2.78125,0.78125 0.0629,0.0574 -0.18102,0.526758 -0.5625,1.0625 -0.80075,1.124553 -1.80668,1.243788 -4.875,0.5 -2.11124,-0.511784 -4.42354,-1.628037 -7,-3.375 -2.35138,-1.594352 -3.5625,-3.180249 -3.5625,-4.65625 0,-3.101516 6.63524,-5.233183 12.84375,-4.125 l 1.40625,0.25 L 229,15.46875 c -3.15042,-2.103769 -6.15625,-5.6962479 -6.15625,-7.34375 0,-0.1808459 0.27456,-0.6183142 0.625,-0.96875 0.78454,-0.7845384 2.83062,-0.8282434 7.46875,-0.15625 4.29267,0.6219423 6.875,0.6192652 6.875,0 0,-0.6842975 -1.44954,-1.2826413 -4.09375,-1.75 -1.2782,-0.2259193 -2.37867,-0.5417506 -2.46875,-0.6875 -0.11141,-0.1802726 0.90168,-0.2677418 2.28125,-0.28125 z m 6.78125,14.53125 c 0.0642,0.01713 0.12062,0.05812 0.1875,0.125 0.13376,0.133757 -0.2515,0.771456 -0.84375,1.40625 -0.59226,0.634795 -2.47476,2.948709 -4.1875,5.15625 -1.71275,2.207541 -3.2737,4.03125 -3.46875,4.03125 -0.19505,0 -0.23863,-0.192218 -0.0937,-0.4375 0.36335,-0.615172 2.31854,-3.070905 5.46875,-6.875 1.46247,-1.766033 2.72024,-3.293239 2.78125,-3.375 0.0305,-0.04088 0.0921,-0.04838 0.15625,-0.03125 z M 242,20.25 c 0.13996,0 0.63983,0.271021 1.125,0.59375 l 0.75,0.46875 c -1.15361,1.243696 -2.38262,2.553656 -3.875,4.09375 -5.28232,5.451198 -5.74645,5.841957 -6.375,5.375 -0.64346,-0.47803 -0.56056,-0.616246 1.5,-2.75 1.1954,-1.237867 3.15403,-3.5105 4.375,-5.03125 1.22097,-1.52075 2.36004,-2.75 2.5,-2.75 z m -4.28125,8.25 c 0.2441,0 0.87844,0.227057 1.40625,0.5 1.33093,0.68825 1.14029,1.768605 -0.375,2.25 -1.53385,0.487291 -3.6712,0.797553 -3.90625,0.5625 -0.28168,-0.281683 2.34849,-3.3125 2.875,-3.3125 z m -6.28125,0.96875 c 0.0164,-0.01644 0.15361,0.08311 0.40625,0.28125 0.30663,0.240477 0.53125,0.496345 0.53125,0.5625 0,0.262201 -0.24007,0.09317 -0.65625,-0.4375 -0.19813,-0.252641 -0.29769,-0.389806 -0.28125,-0.40625 z m -2.625,1.0625 c 0.75533,-0.01457 1.21576,-0.003 1.25,0.03125 0.0685,0.06849 -0.0517,0.413752 -0.28125,0.78125 -0.4813,0.770681 -0.86697,0.774546 -4.84375,0.15625 -1.55887,-0.242368 -2.9048,-0.498548 -2.96875,-0.5625 -0.064,-0.06395 1.71396,-0.199805 3.9375,-0.3125 1.11177,-0.05635 2.15092,-0.07918 2.90625,-0.09375 z"
         transform="matrix(3.138949,0,0,3.138949,-871.17821,-59.229706)"
         id="path3079" />
    </g>
    <text
       id="text3111"
       y="85.284348"
       x="-4.678925"
       style="font-style:normal;font-weight:normal;line-height:0%;font-family:'Bitstream Vera Sans';fill:#000000;fill-opacity:1;stroke:none"
       xml:space="preserve"><tspan
         y="85.284348"
         x="-4.678925"
         id="tspan3113"
         sodipodi:role="line"
         style="font-size:75.5119px;line-height:1.25">(</tspan></text>
    <text
       xml:space="preserve"
       style="font-style:normal;font-weight:normal;line-height:0%;font-family:'Bitstream Vera Sans';fill:#000000;fill-opacity:1;stroke:none"
       x="103.32108"
       y="85.284348"
       id="text3119"><tspan
         sodipodi:role="line"
         id="tspan3121"
         x="103.32108"
         y="85.284348"
         style="font-size:75.5119px;line-height:1.25">)</tspan></text>
  </g>
  <g
     id="g7566"
     transform="matrix(0.5987801,0,0,0.5987801,-8.1094385,-26.892225)">
    <g
       transform="matrix(0.19903242,0,0,0.19903242,192.02329,52.713997)"
       id="g6648">
      <path
         d="M 0,113.5 V 0 H 24.09581 48.19162 L 44.61345,4.75 C 29.94371,24.224 19.63704,48.4742 14.331207,76 c -2.313278,12.00091 -2.619544,51.39818 -0.485862,62.5 4.439015,23.09677 9.627555,39.00146 17.779375,54.5 4.95945,9.4291 14.97118,23.89785 20.77243,30.01991 L 56.16866,227 H 28.08433 0 Z"
         id="path3791"
         style="fill:#000000"
         inkscape:connector-curvature="0" />
      <path
         d="m 313,226.28785 c 0,-0.39168 1.75241,-2.52918 3.89424,-4.75 7.48936,-7.76554 28.35737,-38.69784 26.97073,-39.97825 C 343.29984,181.03777 291.07058,155 290.58897,155 c -0.23422,0 -1.44684,1.6875 -2.69472,3.75 -1.24788,2.0625 -4.77209,7.11312 -7.83156,11.22361 -15.45333,20.76193 -31.80988,33.60759 -51.15972,40.17841 -8.78727,2.98399 -10.31968,3.19451 -23.40297,3.21512 -15.79365,0.0249 -21.0014,-1.09356 -33.5,-7.19457 -8.90189,-4.34532 -21.51982,-16.29742 -26.91686,-25.49648 C 136.25269,165.6249 130.37392,142.86623 129.34536,119.75 L 128.68907,105 H 232.23103 335.773 l 0.45064,-3.07037 C 337.25727,94.88702 335.16907,59.43687 333.22361,51 329.44065,34.59448 323.55525,20.10136 315.55903,7.5 313.81401,4.75 312.0478,1.9375 311.63412,1.25 311.04106,0.264393 315.75929,0 333.94098,0 H 357 V 113.5 227 h -22 c -12.1,0 -22,-0.32047 -22,-0.71215 z"
         id="path3789"
         style="fill:#000000"
         inkscape:connector-curvature="0" />
      <path
         d="m 132.41568,45.92409 c 3.36284,-25.35031 28.89715,-43.946584 55.00975,-40.062818 4.17156,0.620442 8.36988,1.540419 9.32961,2.044394 0.95973,0.503974 4.35216,2.164924 7.53875,3.691 C 216.23827,17.316953 225,31.95136 225,46.1815 V 51 h -46.62883 -46.62883 z"
         id="path3785"
         style="fill:#000000"
         inkscape:connector-curvature="0" />
    </g>
  </g>
  <g
     id="g7586"
     transform="matrix(0.5987801,0,0,0.5987801,-10.733059,-27.927431)">
    <path
       style="fill:#000000"
       id="path2909"
       d="m 406.67122,102.22946 c 0,-0.0328 3.76621,-5.708841 8.36935,-12.613364 l 8.36935,-12.553677 -8.42905,-12.642744 -8.42906,-12.642744 6.32916,0.0034 6.32917,0.0034 8.37908,12.580709 c 4.6085,6.919391 8.37908,12.620297 8.37908,12.668681 0,0.04839 -3.77058,5.749291 -8.37908,12.668681 l -8.37908,12.580708 -6.26946,0.003 c -3.4482,0.002 -6.26946,-0.0235 -6.26946,-0.0563 z"
       inkscape:connector-curvature="0" />
    <path
       style="fill:none;stroke:#000000;stroke-width:1;stroke-miterlimit:4;stroke-dasharray:none;stroke-opacity:1;marker-start:none"
       id="path2907"
       d="m 423.54824,102.22946 c 0,-0.0328 3.76621,-5.708841 8.36935,-12.613364 l 8.36935,-12.553677 -8.42905,-12.642744 -8.42906,-12.642744 h 6.27972 6.27973 l 16.83735,25.256106 16.83735,25.256103 h -6.28001 -6.28 l -5.26789,-7.903674 c -2.89734,-4.347021 -5.27735,-7.903675 -5.28892,-7.903675 -0.0116,0 -2.39159,3.556654 -5.28893,7.903675 l -5.26789,7.903674 h -6.22055 c -3.4213,0 -6.22055,-0.0269 -6.22055,-0.0597 z"
       inkscape:connector-curvature="0" />
    <path
       style="fill:#000000"
       id="path2905"
       d="m 461.36191,83.41963 c -1.51374,-2.272506 -2.75225,-4.171171 -2.75225,-4.219255 0,-0.04808 4.38565,-0.08742 9.74589,-0.08742 h 9.74588 v 4.219255 4.219256 h -6.99363 -6.99364 l -2.75225,-4.131832 z"
       inkscape:connector-curvature="0" />
    <path
       style="fill:#000000"
       id="path2888"
       d="m 452.96418,70.83708 c -1.50348,-2.260442 -2.75143,-4.157724 -2.77322,-4.216182 -0.0232,-0.0621 5.76989,-0.106287 13.93543,-0.106287 h 13.97504 v 4.219256 4.219255 l -11.20182,-0.0031 -11.20183,-0.0031 -2.7336,-4.109894 z"
       inkscape:connector-curvature="0" />
  </g>
  <g
     id="g7560"
     transform="matrix(0.5987801,0,0,0.5987801,-6.1672739,-26.89222)">
    <g
       transform="matrix(0.84945729,0,0,0.84945729,558.89259,118.90918)"
       id="g5800">
      <path
         d="m -481.45681,-17.139548 c -6.67143,-1.88208 -12.56822,-6.293519 -16.14867,-12.080969 -2.957,-4.7797 -3.03125,-5.21726 -3.36793,-19.84654 -0.43501,-18.90166 0.43902,-22.41008 7.28891,-29.25824 4.01302,-4.01201 6.306,-5.40376 11.12096,-6.75 7.72338,-2.15943 7.48501,-2.19897 6.81897,1.13121 -0.37586,1.87932 0.10955,3.93705 1.44788,6.13775 1.38489,2.27727 1.76697,3.96992 1.22412,5.42287 -0.43406,1.16174 -1.32671,5.2312 -1.98367,9.04325 -1.53848,8.92708 -4.25755,12.98207 -8.17917,12.19775 -2.68915,-0.53784 -2.80146,-0.4174 -2.23798,2.40002 1.17008,5.85036 -3.97047,7.79394 -10.28772,3.88967 -3.94597,-2.43875 -4.12978,-1.8385 -1.09677,3.58156 1.52002,2.71632 3.67819,4.69142 6.72493,6.15449 2.83425,1.36102 4.68227,2.98344 5.01794,4.40536 0.54917,2.32633 0.92136,2.59864 7.2698,5.31881 8.25703,3.53797 18.76228,0.86404 24.99341,-6.36165 2.92758,-3.39484 9.39097,-7.68203 10.26453,-6.80848 1.08971,1.08972 -2.24144,9.24876 -5.17559,12.67666 -7.02064,8.202029 -21.91693,12.068899 -33.69395,8.746479 z"
         id="path5710"
         style="fill:#000000"
         inkscape:connector-curvature="0" />
      <path
         d="m -472.46242,-44.846297 c 1.34733,-1.36977 2.79693,-1.96098 3.83316,-1.56334 2.68762,1.03133 1.13456,3.11197 -2.57689,3.45228 l -3.42299,0.31386 z"
         id="path5640"
         style="fill:#000000"
         inkscape:connector-curvature="0" />
      <path
         d="m -471.44393,-81.305147 c -2.60006,-5.45238 -2.33627,-5.81307 3.78908,-5.18088 7.75525,0.80041 8.23887,1.3838 4.41645,5.32754 -4.1751,4.30761 -6.09782,4.27324 -8.20553,-0.14666 z"
         id="path5632"
         style="fill:#000000"
         inkscape:connector-curvature="0" />
    </g>
  </g>
  <g
     id="g8427"
     transform="matrix(0.5987801,0,0,0.5987801,-8.9670942,-29.282974)">
    <path
       id="path8423"
       d="m 597.25,57.25 -2.46875,12.5 h 4.25 c 2.67651,0 4.51495,0.472856 5.53125,1.40625 1.01629,0.933842 1.31223,2.439517 0.90625,4.53125 l -2,10.28125 H 598.625 l 1.90625,-9.78125 c 0.21643,-1.112186 0.12551,-1.845365 -0.25,-2.25 -0.37551,-0.404635 -1.15348,-0.625 -2.375,-0.625 h -3.84375 l -2.4375,12.65625 h -4.78125 l 5.625,-28.6875 c -21.80631,0.778484 -39.03125,10.331671 -39.03125,22 0,6.214537 4.88668,11.835703 12.75,15.84375 l 4.90625,-25.375 h 9.25 c 2.7845,0 4.81666,0.726243 6.09375,2.1875 1.27664,1.461704 1.66574,3.505403 1.15625,6.125 -0.20971,1.079026 -0.56287,2.075237 -1.0625,2.96875 -0.49964,0.893961 -1.16217,1.696341 -1.96875,2.4375 -0.96118,0.899786 -2.01258,1.555718 -3.1875,1.9375 -1.17492,0.382678 -2.68071,0.5625 -4.5,0.5625 h -4.125 l -2.15625,11.09375 c 6.93875,2.677357 15.48524,4.28125 24.75,4.28125 2.41143,0 4.79369,-0.13806 7.09375,-0.34375 l 6.21875,-31.25 h 9.28125 c 2.7845,0 4.81666,0.726243 6.09375,2.1875 1.27664,1.461704 1.66529,3.505403 1.15625,6.125 -0.21016,1.079026 -0.59456,2.075237 -1.09375,2.96875 -0.50008,0.893961 -1.13092,1.696341 -1.9375,2.4375 -0.96118,0.899786 -2.04338,1.555718 -3.21875,1.9375 -1.17447,0.382678 -2.64946,0.5625 -4.46875,0.5625 h -4.125 l -2.96875,14.4375 c 17.28876,-2.719124 29.90625,-11.14615 29.90625,-21.125 0,-11.841153 -17.76721,-21.506452 -40.03125,-22.03125 z"
       style="fill:#000000;fill-opacity:1;stroke:none"
       inkscape:connector-curvature="0" />
    <path
       id="path8417"
       d="m 575.25,73.25 -1.8125,9.25 h 2.9375 c 1.94027,0 3.36252,-0.36245 4.3125,-1.09375 0.94952,-0.731301 1.60501,-1.9771 1.9375,-3.6875 0.3186,-1.642289 0.17147,-2.793462 -0.4375,-3.46875 -0.60942,-0.675288 -1.82755,-1 -3.65625,-1 z"
       style="fill:#000000;fill-opacity:1;stroke:none"
       inkscape:connector-curvature="0" />
    <path
       id="path8360"
       d="M 612.8125,73.25 611,82.5 h 2.9375 c 1.94117,0 3.39422,-0.36245 4.34375,-1.09375 0.95042,-0.731301 1.57331,-1.9771 1.90625,-3.6875 0.31859,-1.642289 0.17147,-2.793462 -0.4375,-3.46875 -0.60942,-0.675288 -1.82755,-1 -3.65625,-1 z"
       style="fill:#000000;fill-opacity:1;stroke:none"
       inkscape:connector-curvature="0" />
  </g>
  <g
     id="g7551"
     transform="matrix(0.5987801,0,0,0.5987801,-0.37383921,-27.403306)">
    <path
       style="fill:none;stroke:#000000;stroke-width:1;stroke-miterlimit:4;stroke-dasharray:none;stroke-opacity:1"
       id="path3055"
       d="m 49.746564,61.156727 c -0.269932,-4.55e-4 -0.544814,6.05e-4 -0.836323,0.0079 l -2.871902,0.07101 -0.149907,4.071157 c -0.141999,3.8615 -0.192542,4.149972 -0.931,5.728023 -0.95582,2.042538 -2.51158,3.645816 -4.489319,4.615554 l -1.49907,0.733755 -9.089094,0.126238 c -10.168297,0.143118 -10.035021,0.119633 -12.079343,2.004019 -0.617533,0.569222 -1.391818,1.633226 -1.719984,2.359062 -0.578251,1.278966 -0.593296,1.549228 -0.670637,8.954967 -0.09005,8.62226 0.03377,9.534977 1.570078,11.329818 1.601037,1.87045 5.807025,3.61995 9.964867,4.14216 4.71425,0.59209 11.25783,-0.75152 14.225378,-2.91924 1.584445,-1.15739 2.424281,-2.489867 2.721995,-4.307857 0.273021,-1.667207 0.330459,-5.145146 0.09468,-5.759582 -0.134385,-0.350203 -0.981289,-0.406889 -6.87994,-0.410271 -3.699677,-0.002 -6.876707,-0.09594 -7.061405,-0.213026 -0.190734,-0.120916 -0.299806,-0.532134 -0.252475,-0.946781 l 0.08679,-0.725865 11.74008,-0.126238 c 13.038513,-0.140199 12.499689,-0.07189 14.099142,-1.893561 1.629582,-1.855993 3.10281,-5.809337 3.574098,-9.601934 C 59.780353,74.476241 58.68771,68.05909 56.989435,64.872804 55.493986,62.067058 53.7955,61.163616 49.746564,61.15669 Z M 37.754009,95.453855 c 1.747499,-0.03184 3.239065,1.843435 2.295942,3.913359 -0.165893,0.364103 -0.611466,0.819906 -0.994119,1.017786 -1.109344,0.57366 -2.130433,0.45382 -3.053368,-0.37082 -0.707894,-0.632501 -0.820543,-0.906244 -0.820543,-1.91723 0,-1.010984 0.112649,-1.284728 0.820543,-1.91723 0.557921,-0.498502 1.169045,-0.715251 1.751545,-0.725865 z"
       inkscape:connector-curvature="0" />
    <path
       style="fill:#000000"
       id="path3051"
       d="m 29.501237,46.379058 c -2.562107,0.02586 -5.123323,0.175299 -6.556456,0.433942 -2.784062,0.50245 -5.086499,1.455434 -5.933158,2.461629 -1.002507,1.191415 -1.238755,2.368686 -1.254484,6.154075 l -0.01578,3.534647 6.911499,0.126238 c 7.52556,0.137367 7.620453,0.159984 7.266541,1.570078 L 29.761603,61.290854 18.707939,61.519659 7.6621646,61.740575 6.2498835,62.403321 C 2.4234478,64.197751 0.64010694,68.346315 0.62442826,75.500452 0.60818406,82.913533 2.708396,87.930804 6.368231,89.228772 7.0350802,89.46527 8.4619721,89.602574 10.3526,89.615374 l 2.94291,0.02366 0.08679,-4.228953 0.08679,-4.228954 0.852103,-1.577968 c 0.997065,-1.838625 2.466884,-3.277616 4.36308,-4.276293 L 20.033431,74.616778 29.375,74.490539 c 10.35214,-0.139893 10.248954,-0.123578 12.181911,-1.869891 0.55418,-0.500668 1.28049,-1.504961 1.609528,-2.232823 0.581396,-1.2861 0.596129,-1.545402 0.670636,-9.104874 0.06319,-6.411795 0.01159,-8.014421 -0.307704,-9.112764 -0.808755,-2.782014 -3.666583,-4.883637 -7.463787,-5.491328 -1.435201,-0.229685 -4.002239,-0.32568 -6.564346,-0.299814 z m -8.102864,3.826572 c 0.483691,-0.01946 1.000868,0.08038 1.530628,0.299815 0.913204,0.378261 1.570079,1.491498 1.570079,2.658875 0,1.08862 -0.415001,1.812748 -1.388612,2.4064 -1.440894,0.878576 -2.871402,0.50903 -3.889691,-1.002008 -0.669166,-0.992973 -0.712387,-1.49051 -0.220915,-2.666766 0.441382,-1.056374 1.334391,-1.653496 2.398511,-1.696316 z"
       inkscape:connector-curvature="0" />
  </g>
  <g
     id="g7576"
     transform="matrix(0.5987801,0,0,0.5987801,-9.826883,-27.112121)">
    <path
       style="fill:none;fill-opacity:1;stroke:#000000;stroke-width:1;stroke-linecap:round;stroke-linejoin:round;stroke-miterlimit:4;stroke-dasharray:none;stroke-opacity:1"
       id="rect4060"
       d="m 297.36059,48.600671 -13.5299,13.529891 40.64115,40.641148 V 48.626403 c 0,-0.01499 -0.0125,-0.02573 -0.0274,-0.02573 h -27.0838 z"
       inkscape:connector-curvature="0" />
    <path
       style="fill:#000000;fill-opacity:1;stroke:#000000;stroke-width:0.179294;stroke-linecap:round;stroke-linejoin:round;stroke-miterlimit:4;stroke-dasharray:none;stroke-opacity:1"
       id="path4595"
       d="m 283.7869,62.086769 -13.74264,13.742637 v 27.083804 c 0,0.015 0.0125,0.0274 0.0275,0.0274 h 54.32888 c 0.015,0 0.0274,-0.0124 0.0274,-0.0274 v -0.18529 L 283.78689,62.086769 Z"
       inkscape:connector-curvature="0" />
    <path
       style="fill:none;stroke:#000000;stroke-width:1;stroke-linecap:butt;stroke-linejoin:miter;stroke-miterlimit:4;stroke-dasharray:none;stroke-opacity:1"
       id="path4604"
       d="m 297.50121,48.667728 13.5933,13.593298 13.2477,40.357504 -31.3721,-22.233107 31.6025,-31.6025 -13.47663,13.53824 z"
       inkscape:connector-curvature="0" />
    <path
       style="fill:none;stroke:#000000;stroke-width:1;stroke-linecap:butt;stroke-linejoin:bevel;stroke-miterlimit:4;stroke-dasharray:none;stroke-opacity:1"
       id="path4606"
       d="m 297.39028,48.571123 0.0341,32.758742 -16.74203,-16.050844 16.7079,-16.707898 z"
       inkscape:connector-curvature="0" />
  </g>
  <g
     id="g7555"
     transform="matrix(0.5987801,0,0,0.5987801,-2.9156468,-26.781264)">
    <path
       style="fill:none;fill-opacity:1;stroke:#000000;stroke-width:1;stroke-miterlimit:4;stroke-dasharray:none;stroke-opacity:1"
       id="path3652"
       d="M 88.643676,46.655998 C 76.16879,49.988935 66.98107,61.365831 66.98107,74.891395 c 0,8.851809 3.934001,16.780343 10.15038,22.139914 L 94.528972,58.969573 91.463719,50.767821 c -0.700001,-1.876524 -1.638111,-3.247348 -2.820043,-4.111823 z"
       inkscape:connector-curvature="0" />
    <path
       style="fill:none;fill-opacity:1;stroke:#000000;stroke-width:1;stroke-miterlimit:4;stroke-dasharray:none;stroke-opacity:1"
       id="path3648"
       d="m 83.345164,101.14313 c 3.88048,1.90435 8.246668,2.9733 12.860941,2.9733 5.058125,0 9.815145,-1.28569 13.964435,-3.54694 L 98.25983,69.159364 Z"
       inkscape:connector-curvature="0" />
    <path
       style="fill:#000000;fill-opacity:1;stroke:#000000;stroke-width:0.140126;stroke-opacity:1"
       id="path3637"
       d="m 116.51562,95.905921 c 5.49786,-5.31419 8.91552,-12.764244 8.91552,-21.014526 0,-15.636819 -12.28077,-28.407233 -27.723061,-29.190006 0.07678,0.180296 0.149405,0.364081 0.218949,0.551746 z"
       inkscape:connector-curvature="0" />
  </g>
  <g
     transform="matrix(0.16397983,0,0,0.16397983,343.8987,-19.058364)"
     id="layer1"
     inkscape:label="Layer 1">
    <path
       sodipodi:nodetypes="ccccccccc"
       d="m 204.46652,130.78039 h 52.36884 v 20.28516 h -28.49491 v 153.89813 h 28.49491 v 20.28516 H 204.46652 V 130.78039"
       style="font-style:normal;font-variant:normal;font-weight:bold;font-stretch:normal;font-size:211.959px;font-family:Helvetica;-inkscape-font-specification:'Helvetica Bold';fill:#000000;fill-opacity:1;stroke:none"
       id="path2821"
       inkscape:connector-curvature="0" />
    <path
       sodipodi:nodetypes="ccccc"
       d="M 280.22539,116.22383 H 304.0294 V 338.18305 H 280.22539 V 116.22383"
       style="font-style:normal;font-variant:normal;font-weight:bold;font-stretch:normal;font-size:211.959px;font-family:Helvetica;-inkscape-font-specification:'Helvetica Bold';fill:#000000;fill-opacity:1;stroke:none"
       id="path2823"
       inkscape:connector-curvature="0" />
    <path
       sodipodi:nodetypes="ccccccccc"
       d="m 378.54631,325.24884 h -52.36883 v -20.28516 h 28.4949 V 151.06555 h -28.4949 v -20.28516 h 52.36883 v 194.46845"
       style="font-style:normal;font-variant:normal;font-weight:bold;font-stretch:normal;font-size:211.959px;font-family:Helvetica;-inkscape-font-specification:'Helvetica Bold';fill:#000000;fill-opacity:1;stroke:none"
       id="path2825"
       inkscape:connector-curvature="0" />
  </g>
  <g
     id="g3437"
     transform="matrix(0.69254695,0,0,0.69254695,-8.0183795,-32.048415)">
    <path
       inkscape:connector-curvature="0"
       id="path3260"
       d="m 631.03929,98.07011 c -8.61114,-1.043206 -16.13409,-6.405055 -19.90587,-14.187541 -1.84728,-3.811586 -2.55491,-6.969868 -2.54456,-11.356973 0.006,-2.436195 0.0138,-2.521202 0.32356,-3.407092 1.98424,-5.674951 6.22967,-8.929609 11.64917,-8.930555 1.25183,-2.28e-4 2.54993,0.142441 2.70474,0.297246 0.0292,0.02924 -0.40126,0.529115 -0.95668,1.110824 -2.89327,3.030223 -4.40616,6.845411 -4.40162,11.099932 0.002,2.038338 0.20147,3.335352 0.77896,5.069584 1.88968,5.674795 6.53531,9.726825 12.49749,10.900604 1.41333,0.278242 4.39041,0.280578 5.77363,0.0045 1.21812,-0.243098 2.58911,-0.663812 3.6086,-1.107367 0.71416,-0.310711 0.77952,-0.319866 1.20701,-0.169039 0.50192,0.177089 2.34883,0.554126 3.65965,0.7471 2.02523,0.298147 5.69123,0.0909 8.26818,-0.467415 0.58601,-0.126964 1.09244,-0.203887 1.12538,-0.170939 0.11724,0.117232 -1.5113,2.077841 -2.74714,3.307313 -0.69066,0.687097 -1.77559,1.645917 -2.41096,2.130711 -5.33801,4.072974 -12.06322,5.924556 -18.62954,5.129076 z"
       style="fill:#000000" />
    <path
       inkscape:connector-curvature="0"
       id="path3258"
       d="m 631.88776,86.046833 c -0.48542,-0.08588 -1.23924,-0.264469 -1.67516,-0.396875 l -0.79257,-0.240736 v -1.290666 c 0,-1.613384 0.34955,-3.090417 1.33267,-5.631341 1.04393,-2.698057 2.20907,-5.27183 2.30583,-5.09353 0.046,0.08472 0.29941,0.920634 0.56318,1.857585 1.41057,5.010514 2.59108,7.815999 3.98993,9.482015 0.36325,0.432622 0.61669,0.813628 0.56322,0.846679 -0.0535,0.03305 -0.52478,0.166028 -1.04733,0.295503 -1.23958,0.307135 -3.96796,0.396366 -5.23977,0.171366 z"
       style="fill:#000000;stroke:#000000;stroke-width:0.7;stroke-miterlimit:4;stroke-dasharray:none" />
    <path
       inkscape:connector-curvature="0"
       id="path3256"
       d="m 645.96536,84.310457 -0.43334,-0.04499 0.61671,-0.702511 c 3.66093,-4.170205 4.98484,-9.577542 3.64723,-14.896618 -1.33406,-5.304921 -5.50628,-9.737536 -10.72662,-11.396069 -1.81644,-0.577096 -2.92063,-0.744026 -4.93616,-0.746244 -2.16537,-0.0024 -3.38027,0.191465 -5.3144,0.847967 l -1.33946,0.454652 -0.3073,-0.216737 c -1.36791,-0.964772 -4.56813,-1.836482 -6.73857,-1.835522 -1.97254,9.09e-4 -4.00766,0.471328 -5.77748,1.335573 -0.5934,0.289773 -1.12637,0.549445 -1.18437,0.577051 -0.24846,0.118247 1.11274,-1.502928 2.26328,-2.69555 3.98587,-4.131651 8.9483,-6.688019 14.70728,-7.576363 1.80281,-0.27809 5.46566,-0.27809 7.26846,0 9.44112,1.456326 17.12709,7.706578 20.38521,16.577298 1.60618,4.373055 2.00892,10.249976 0.91264,13.317254 -1.2246,3.426267 -3.63753,5.650923 -7.12622,6.570173 -1.72894,0.455565 -4.04989,0.624487 -5.91689,0.43064 z"
       style="fill:none;stroke:#000000;stroke-width:0.7;stroke-miterlimit:4;stroke-dasharray:none" />
    <path
       inkscape:connector-curvature="0"
       id="path3254"
       d="M 625.26896,82.927537 C 619.864,78.331386 619.0214,70.182939 623.3633,64.498643 c 0.58299,-0.763235 1.95689,-2.133659 2.55373,-2.547269 l 0.4228,-0.293002 0.60315,0.402778 c 0.82975,0.554093 1.71544,1.45483 2.31012,2.349356 0.64097,0.964149 1.93698,3.617529 2.49972,5.117779 l 0.43773,1.166956 -2.4013,4.720724 c -2.33044,4.58144 -3.13303,6.350038 -3.44275,7.586439 -0.0821,0.327932 -0.18063,0.596241 -0.21885,0.596241 -0.0382,0 -0.42463,-0.301998 -0.85869,-0.671108 z"
       style="fill:#000000;stroke:#000000;stroke-width:0.7;stroke-miterlimit:4;stroke-dasharray:none" />
    <path
       inkscape:connector-curvature="0"
       id="path3250"
       d="m 641.49689,83.384527 c -0.31738,-0.107445 -0.74951,-0.340459 -0.96028,-0.517811 -1.87282,-1.57588 -4.15371,-6.32459 -5.67616,-11.817526 -1.53412,-5.535065 -2.77817,-8.421573 -4.61326,-10.703947 -0.21345,-0.26547 -0.36729,-0.482672 -0.34186,-0.482672 0.0254,0 0.44198,-0.101218 0.92568,-0.224929 2.94839,-0.75407 6.22426,-0.426088 9.00326,0.901413 1.42846,0.68236 2.41068,1.358787 3.54281,2.439825 2.0497,1.9572 3.50127,4.660955 3.99739,7.445676 0.19457,1.092128 0.19502,3.446705 9e-4,4.542789 -0.56132,3.169033 -2.24995,6.057729 -4.77884,8.175029 l -0.52255,0.437507 -0.57706,-0.195354 z"
       style="fill:none;stroke:#000000;stroke-width:0.7;stroke-miterlimit:4;stroke-dasharray:none" />
  </g>
  <g
     id="g3425"
     transform="matrix(0.69254695,0,0,0.69254695,-11.313504,-30.185693)">
    <g
       transform="matrix(0.537136,0,0,0.537136,578.3679,14.301975)"
       id="g3053">
      <path
         style="fill:#000000"
         d="m 237.25,156.75735 -7.25,-3.85498 0.0216,-5.20118 c 0.0214,-5.16535 0.0601,-5.22872 5.6231,-9.20117 7.28181,-5.19986 17.65176,-15.38124 23.68749,-23.25676 5.11511,-6.67426 12.30301,-19.68798 15.18542,-27.49324 0.96478,-2.6125 2.13173,-4.75 2.59324,-4.75 0.4615,0 3.75583,1.335893 7.32074,2.968652 l 6.48164,2.968652 -0.55182,5.281348 c -0.62253,5.958108 -0.30741,5.458028 -25.52613,40.509148 -8.61561,11.97471 -16.71561,22.69747 -18,23.82836 l -2.33525,2.05615 -7.25,-3.85498 z m -61,-33.38339 c -4.80409,-2.73359 -6.25,-4.08468 -6.25,-5.84014 0,-1.25609 -0.26908,-3.62918 -0.59794,-5.27352 -0.53655,-2.68272 0.31064,-4.01192 8.25,-12.943957 23.01556,-25.893261 37.94307,-42.814044 38.91323,-44.109314 0.89643,-1.196839 2.02835,-0.936129 7.14109,1.644774 5.7491,2.902136 6.09653,3.284326 6.46114,7.107637 0.40319,4.227862 -0.0809,4.692501 -3.16766,3.040507 -1.53318,-0.820536 -3.18198,0.04868 -9.18426,4.841748 -11.94657,9.539846 -21.30464,20.582748 -28.31206,33.409355 -3.15236,5.77019 -3.64374,7.51364 -3.38214,12 0.28298,4.85278 -1.19655,9.79751 -2.90658,9.71411 -0.39315,-0.0192 -3.52732,-1.63521 -6.96482,-3.5912 z m 49.25,-6.30901 c -14.21946,-3.46171 -20.0899,-17.628797 -11.40408,-27.5214 5.84455,-6.656569 18.07071,-8.477365 27.2703,-4.061262 11.56786,5.552953 12.99973,20.834122 2.62582,28.023252 -5.72448,3.96706 -11.91946,5.1595 -18.49204,3.55941 z m 12.10577,-12.54228 c 5.14329,-3.37001 2.19142,-9.719667 -5.15966,-11.098737 -3.6171,-0.678572 -10.17728,1.711949 -11.06801,4.03317 -2.7534,7.175227 8.54947,12.096527 16.22767,7.065567 z"
         id="path3049"
         inkscape:connector-curvature="0"
         sodipodi:nodetypes="ccsssssscssscccssssssssssscssssssssss" />
      <path
         style="fill:none;stroke:#000000;stroke-width:1px;stroke-linecap:butt;stroke-linejoin:miter;stroke-opacity:1"
         d="m 222.67642,64.543889 55.93804,27.538727 -35.71429,52.065404 -63.46816,-33.77797 0.4303,8.821 60.24096,32.0568"
         id="path3051-7"
         inkscape:connector-curvature="0" />
    </g>
  </g>
  <g
     style="font-style:normal;font-weight:bold;font-size:10px;line-height:125%;font-family:Sans;-inkscape-font-specification:'DemonCubicBlockFont Bold';letter-spacing:0px;word-spacing:0px;fill:#000000;fill-opacity:1;stroke:none"
     id="text3208"
     transform="matrix(1.206977,0,0,1.206977,566.28778,-73.043931)">
    <g
       id="g4476"
       transform="matrix(2.2939945,0,0,2.2939945,75.594851,58.110079)">
      <path
         inkscape:connector-curvature="0"
         id="path3226"
         d="m -52.78125,4 c -0.909723,7.7e-6 -1.640233,0.1949925 -2.15625,0.625 -0.514843,0.429042 -0.75,1.0464149 -0.75,1.8125 0,0.6173338 0.156924,1.1184105 0.53125,1.5 v 0.03125 c 0.376854,0.380483 0.965779,0.619903 1.71875,0.78125 l 0.71875,0.15625 c 0.426059,0.093987 0.683047,0.2295773 0.78125,0.3125 0.110215,0.09105 0.187496,0.2058001 0.1875,0.375 -4e-6,0.1879277 -0.07815,0.3297708 -0.25,0.4375 -0.164902,0.103369 -0.450107,0.156251 -0.84375,0.15625 -0.382574,10e-7 -0.765598,-0.06785 -1.1875,-0.1875 -0.417277,-0.122358 -0.856575,-0.3201883 -1.3125,-0.5625 L -55.625,9.28125 v 0.34375 1.59375 0.125 l 0.125,0.0625 c 0.469917,0.174165 0.923904,0.315179 1.40625,0.40625 0.479956,0.09061 0.96455,0.125 1.4375,0.125 0.833,0 1.403289,-0.236316 1.90625,-0.53125 l -0.03125,0.1875 -0.0625,0.21875 h 0.25 1.8125 0.15625 l 0.03125,-0.15625 1.0625,-4.5 1.0625,4.5 0.03125,0.15625 h 0.15625 1.8125 0.15625 l 0.03125,-0.15625 1.0625,-4.5 1.0625,4.5 0.03125,0.15625 h 0.15625 1.625 0.1875 4.5 0.1875 V 11.625 9.78125 9.59375 h -0.1875 -3.125 V 4.3125 4.125 h -0.1875 -1.875 -0.1875 V 4.3125 7.15625 L -41.71875,4.3125 -41.75,4.15625 h -0.15625 -2.40625 -0.15625 L -44.5,4.3125 -45.375,8.15625 -46.21875,4.3125 -46.25,4.15625 h -0.15625 -2.46875 -0.15625 L -49.0625,4.3125 -49.9375,8.125 C -50.00817,8.0104993 -50.059919,7.8748307 -50.15625,7.78125 -50.540521,7.4079685 -51.136277,7.1671688 -51.96875,7 l -0.8125,-0.15625 c -0.366506,-0.075175 -0.584218,-0.1742546 -0.6875,-0.25 -0.109489,-0.084599 -0.156251,-0.1374856 -0.15625,-0.28125 -2e-6,-0.2104114 0.06586,-0.3182234 0.21875,-0.40625 0.162484,-0.093549 0.475964,-0.1874943 0.90625,-0.1875 0.312899,5.5e-6 0.689518,0.066996 1.0625,0.15625 0.365939,0.087582 0.701362,0.2307998 1.09375,0.40625 l 0.28125,0.125 V 6.09375 4.53125 4.375 l -0.125,-0.03125 c -0.464529,-0.1236426 -0.917372,-0.1909551 -1.34375,-0.25 C -51.962321,4.030756 -52.370242,4.000007 -52.78125,4 Z m 0,0.375 c 0.389766,6.8e-6 0.772209,0.033062 1.1875,0.09375 0.378571,0.052425 0.761387,0.1211951 1.15625,0.21875 v 1.125 C -50.745338,5.6870367 -51.070562,5.5728629 -51.375,5.5 -51.763746,5.4069738 -52.135823,5.3437565 -52.5,5.34375 c -0.468158,6.3e-6 -0.826554,0.033665 -1.09375,0.1875 -0.276814,0.1593808 -0.406252,0.4708392 -0.40625,0.78125 -3e-6,0.2468708 0.104271,0.4570046 0.28125,0.59375 0.18968,0.1391078 0.479782,0.2314353 0.875,0.3125 l 0.8125,0.15625 c 0.788609,0.1583606 1.325667,0.4279771 1.625,0.71875 0.156222,0.1517623 0.266991,0.35538 0.34375,0.59375 l 0.21875,0.6875 0.15625,-0.71875 0.96875,-4.125 h 2.15625 l 1,4.46875 v 0.0625 h 0.375 V 9 l 1.03125,-4.46875 h 2.09375 L -41.03125,8.75 v 0.0625 l 0.375,-0.0625 V 8.71875 4.5 h 1.5 v 5.28125 0.1875 h 0.1875 3.125 v 1.46875 h -4.125 -0.1875 -1.65625 L -43.03125,6.375 V 6.3125 h -0.375 V 6.375 l -1.21875,5.0625 h -1.5 L -47.34375,6.375 V 6.3125 h -0.375 V 6.375 l -1.21875,5.0625 h -1.4375 l 0.0625,-0.25 0.125,-0.53125 L -50.625,11 c -0.427865,0.341701 -1.09463,0.5625 -2.03125,0.5625 -0.451536,0 -0.92397,-0.03985 -1.375,-0.125 -0.407516,-0.07694 -0.804306,-0.224858 -1.21875,-0.375 v -1.125 c 0.371257,0.180802 0.738037,0.333195 1.09375,0.4375 0.45049,0.127754 0.887776,0.187501 1.3125,0.1875 0.426661,10e-7 0.759946,-0.04868 1.03125,-0.21875 0.264337,-0.165707 0.437494,-0.4301117 0.4375,-0.75 -6e-6,-0.2865247 -0.123237,-0.5311489 -0.3125,-0.6875 -0.194775,-0.1644679 -0.509401,-0.2736692 -0.96875,-0.375 L -53.375,8.375 C -54.080367,8.2238534 -54.543524,7.9593676 -54.84375,7.65625 -55.127087,7.3570105 -55.3125,6.9671603 -55.3125,6.4375 c 0,-0.6857261 0.202341,-1.1477792 0.625,-1.5 0.421481,-0.3512281 1.058155,-0.5624929 1.90625,-0.5625 z"
         style="color:#000000;font-style:normal;font-variant:normal;font-weight:normal;font-stretch:normal;font-size:medium;line-height:125%;font-family:DemonCubicBlockFont;-inkscape-font-specification:'DemonCubicBlockFont Bold';text-indent:0;text-align:start;text-decoration:none;text-decoration-line:none;letter-spacing:0;word-spacing:0;text-transform:none;writing-mode:lr-tb;direction:ltr;baseline-shift:baseline;text-anchor:start;display:inline;overflow:visible;visibility:visible;fill:#000000;fill-opacity:1;fill-rule:nonzero;stroke:none;stroke-width:0.4;marker:none;enable-background:accumulate" />
      <path
         sodipodi:nodetypes="cccc"
         inkscape:connector-curvature="0"
         id="path4464"
         d="m -41.055046,8.7339446 0.418577,1.5204094 -0.0057,-1.6866938 z"
         style="fill:#000000;stroke:#000000;stroke-width:0;stroke-linecap:butt;stroke-linejoin:miter;stroke-miterlimit:4;stroke-dasharray:none;stroke-opacity:1" />
    </g>
  </g>
  <path
     d="m 652.79016,2.9715653 a 5.4311416,5.4311416 0 0 0 -2.00061,-0.567417 0.92611483,0.92611483 0 0 0 -0.52174,0.122289 l -2.81096,1.3533058 a 18.057607,18.057607 0 0 0 -28.1878,13.5656279 l -2.93487,1.40547 v 0 l -0.38643,0.192395 -0.01,0.01142 a 4.8914514,4.8914514 0 0 0 -2.11636,4.439814 13.123763,13.123763 0 0 0 1.87015,6.505619 c 1.97615,3.424017 5.05452,5.771916 7.66328,5.771916 v 0 a 3.7908748,3.7908748 0 0 0 1.90929,-0.54132 v -0.02442 l 2.38378,-1.15928 a 18.049456,18.049456 0 0 0 27.6693,-14.406954 l 2.14246,-1.216337 0.0327,-0.02285 a 4.7561213,4.7561213 0 0 0 1.42667,-1.73157 l 0.0376,-0.104348 a 7.1040179,7.1040179 0 0 0 0.51849,-2.832152 14.615656,14.615656 0 0 0 -2.14898,-6.6002012 12.753644,12.753644 0 0 0 -4.536,-4.1609929 m -9.3068,6.391496 c 1.58972,-0.8315476 2.46692,-1.9125573 2.47181,-3.0457407 v 0 c 0,1.1413387 -0.87882,2.2044165 -2.47344,3.0375856 M 626.29645,33.093147 c -0.0293,0.07168 -0.0293,0.07168 -0.0456,0.105979 a 3.2609676,3.2609676 0 0 1 -1.29134,1.457654 h -0.0131 a 3.1549862,3.1549862 0 0 1 -1.59461,0.405993 c -2.39518,0 -5.26156,-2.17833 -7.13337,-5.421359 a 12.367219,12.367219 0 0 1 -1.79352,-6.146928 4.3387173,4.3387173 0 0 1 1.79352,-3.913163 l 0.38154,-0.184239 0.0685,-0.02442 a 0.53642917,0.53642917 0 0 1 0.0717,-0.02608 0.56251691,0.56251691 0 0 1 0.0684,-0.02285 l 0.0767,-0.02442 0.0652,-0.01797 0.0816,-0.02119 0.0652,-0.01309 0.0864,-0.01797 0.0652,-0.01142 0.0881,-0.01309 h 0.0717 l 0.0897,-0.0098 h 0.72557 l 0.10271,0.0098 h 0.0603 l 0.11088,0.01631 h 0.0521 l 0.12393,0.02119 0.0587,0.01309 0.11577,0.02608 0.057,0.01309 0.12064,0.03096 c 0.12229,0.02764 0.83807,0.29513 0.83807,0.29513 a 11.79329,11.79329 0 0 1 5.10994,4.956658 c 0.20708,0.357081 0.39621,0.719045 0.5674,1.08265 0.12881,0.272287 0.24785,0.542952 0.35708,0.815238 0.0733,0.182619 0.14186,0.363596 0.20545,0.546214 0.11901,0.339139 0.22174,0.678279 0.30816,1.014166 0.0327,0.12391 0.0636,0.247831 0.0913,0.371741 a 0.44675256,0.44675256 0 0 0 0.0212,0.08966 8.1719847,8.1719847 0 0 1 -0.01,3.978384 c 0,0 -0.18751,0.525011 -0.21848,0.598388 m 3.70934,-0.867421 -2.31854,1.116883 -0.63099,0.303266 -0.48916,0.23317 c 0.0148,-0.02442 0.0293,-0.04893 0.0424,-0.07335 l 0.0293,-0.05049 c 0.0489,-0.08644 0.0962,-0.177716 0.14184,-0.270655 h 0.0131 l 0.0131,-0.02608 c 0.0457,-0.09945 0.0897,-0.198909 0.13045,-0.303257 0.0261,-0.06524 0.0488,-0.133706 0.0733,-0.20219 l 0.0147,-0.04893 a 11.172076,11.172076 0 0 0 -1.52776,-8.592651 12.179715,12.179715 0 0 0 -5.6431,-5.317001 l -0.23806,-0.08809 -0.22663,-0.07335 -0.14348,-0.04073 -0.1011,-0.02773 -0.0815,-0.02119 -0.16304,-0.0375 -0.0945,-0.01954 -0.16305,-0.0293 -0.16306,-0.02442 -0.10598,-0.01475 h -0.0571 l 0.95057,-0.456536 0.61795,-0.298382 1.59951,-0.767957 a 3.3000993,3.3000993 0 0 1 1.21634,-0.221744 c 2.39682,0 5.26809,2.181582 7.14152,5.427883 a 12.489506,12.489506 0 0 1 1.79354,6.000173 4.5653546,4.5653546 0 0 1 -1.6044,3.950667 m 3.9425,-21.838704 a 11.35632,11.35632 0 0 1 -2.9119,-1.007634 3.0441132,3.0441132 0 0 1 -0.28369,-0.1630456 6.7795516,6.7795516 0 0 1 -0.76307,-0.5038157 3.1158545,3.1158545 0 0 1 -1.42667,-2.3951801 c 0,-1.1413386 0.87883,-2.2207173 2.47343,-3.0538964 a 13.754761,13.754761 0 0 1 6.22357,-1.3418884 13.754761,13.754761 0 0 1 6.22356,1.3418884 6.3360599,6.3360599 0 0 1 1.56037,1.1103586 3.8039187,3.8039187 0 0 1 0.40109,0.4712148 l 0.30164,0.5282721 v 0.01631 c 0.0327,0.071786 0.0603,0.1434828 0.0848,0.2152292 v 0 c 0.0229,0.070125 0.0424,0.141842 0.0587,0.2135883 v 0.0293 a 0.50544998,0.50544998 0 0 0 0.0148,0.081552 c 0,0.02764 0.0131,0.073348 0.018,0.1108621 a 0.66849837,0.66849837 0 0 0 -0.0163,-0.1125029 0.89024418,0.89024418 0 0 0 0.0163,0.1125029 v 0.042388 a 2.0201694,2.0201694 0 0 1 0.0115,0.2217436 c 0,1.1413385 -0.88209,2.2076688 -2.47507,3.0392166 a 13.774328,13.774328 0 0 1 -6.22519,1.3174325 v 0 l -0.031,0.02286 h -0.66198 a 2.6348619,2.6348619 0 0 1 -0.34078,-0.01475 h -0.18261 c -0.16304,-0.0098 -0.31305,-0.02285 -0.46795,-0.03917 h -0.0343 c -0.1712,-0.01797 -0.34077,-0.03917 -0.51033,-0.06192 z m 8.03666,15.520574 a 13.350401,13.350401 0 0 1 1.45113,-3.608264 c 1.79353,-3.115847 4.55232,-5.217547 6.84803,-5.217547 a 3.0049817,3.0049817 0 0 1 1.53265,0.392944 3.2740115,3.2740115 0 0 1 1.42016,1.821259 5.0447169,5.0447169 0 0 1 0.16305,0.596756 l 0.10273,0.629358 a 6.9996667,6.9996667 0 0 1 0.0456,0.715793 11.882966,11.882966 0 0 1 -1.71691,5.907233 c -1.79353,3.117488 -4.55395,5.217556 -6.84802,5.217556 a 3.019656,3.019656 0 0 1 -1.53267,-0.391323 3.1256375,3.1256375 0 0 1 -1.25547,-1.413625 4.6110082,4.6110082 0 0 1 -0.31141,-0.909809 6.5855238,6.5855238 0 0 1 -0.16306,-1.439721 8.9937489,8.9937489 0 0 1 0.1174,-1.537545 z m 16.40105,-9.548108 -0.0375,0.104347 a 4.1414289,4.1414289 0 0 1 -1.20656,1.441352 l -1.80494,1.023943 -0.0359,0.02119 V 18.787347 A 18.080435,18.080435 0 0 0 648.03563,4.2939789 h 0.0148 l 2.58105,-1.2424339 v 0 a 0.61795338,0.61795338 0 0 1 0.18099,-0.021193 4.6925323,4.6925323 0 0 1 1.7544,0.5168645 12.054167,12.054167 0 0 1 4.29469,3.9637052 14.348257,14.348257 0 0 1 2.00713,6.2219263 6.5121522,6.5121522 0 0 1 -0.48915,2.634854"
     style="fill:#000000;stroke-width:1.63048"
     id="path1" />
</svg>
