<?xml version="1.0" encoding="UTF-8" standalone="no"?>
<!-- Created with Inkscape (http://www.inkscape.org/) -->

<svg
   xmlns:dc="http://purl.org/dc/elements/1.1/"
   xmlns:cc="http://creativecommons.org/ns#"
   xmlns:rdf="http://www.w3.org/1999/02/22-rdf-syntax-ns#"
   xmlns:svg="http://www.w3.org/2000/svg"
   xmlns="http://www.w3.org/2000/svg"
   xmlns:sodipodi="http://sodipodi.sourceforge.net/DTD/sodipodi-0.dtd"
   xmlns:inkscape="http://www.inkscape.org/namespaces/inkscape"
   id="svg5871"
   version="1.1"
   inkscape:version="0.48.4 r9939"
   width="659.37567"
   height="72.405312"
   sodipodi:docname="langnostic.svg"
   inkscape:export-filename="/home/inaimathi/quicklisp/local-projects/langnostic/static/img/langnostic.png"
   inkscape:export-xdpi="149.82518"
   inkscape:export-ydpi="149.82518">
  <metadata
     id="metadata5877">
    <rdf:RDF>
      <cc:Work
         rdf:about="">
        <dc:format>image/svg+xml</dc:format>
        <dc:type
           rdf:resource="http://purl.org/dc/dcmitype/StillImage" />
        <dc:title />
      </cc:Work>
    </rdf:RDF>
  </metadata>
  <defs
     id="defs5875">
    <inkscape:perspective
       sodipodi:type="inkscape:persp3d"
       inkscape:vp_x="0 : 0.5 : 1"
       inkscape:vp_y="0 : 1000 : 0"
       inkscape:vp_z="1 : 0.5 : 1"
       inkscape:persp3d-origin="0.5 : 0.33333333 : 1"
       id="perspective5879" />
    <inkscape:perspective
       id="perspective2976"
       inkscape:persp3d-origin="0.5 : 0.33333333 : 1"
       inkscape:vp_z="1 : 0.5 : 1"
       inkscape:vp_y="0 : 1000 : 0"
       inkscape:vp_x="0 : 0.5 : 1"
       sodipodi:type="inkscape:persp3d" />
    <inkscape:perspective
       id="perspective3071"
       inkscape:persp3d-origin="0.5 : 0.33333333 : 1"
       inkscape:vp_z="1 : 0.5 : 1"
       inkscape:vp_y="0 : 1000 : 0"
       inkscape:vp_x="0 : 0.5 : 1"
       sodipodi:type="inkscape:persp3d" />
    <inkscape:perspective
       id="perspective6645"
       inkscape:persp3d-origin="178.5 : 75.666667 : 1"
       inkscape:vp_z="357 : 113.5 : 1"
       inkscape:vp_y="0 : 1000 : 0"
       inkscape:vp_x="0 : 113.5 : 1"
       sodipodi:type="inkscape:persp3d" />
    <inkscape:perspective
       id="perspective6713"
       inkscape:persp3d-origin="301 : 141.66667 : 1"
       inkscape:vp_z="602 : 212.5 : 1"
       inkscape:vp_y="0 : 1000 : 0"
       inkscape:vp_x="0 : 212.5 : 1"
       sodipodi:type="inkscape:persp3d" />
    <inkscape:perspective
       id="perspective6771"
       inkscape:persp3d-origin="104.84355 : 84.275467 : 1"
       inkscape:vp_z="209.6871 : 126.4132 : 1"
       inkscape:vp_y="0 : 1000 : 0"
       inkscape:vp_x="0 : 126.4132 : 1"
       sodipodi:type="inkscape:persp3d" />
    <clipPath
       id="clipPath22">
      <path
         id="path24"
         d="m 2976.38,3717.38 c 516.62,0 935.43,220.31 935.43,492.07 0,271.76 -418.81,492.07 -935.43,492.07 -516.62,0 -935.43,-220.31 -935.43,-492.07 0,-271.76 418.81,-492.07 935.43,-492.07 z"
         inkscape:connector-curvature="0" />
    </clipPath>
    <inkscape:perspective
       id="perspective7198"
       inkscape:persp3d-origin="116.92875 : 41.005834 : 1"
       inkscape:vp_z="233.8575 : 61.508751 : 1"
       inkscape:vp_y="0 : 1000 : 0"
       inkscape:vp_x="0 : 61.508751 : 1"
       sodipodi:type="inkscape:persp3d" />
    <inkscape:perspective
       id="perspective7406"
       inkscape:persp3d-origin="117.41838 : 78.648727 : 1"
       inkscape:vp_z="234.83676 : 117.97309 : 1"
       inkscape:vp_y="0 : 1000 : 0"
       inkscape:vp_x="0 : 117.97309 : 1"
       sodipodi:type="inkscape:persp3d" />
    <inkscape:perspective
       id="perspective7464"
       inkscape:persp3d-origin="498.66422 : 331.47864 : 1"
       inkscape:vp_z="997.32843 : 497.21796 : 1"
       inkscape:vp_y="0 : 1000 : 0"
       inkscape:vp_x="0 : 497.21796 : 1"
       sodipodi:type="inkscape:persp3d" />
    <inkscape:perspective
       id="perspective7521"
       inkscape:persp3d-origin="210.0625 : 139.95833 : 1"
       inkscape:vp_z="420.125 : 209.9375 : 1"
       inkscape:vp_y="0 : 1000 : 0"
       inkscape:vp_x="0 : 209.9375 : 1"
       sodipodi:type="inkscape:persp3d" />
    <inkscape:perspective
       id="perspective10"
       inkscape:persp3d-origin="372.04724 : 350.78739 : 1"
       inkscape:vp_z="744.09448 : 526.18109 : 1"
       inkscape:vp_y="0 : 1000 : 0"
       inkscape:vp_x="0 : 526.18109 : 1"
       sodipodi:type="inkscape:persp3d" />
  </defs>
  <sodipodi:namedview
     pagecolor="#ffffff"
     bordercolor="#666666"
     borderopacity="1"
     objecttolerance="10"
     gridtolerance="10"
     guidetolerance="10"
     inkscape:pageopacity="0"
     inkscape:pageshadow="2"
     inkscape:window-width="1364"
     inkscape:window-height="766"
     id="namedview5873"
     showgrid="false"
     showguides="false"
     inkscape:guide-bbox="true"
     inkscape:zoom="1.783379"
     inkscape:cx="377.40616"
     inkscape:cy="65.914168"
     inkscape:window-x="0"
     inkscape:window-y="0"
     inkscape:window-maximized="0"
     inkscape:current-layer="svg5871"
     fit-margin-top="0"
     fit-margin-left="0"
     fit-margin-right="0"
     fit-margin-bottom="0">
    <sodipodi:guide
       orientation="1,0"
       position="498.64234,-21.827812"
       id="guide5943" />
    <sodipodi:guide
       orientation="1,0"
       position="635.2243,-109.48517"
       id="guide6455" />
  </sodipodi:namedview>
  <path
     style="fill:#000000"
     d="m 635.14483,5.3849158 c -2.42718,-0.0052 -4.96612,0.100977 -6.39512,0.331222 -1.05461,0.169912 -2.55969,0.402466 -3.36318,0.509572 -2.00396,0.267128 -6.30152,1.678857 -7.05757,2.318551 -0.15857,0.134167 -0.35425,0.229307 -0.45861,0.229307 -0.10441,0 -0.76774,0.381721 -1.45228,0.840793 -1.03154,0.6917092 -1.29247,0.8173412 -1.60515,0.6624442 -1.17902,-0.5840032 -4.04792,-0.7736442 -5.4779,-0.3567002 -1.25746,0.3666132 -2.5044,1.4051432 -3.10839,2.5988162 -0.46725,0.923011 -0.5432,1.272374 -0.53505,2.573336 0.008,1.288951 0.0828,1.615009 0.53505,2.445945 0.56616,1.040096 1.56488,1.950395 2.72621,2.496902 0.84948,0.399731 0.82539,0.195208 0.38218,3.719873 -0.65413,5.202653 -0.57948,8.145873 0.38218,15.924117 l 0.051,0.484093 0.86627,0 -0.0254,-0.203829 c -0.54398,-3.269283 -1.03783,-9.225793 -0.91723,-11.185099 0.15702,-2.550745 0.82782,-7.77476 1.09558,-8.586284 0.13256,-0.401753 0.34063,-1.10222 0.4586,-1.554194 0.19006,-0.728688 0.34207,-1.130201 1.09558,-2.777165 0.5417,-1.183914 0.89709,-1.722448 2.24213,-3.43961 0.77031,-0.983495 2.55833,-2.5478582 2.93003,-2.5478582 0.12785,0 0.44839,-0.144643 0.68792,-0.331222 0.23946,-0.186578 0.74483,-0.450323 1.14654,-0.586007 0.40178,-0.135686 0.83118,-0.302001 0.94271,-0.382179 0.45641,-0.32803 3.5306,-1.238642 4.81545,-1.426801 0.75727,-0.110906 2.15422,-0.342573 3.10839,-0.509572 1.32481,-0.231874 2.9101,-0.302726 6.67538,-0.305743 4.58876,-0.0038 5.05231,0.02407 6.75183,0.433137 1.71812,0.413538 4.23116,1.269245 4.84093,1.656107 0.15067,0.09558 0.52979,0.307373 0.86627,0.458614 1.05706,0.475097 3.21985,2.3356352 3.97466,3.4396102 2.61917,3.830773 3.79118,7.125662 4.56068,12.815729 0.2026,1.498385 0.33427,4.289216 0.40765,8.815591 l 0.10188,6.216775 0.66245,0 0,-5.681725 c 0,-6.651162 -0.35247,-11.256753 -1.07011,-13.580087 -0.50321,-1.629273 -0.50549,-1.779644 0.28023,-2.063765 0.82273,-0.29746 2.24008,-1.663139 2.72625,-2.649772 0.5518,-1.119853 0.49766,-3.553171 -0.10188,-4.739018 -0.82591,-1.6337102 -1.96474,-2.4639452 -3.97465,-2.8790802 -0.98442,-0.20333 -1.33994,-0.193579 -2.6243,0.07643 -0.81572,0.171477 -1.7184,0.439124 -2.01281,0.586008 -0.36485,0.182016 -0.6189,0.201716 -0.76436,0.07643 -0.43945,-0.37835 -2.20461,-1.426801 -2.39498,-1.426801 -0.10885,0 -0.31239,-0.108536 -0.43313,-0.229307 -0.44615,-0.446144 -2.63058,-1.173198 -5.78365,-1.910894 -1.00613,-0.235403 -3.33097,-0.351556 -5.75815,-0.356701 z m 6.11486,3.821788 c -0.56942,0.04213 -1.19419,0.205196 -2.03828,0.484093 -1.61204,0.5326602 -2.56074,1.2352342 -3.8218,2.8026452 -0.57634,0.716347 -1.35036,2.910742 -1.35036,3.847267 0,0.317348 0.12536,1.082965 0.28027,1.681586 0.73402,2.836495 3.21503,5.107703 5.96198,5.503375 3.70333,0.533419 7.08794,-1.225941 8.25507,-4.280403 1.06407,-2.784674 0.32352,-6.165921 -1.73255,-7.898361 -1.54249,-1.299698 -1.80442,-1.4347862 -3.7963,-1.9363732 -0.66432,-0.167278 -1.18861,-0.245965 -1.75803,-0.203829 z m 12.48451,0.127393 c 1.49978,0 2.63746,0.446297 3.567,1.3758442 0.89938,0.899376 1.23113,1.774646 1.22297,3.312216 -0.008,1.669724 -0.79583,2.999852 -2.29307,3.923702 -0.30134,0.185922 -0.6476,0.330839 -0.76435,0.331222 -0.19666,6.32e-4 -1.14659,-2.220167 -1.14659,-2.675251 0,-0.11112 0.11333,-0.290301 0.2548,-0.407658 0.14145,-0.117355 0.39697,-0.49603 0.56052,-0.840793 0.27247,-0.57373 0.26489,-0.685308 0,-1.197494 -0.37398,-0.723302 -1.01653,-0.957589 -1.88537,-0.7134 -0.63839,0.179422 -0.69841,0.149147 -1.22297,-0.509572 -0.30045,-0.37728 -0.76139,-0.932861 -1.04463,-1.222972 -0.28324,-0.290112 -0.46371,-0.564948 -0.38218,-0.636965 0.35637,-0.3148322 2.14857,-0.7388792 3.13387,-0.7388792 z m -12.10233,0.458615 c 1.60748,-0.0017 1.95301,0.05282 2.8536,0.4840932 2.94867,1.412066 4.50254,4.320002 4.00014,7.439747 -0.30061,1.866288 -1.02644,3.074733 -2.57333,4.229446 -0.74112,0.553203 -1.03085,0.66358 -2.36952,0.993664 -3.49492,0.861769 -6.68794,-0.572734 -8.30601,-3.719873 -0.48194,-0.937502 -0.55996,-1.217145 -0.56053,-2.777166 -4.9e-4,-1.469608 0.0806,-1.850817 0.45861,-2.624294 0.67052,-1.371928 2.20425,-2.880822 3.54153,-3.490567 1.00251,-0.4570922 1.3416,-0.5333382 2.95551,-0.5350502 z M 623.0425,10.047498 c -1.74382,0.09494 -3.42122,0.802707 -4.66258,2.038286 -0.56126,0.558635 -1.15502,1.164901 -1.2994,1.350365 -0.50656,0.650639 -1.09486,2.716948 -1.09559,3.821789 -0.002,1.836086 1.02938,4.113686 2.31856,5.121196 0.26229,0.204987 0.66701,0.563849 0.91722,0.789836 0.2503,0.225986 0.52466,0.407658 0.61149,0.407658 0.0869,0 0.51695,0.161137 0.94271,0.3567 0.42576,0.195562 1.02362,0.386386 1.32489,0.433135 0.30133,0.04675 1.13153,0.06565 1.85993,0.02547 1.04426,-0.05759 1.60609,-0.208612 2.64977,-0.713401 1.45004,-0.70131 1.94869,-1.090761 2.8536,-2.242116 0.73004,-0.928846 1.50324,-3.046691 1.50324,-4.12753 0,-0.902406 -0.44149,-2.431049 -0.96819,-3.465088 -0.43431,-0.852742 -1.72988,-2.318552 -2.06376,-2.318552 -0.13282,0 -0.32775,-0.121914 -0.40766,-0.254785 -0.0803,-0.132873 -0.69684,-0.44452 -1.37584,-0.713401 -1.00397,-0.397554 -2.0621,-0.5665322 -3.10839,-0.509571 z m -11.10867,0.433136 c 0.34528,0.01548 0.67431,0.06713 0.99367,0.127393 1.7323,0.32686 1.7703,0.374781 0.91723,1.401322 -0.40383,0.485914 -0.84548,1.065873 -0.96818,1.299407 -0.19503,0.371072 -0.29767,0.410422 -0.91723,0.305744 -0.95604,-0.161522 -1.41478,0.02414 -1.75802,0.687922 -0.36828,0.712249 -0.20909,1.5848 0.38217,2.140201 0.41199,0.387041 0.44076,0.45899 0.20383,0.917229 -0.14105,0.272728 -0.36644,0.883222 -0.4841,1.350365 -0.11764,0.467145 -0.294,0.851735 -0.40765,0.840794 -0.53672,-0.05171 -1.61204,-0.780458 -2.29307,-1.554194 -1.08886,-1.237002 -1.3681,-2.591824 -0.91723,-4.382317 0.24133,-0.958362 1.42069,-2.317516 2.34403,-2.700731 0.76307,-0.316694 1.86876,-0.479553 2.90455,-0.433135 z m 11.51633,0.101917 c 1.62728,-0.0055 2.68075,0.244963 3.61796,0.866272 2.05826,1.364464 3.14789,3.109373 3.28674,5.274067 0.18874,2.940706 -1.18963,5.261266 -3.92371,6.598955 -0.75987,0.371755 -1.29594,0.507256 -2.54786,0.560528 -2.46126,0.104736 -3.95712,-0.453529 -5.55433,-2.063765 -1.13891,-1.148276 -1.65969,-2.341495 -1.75802,-3.974659 -0.0851,-1.415266 0.21484,-3.388653 0.50958,-3.388653 0.0823,0 0.19444,-0.217572 0.25478,-0.458615 0.13175,-0.524815 1.61392,-2.033247 2.54786,-2.598815 0.95253,-0.576859 1.98122,-0.810016 3.567,-0.815315 z m 14.3954,4.051096 c -0.77903,0 -1.09281,0.101885 -1.5542,0.484093 -0.6873,0.569425 -1.02606,1.492373 -0.86626,2.344029 0.13224,0.70484 0.9948,1.665799 1.60514,1.783501 0.72947,0.140671 0.89444,0.136501 1.60516,-0.07643 0.47402,-0.142025 0.86803,-0.441773 1.19749,-0.917229 0.41133,-0.593746 0.46437,-0.824725 0.38218,-1.554194 -0.0779,-0.690716 -0.21472,-0.997441 -0.73888,-1.477758 -0.56836,-0.520833 -0.7867,-0.586007 -1.63063,-0.586007 z m -18.49745,0.611486 c -1.4238,0.122929 -2.63286,1.486651 -2.08925,3.133866 0.11292,0.34199 0.46204,0.815718 0.76436,1.0701 0.44345,0.373161 0.73782,0.484093 1.5542,0.484093 0.93719,0 1.05501,-0.06132 1.73253,-0.738878 0.70534,-0.705129 0.74072,-0.758343 0.66245,-1.707065 -0.0688,-0.82951 -0.17508,-1.085826 -0.68792,-1.554194 -0.59111,-0.53989 -1.2892,-0.7438 -1.93637,-0.687922 z m 19.72042,1.783501 c 0.38669,0.0041 0.74793,0.503364 0.53505,0.840793 -0.26604,0.42185 -0.49241,0.470394 -0.89175,0.17835 -0.38278,-0.279909 -0.2662,-0.813297 0.20383,-0.993665 0.0546,-0.02091 0.0977,-0.02606 0.15287,-0.02547 z m -18.24267,0.7134 c 0.34969,0 0.66298,0.456533 0.53505,0.789836 -0.0627,0.163388 -0.30545,0.305743 -0.53505,0.305743 -0.22959,0 -0.47226,-0.142355 -0.53504,-0.305743 -0.12785,-0.333303 0.18536,-0.789836 0.53504,-0.789836 z m 12.33164,3.668917 c -0.85941,0.0013 -1.86258,0.161498 -2.29308,0.382179 -0.69863,0.358173 -1.37583,1.128073 -1.37583,1.554193 0,0.301304 -0.21448,0.558464 -0.78984,0.91723 -1.55204,0.967823 -2.07147,2.163036 -1.47776,3.41413 0.37039,0.780617 1.05591,1.197493 1.98733,1.197493 l 0.66244,0 -0.12739,0.866273 c -0.3214,1.88164 0.048,3.556855 0.8408,3.77083 0.7699,0.207798 1.30911,0.08452 1.85993,-0.407657 l 0.586,-0.535051 0.38219,0.458615 c 0.32547,0.378467 0.56309,0.469752 1.2994,0.458615 0.74936,-0.01133 0.96534,-0.100154 1.32489,-0.535051 0.39926,-0.482383 0.42763,-0.635231 0.3567,-2.293073 l -0.0764,-1.783501 0.76435,0 c 0.66367,0 0.84756,-0.08979 1.35037,-0.662442 0.51919,-0.591117 0.58947,-0.765505 0.50957,-1.477759 -0.11781,-1.044737 -0.86228,-1.980579 -2.08924,-2.598816 -0.79885,-0.402508 -0.96003,-0.553769 -0.9682,-0.993665 -0.0139,-0.74879 -0.9063,-1.527117 -1.93637,-1.681586 -0.2311,-0.03465 -0.50336,-0.05138 -0.78983,-0.05096 z m 2.44595,2.700729 0.81531,0.305744 c 0.45576,0.172175 1.10043,0.600054 1.4268,0.942708 0.49767,0.522403 0.58601,0.761311 0.58601,1.477757 -0.003,1.059432 -0.12899,1.251694 -0.91724,1.477759 -0.3438,0.0986 -0.71421,0.189364 -0.81531,0.17835 -0.7491,-0.08154 -1.85182,-0.395621 -2.64977,-0.738879 l -0.9427,-0.407658 -1.22298,0.407658 c -1.6303,0.534477 -3.18845,0.693863 -3.77083,0.382178 -0.49881,-0.266953 -0.8275,-1.155495 -0.68792,-1.885415 0.10472,-0.547646 1.31111,-1.702997 1.93638,-1.859936 0.24499,-0.06148 0.79949,0.05476 1.32488,0.280264 1.56516,0.6718 2.404,0.665525 3.74536,0 l 1.17201,-0.56053 z m -2.72621,3.872746 c 0.0278,0.02937 0.004,1.000132 -0.051,2.140201 -0.0902,1.87373 -0.13906,2.126364 -0.53505,2.52238 -0.49506,0.495035 -1.2734,0.546212 -1.80898,0.152872 -0.30477,-0.223638 -0.34509,-0.470859 -0.33122,-1.783501 0.0254,-2.376549 0.0355,-2.421284 1.45228,-2.777166 0.66659,-0.167434 1.2462,-0.284154 1.27393,-0.254786 z m 0.78983,0.229308 c 0.10562,-0.03391 0.23543,-0.01235 0.40766,0.02547 0.6949,0.152627 1.46051,0.53229 1.65611,0.840793 0.27052,0.426622 0.18703,3.378147 -0.10187,3.617959 -0.33062,0.274431 -1.42012,0.441576 -1.68159,0.254786 -0.4728,-0.337872 -0.67304,-1.092732 -0.66244,-2.547858 0.0114,-1.544482 0.0654,-2.089426 0.38217,-2.191159 z"
     id="path4499"
     inkscape:connector-curvature="0" />
  <g
     id="g6120"
     transform="translate(-0.62434221,-46.358297)">
    <g
       transform="translate(0,-6.8280136)"
       id="g6100">
      <path
         id="path5892"
         style="font-size:40px;font-style:normal;font-variant:normal;font-weight:bold;font-stretch:normal;fill:#000000;fill-opacity:1;stroke:none;font-family:DejaVu Sans;-inkscape-font-specification:DejaVu Sans Bold"
         d="m 314.61826,92.800478 5.80116,0 0,25.213982 -5.80116,0 0,-25.213982"
         inkscape:connector-curvature="0" />
      <path
         id="path5894"
         style="font-size:40px;font-style:normal;font-variant:normal;font-weight:bold;font-stretch:normal;fill:#000000;fill-opacity:1;stroke:none;font-family:DejaVu Sans;-inkscape-font-specification:DejaVu Sans Bold"
         d="m 334.16072,109.84747 c -1.20994,0 -2.12279,0.20526 -2.73855,0.61576 -0.60496,0.41052 -0.90744,1.01548 -0.90744,1.81489 0,0.7346 0.24306,1.31256 0.7292,1.73387 0.49693,0.41051 1.18291,0.61576 2.05795,0.61576 1.09109,0 2.00933,-0.3889 2.75474,-1.16671 0.74539,-0.7886 1.11809,-1.77167 1.11811,-2.9492 l 0,-0.66437 -3.01401,0 m 8.86378,-2.18759 0,10.35458 -5.84977,0 0,-2.68992 c -0.77783,1.1019 -1.65286,1.90671 -2.62511,2.41445 -0.97227,0.49694 -2.15519,0.7454 -3.54876,0.7454 -1.87971,0 -3.40832,-0.54554 -4.58583,-1.63664 -1.16671,-1.10189 -1.75007,-2.52788 -1.75007,-4.27795 0,-2.12816 0.7292,-3.68918 2.18759,-4.68306 1.46919,-0.99385 3.7702,-1.49079 6.90305,-1.49081 l 3.41913,0 0,-0.45371 c -2e-5,-0.91824 -0.36192,-1.58802 -1.0857,-2.00935 -0.72381,-0.4321 -1.8527,-0.64816 -3.38671,-0.64817 -1.24234,1e-5 -2.39825,0.12425 -3.46773,0.3727 -1.06949,0.24848 -2.06336,0.62118 -2.9816,1.1181 l 0,-4.42379 c 1.24233,-0.30246 2.49006,-0.529326 3.7432,-0.680582 1.25313,-0.162025 2.50627,-0.24305 3.75941,-0.243067 3.27327,1.7e-5 5.63371,0.648189 7.08131,1.944529 1.45838,1.28556 2.18758,3.38132 2.18759,6.28729"
         inkscape:connector-curvature="0" />
      <path
         id="path5896"
         style="font-size:40px;font-style:normal;font-variant:normal;font-weight:bold;font-stretch:normal;fill:#000000;fill-opacity:1;stroke:none;font-family:DejaVu Sans;-inkscape-font-specification:DejaVu Sans Bold"
         d="m 366.69908,106.96309 0,11.05137 -5.83357,0 0,-1.79868 0,-6.65999 c -2e-5,-1.56641 -0.0378,-2.6467 -0.11343,-3.24087 -0.0648,-0.59415 -0.18367,-1.03167 -0.3565,-1.31256 -0.22688,-0.37809 -0.53476,-0.66977 -0.92365,-0.87503 -0.38892,-0.21605 -0.83184,-0.32408 -1.32875,-0.32409 -1.20994,1e-5 -2.1606,0.46994 -2.85197,1.40978 -0.6914,0.92906 -1.03709,2.22001 -1.03708,3.87284 l 0,8.9286 -5.80117,0 0,-18.148884 5.80117,0 0,2.657524 c 0.87502,-1.05868 1.80407,-1.83648 2.78714,-2.33343 0.98306,-0.507723 2.06874,-0.761592 3.25708,-0.761609 2.09575,1.7e-5 3.68377,0.642789 4.76408,1.928319 1.09108,1.28556 1.63662,3.15447 1.63665,5.60671"
         inkscape:connector-curvature="0" />
      <path
         id="path5898"
         style="font-size:40px;font-style:normal;font-variant:normal;font-weight:bold;font-stretch:normal;fill:#000000;fill-opacity:1;stroke:none;font-family:DejaVu Sans;-inkscape-font-specification:DejaVu Sans Bold"
         d="m 384.45906,114.93563 c -0.79943,1.0587 -1.67987,1.83651 -2.64132,2.33343 -0.96147,0.49694 -2.07416,0.7454 -3.3381,0.7454 -2.21459,0 -4.04568,-0.86962 -5.49327,-2.6089 -1.44759,-1.75006 -2.17139,-3.97546 -2.17139,-6.6762 0,-2.71151 0.7238,-4.93151 2.17139,-6.65999 1.44759,-1.73925 3.27868,-2.608886 5.49327,-2.608902 1.26394,1.6e-5 2.37663,0.248484 3.3381,0.745402 0.96145,0.49695 1.84189,1.28017 2.64132,2.34964 l 0,-2.689934 5.83357,0 0,16.317794 c -3e-5,2.91678 -0.92367,5.14218 -2.77095,6.6762 -1.83651,1.54481 -4.50482,2.31722 -8.00496,2.31722 -1.13431,0 -2.23081,-0.0864 -3.28948,-0.25927 -1.05869,-0.17285 -2.12278,-0.43752 -3.19226,-0.79401 l 0,-4.52102 c 1.01547,0.58336 2.00933,1.01547 2.9816,1.29635 0.97226,0.29168 1.94992,0.43751 2.93299,0.43752 1.9013,-1e-5 3.29488,-0.41592 4.18073,-1.24774 0.88582,-0.83182 1.32874,-2.13357 1.32876,-3.90525 l 0,-1.24774 m -3.82423,-11.29444 c -1.19913,2e-5 -2.13359,0.44294 -2.80336,1.32876 -0.66979,0.88586 -1.00467,2.13899 -1.00467,3.75941 0,1.66366 0.32408,2.9276 0.97226,3.79183 0.64817,0.85343 1.59342,1.28014 2.83577,1.28014 1.20991,0 2.14976,-0.44291 2.81956,-1.32876 0.66976,-0.88583 1.00465,-2.13356 1.00467,-3.74321 -2e-5,-1.62042 -0.33491,-2.87355 -1.00467,-3.75941 -0.6698,-0.88582 -1.60965,-1.32874 -2.81956,-1.32876"
         inkscape:connector-curvature="0" />
      <path
         id="path5900"
         style="font-size:40px;font-style:normal;font-variant:normal;font-weight:bold;font-stretch:normal;fill:none;stroke:#000000;stroke-width:0.82966334;stroke-opacity:1;font-family:DejaVu Sans;-inkscape-font-specification:DejaVu Sans Bold"
         d="m 395.70488,110.94937 0,-11.083794 5.83357,0 0,1.814894 c -1e-5,0.98308 -0.006,2.22001 -0.0162,3.7108 -0.0108,1.48001 -0.0162,2.46847 -0.0162,2.9654 0,1.4584 0.0378,2.51168 0.11344,3.15985 0.0756,0.63738 0.20524,1.1019 0.3889,1.39357 0.23766,0.37811 0.54554,0.66978 0.92365,0.87503 0.38889,0.20527 0.83181,0.30789 1.32875,0.30789 1.20992,0 2.16057,-0.46452 2.85197,-1.39358 0.69138,-0.92904 1.03706,-2.21998 1.03708,-3.87284 l 0,-8.961014 5.80116,0 0,18.148884 -5.80116,0 0,-2.6251 c -0.87505,1.05868 -1.80409,1.84189 -2.78715,2.34963 -0.97227,0.49694 -2.04716,0.7454 -3.22466,0.7454 -2.09578,0 -3.6946,-0.64277 -4.7965,-1.92832 -1.09109,-1.28554 -1.63664,-3.15444 -1.63664,-5.6067"
         inkscape:connector-curvature="0" />
      <path
         id="path5902"
         style="font-size:40px;font-style:normal;font-variant:normal;font-weight:bold;font-stretch:normal;fill:none;stroke:#000000;stroke-width:0.82966334;stroke-opacity:1;font-family:DejaVu Sans;-inkscape-font-specification:DejaVu Sans Bold"
         d="m 427.69229,109.84747 c -1.20993,0 -2.12277,0.20526 -2.73853,0.61576 -0.60498,0.41052 -0.90745,1.01548 -0.90745,1.81489 0,0.7346 0.24306,1.31256 0.7292,1.73387 0.49692,0.41051 1.18291,0.61576 2.05795,0.61576 1.09108,0 2.00933,-0.3889 2.75475,-1.16671 0.74538,-0.7886 1.11808,-1.77167 1.11809,-2.9492 l 0,-0.66437 -3.01401,0 m 8.86379,-2.18759 0,10.35458 -5.84978,0 0,-2.68992 c -0.77781,1.1019 -1.65285,1.90671 -2.6251,2.41445 -0.97228,0.49694 -2.15519,0.7454 -3.54875,0.7454 -1.87972,0 -3.40833,-0.54554 -4.58584,-1.63664 -1.16672,-1.10189 -1.75007,-2.52788 -1.75007,-4.27795 0,-2.12816 0.72919,-3.68918 2.18759,-4.68306 1.46918,-0.99385 3.77021,-1.49079 6.90306,-1.49081 l 3.41911,0 0,-0.45371 c -10e-6,-0.91824 -0.3619,-1.58802 -1.08569,-2.00935 -0.7238,-0.4321 -1.85271,-0.64816 -3.38671,-0.64817 -1.24234,1e-5 -2.39825,0.12425 -3.46773,0.3727 -1.0695,0.24848 -2.06336,0.62118 -2.9816,1.1181 l 0,-4.42379 c 1.24232,-0.30246 2.49006,-0.529326 3.7432,-0.680582 1.25314,-0.162025 2.50627,-0.24305 3.75942,-0.243067 3.27327,1.7e-5 5.63369,0.648189 7.08131,1.944529 1.45836,1.28556 2.18756,3.38132 2.18758,6.28729"
         inkscape:connector-curvature="0" />
      <path
         id="path5904"
         style="font-size:40px;font-style:normal;font-variant:normal;font-weight:bold;font-stretch:normal;fill:none;stroke:#000000;stroke-width:0.82966334;stroke-opacity:1;font-family:DejaVu Sans;-inkscape-font-specification:DejaVu Sans Bold"
         d="m 454.33227,114.93563 c -0.79943,1.0587 -1.67987,1.83651 -2.64132,2.33343 -0.96147,0.49694 -2.07416,0.7454 -3.3381,0.7454 -2.21459,0 -4.04568,-0.86962 -5.49327,-2.6089 -1.44759,-1.75006 -2.17139,-3.97546 -2.17139,-6.6762 0,-2.71151 0.7238,-4.93151 2.17139,-6.65999 1.44759,-1.73925 3.27868,-2.608886 5.49327,-2.608902 1.26394,1.6e-5 2.37663,0.248484 3.3381,0.745402 0.96145,0.49695 1.84189,1.28017 2.64132,2.34964 l 0,-2.689934 5.83357,0 0,16.317794 c -2e-5,2.91678 -0.92367,5.14218 -2.77095,6.6762 -1.83651,1.54481 -4.50482,2.31722 -8.00496,2.31722 -1.13431,0 -2.23081,-0.0864 -3.28948,-0.25927 -1.05869,-0.17285 -2.12278,-0.43752 -3.19226,-0.79401 l 0,-4.52102 c 1.01547,0.58336 2.00933,1.01547 2.9816,1.29635 0.97226,0.29168 1.94992,0.43751 2.93299,0.43752 1.9013,-1e-5 3.29488,-0.41592 4.18073,-1.24774 0.88582,-0.83182 1.32874,-2.13357 1.32876,-3.90525 l 0,-1.24774 m -3.82423,-11.29444 c -1.19913,2e-5 -2.13359,0.44294 -2.80336,1.32876 -0.66979,0.88586 -1.00467,2.13899 -1.00467,3.75941 0,1.66366 0.32408,2.9276 0.97226,3.79183 0.64817,0.85343 1.59342,1.28014 2.83577,1.28014 1.20991,0 2.14976,-0.44291 2.81956,-1.32876 0.66976,-0.88583 1.00465,-2.13356 1.00467,-3.74321 -2e-5,-1.62042 -0.33491,-2.87355 -1.00467,-3.75941 -0.6698,-0.88582 -1.60965,-1.32874 -2.81956,-1.32876"
         inkscape:connector-curvature="0" />
      <path
         id="path5906"
         style="font-size:40px;font-style:normal;font-variant:normal;font-weight:bold;font-stretch:normal;fill:none;stroke:#000000;stroke-width:0.82966334;stroke-opacity:1;font-family:DejaVu Sans;-inkscape-font-specification:DejaVu Sans Bold"
         d="m 483.88903,108.89141 0,1.65284 -13.56306,0 c 0.14043,1.36118 0.63196,2.38205 1.4746,3.06263 0.84262,0.68059 2.02013,1.02087 3.53255,1.02087 1.22071,0 2.46845,-0.17824 3.7432,-0.53474 1.28553,-0.36729 2.60349,-0.91825 3.95387,-1.65285 l 0,4.47241 c -1.37199,0.51854 -2.74395,0.90745 -4.11591,1.16672 -1.37198,0.27007 -2.74395,0.4051 -4.11591,0.4051 -3.28409,0 -5.83897,-0.83182 -7.66466,-2.49547 -1.81489,-1.67445 -2.72233,-4.01868 -2.72233,-7.03269 0,-2.95999 0.89124,-5.28801 2.67372,-6.98409 1.79328,-1.69604 4.25634,-2.544062 7.38919,-2.544079 2.85195,1.7e-5 5.13137,0.858849 6.83824,2.576499 1.71765,1.71768 2.57647,4.01329 2.5765,6.88685 m -5.96321,-1.92832 c -2e-5,-1.10188 -0.32411,-1.98772 -0.97226,-2.65752 -0.63739,-0.68056 -1.47462,-1.02086 -2.51168,-1.02087 -1.12351,1e-5 -2.03636,0.3187 -2.73853,0.95606 -0.70221,0.62658 -1.13972,1.53402 -1.31256,2.72233 l 7.53503,0"
         inkscape:connector-curvature="0" />
    </g>
    <g
       id="g6110">
      <path
         id="path5917"
         style="font-size:40px;font-style:normal;font-variant:normal;font-weight:bold;font-stretch:normal;fill:none;stroke:#000000;stroke-width:0.82966334;stroke-opacity:1;font-family:DejaVu Sans;-inkscape-font-specification:DejaVu Sans Bold"
         d="m 513.72322,102.98293 c -1.20994,1e-5 -2.12278,0.20527 -2.73853,0.61577 -0.60498,0.41052 -0.90745,1.01547 -0.90745,1.81489 0,0.7346 0.24306,1.31256 0.72919,1.73386 0.49693,0.41052 1.18291,0.61577 2.05796,0.61577 1.09108,0 2.00933,-0.38891 2.75474,-1.16671 0.74539,-0.78861 1.11809,-1.77168 1.1181,-2.9492 l 0,-0.66438 -3.01401,0 m 8.86379,-2.1876 0,10.3546 -5.84978,0 0,-2.68993 c -0.77782,1.1019 -1.65285,1.90672 -2.6251,2.41446 -0.97228,0.49693 -2.15519,0.7454 -3.54876,0.7454 -1.87971,0 -3.40832,-0.54555 -4.58583,-1.63664 -1.16672,-1.1019 -1.75008,-2.52788 -1.75007,-4.27796 -10e-6,-2.12816 0.72919,-3.68919 2.18758,-4.68307 1.46919,-0.99385 3.77022,-1.490787 6.90307,-1.490807 l 3.41911,0 0,-0.453715 c -10e-6,-0.91824 -0.3619,-1.58802 -1.08569,-2.00934 -0.7238,-0.4321 -1.85271,-0.64816 -3.38671,-0.64818 -1.24234,2e-5 -2.39825,0.12425 -3.46773,0.3727 -1.0695,0.24849 -2.06337,0.62119 -2.9816,1.11811 l 0,-4.42379 c 1.24233,-0.30246 2.49006,-0.52933 3.7432,-0.68058 1.25313,-0.16203 2.50627,-0.24305 3.75942,-0.24307 3.27326,2e-5 5.63369,0.64819 7.0813,1.94452 1.45837,1.28557 2.18757,3.38132 2.18759,6.287292"
         inkscape:connector-curvature="0" />
      <path
         id="path5919"
         style="font-size:40px;font-style:normal;font-variant:normal;font-weight:bold;font-stretch:normal;fill:none;stroke:#000000;stroke-width:0.82966334;stroke-opacity:1;font-family:DejaVu Sans;-inkscape-font-specification:DejaVu Sans Bold"
         d="m 540.36319,108.0711 c -0.79943,1.05869 -1.67986,1.8365 -2.64131,2.33343 -0.96147,0.49693 -2.07416,0.7454 -3.3381,0.7454 -2.2146,0 -4.04569,-0.86963 -5.49327,-2.6089 -1.4476,-1.75007 -2.17139,-3.97547 -2.17139,-6.67621 0,-2.711522 0.72379,-4.931512 2.17139,-6.659992 1.44758,-1.73925 3.27867,-2.60889 5.49327,-2.6089 1.26394,1e-5 2.37663,0.24848 3.3381,0.7454 0.96145,0.49695 1.84188,1.28016 2.64131,2.34963 l 0,-2.68993 5.83357,0 0,16.317812 c -1e-5,2.91678 -0.92366,5.14218 -2.77094,6.67619 -1.83651,1.54482 -4.50482,2.31723 -8.00496,2.31723 -1.13431,0 -2.2308,-0.0864 -3.28948,-0.25927 -1.05869,-0.17286 -2.12278,-0.43753 -3.19226,-0.79402 l 0,-4.52101 c 1.01546,0.58336 2.00933,1.01547 2.9816,1.29634 0.97226,0.29168 1.94992,0.43752 2.93299,0.43753 1.9013,-1e-5 3.29488,-0.41592 4.18073,-1.24774 0.88582,-0.83182 1.32874,-2.13357 1.32875,-3.90525 l 0,-1.24774 m -3.82422,-11.294452 c -1.19914,2e-5 -2.13359,0.44293 -2.80336,1.32876 -0.66979,0.88585 -1.00467,2.138982 -1.00467,3.759412 0,1.66367 0.32408,2.92761 0.97226,3.79183 0.64817,0.85344 1.59342,1.28015 2.83577,1.28015 1.20991,0 2.14976,-0.44292 2.81956,-1.32876 0.66976,-0.88584 1.00465,-2.13357 1.00466,-3.74322 -10e-6,-1.62043 -0.3349,-2.873562 -1.00466,-3.759412 -0.6698,-0.88583 -1.60965,-1.32874 -2.81956,-1.32876"
         inkscape:connector-curvature="0" />
      <path
         id="path5921"
         style="font-size:40px;font-style:normal;font-variant:normal;font-weight:bold;font-stretch:normal;fill:#000000;fill-opacity:1;stroke:none;font-family:DejaVu Sans;-inkscape-font-specification:DejaVu Sans Bold"
         d="m 570.04958,100.09855 0,11.05138 -5.83357,0 0,-1.79868 0,-6.65999 c -10e-6,-1.56643 -0.0378,-2.64672 -0.11343,-3.240897 -0.0648,-0.594135 -0.18366,-1.031665 -0.35649,-1.312545 -0.22688,-0.37809 -0.53476,-0.66977 -0.92365,-0.87504 -0.38892,-0.21604 -0.83183,-0.32407 -1.32876,-0.32409 -1.20993,2e-5 -2.16059,0.46995 -2.85197,1.40978 -0.69139,0.929065 -1.03709,2.220022 -1.03708,3.872852 l 0,8.92861 -5.80115,0 0,-18.148902 5.80115,0 0,2.65752 c 0.87503,-1.05867 1.80408,-1.83647 2.78716,-2.33342 0.98305,-0.50772 2.06874,-0.76159 3.25707,-0.76161 2.09575,2e-5 3.68378,0.64279 4.76409,1.92832 1.09107,1.28556 1.63662,3.15446 1.63663,5.606712"
         inkscape:connector-curvature="0" />
      <path
         id="path5923"
         style="font-size:40px;font-style:normal;font-variant:normal;font-weight:bold;font-stretch:normal;fill:#000000;fill-opacity:1;stroke:none;font-family:DejaVu Sans;-inkscape-font-specification:DejaVu Sans Bold"
         d="m 584.09877,96.711838 c -1.28555,0 -2.26862,0.46453 -2.9492,1.39357 -0.66978,0.91826 -1.00468,2.247012 -1.00467,3.986272 -10e-6,1.73929 0.33489,3.07345 1.00467,4.00249 0.68058,0.91825 1.66365,1.37737 2.9492,1.37737 1.26393,0 2.23078,-0.45912 2.90058,-1.37737 0.66976,-0.92904 1.00465,-2.2632 1.00467,-4.00249 -2e-5,-1.73926 -0.33491,-3.068012 -1.00467,-3.986272 -0.6698,-0.92904 -1.63665,-1.39357 -2.90058,-1.39357 m 0,-4.14832 c 3.12202,2e-5 5.55808,0.84264 7.30817,2.52788 1.76085,1.68527 2.64129,4.01869 2.6413,7.000282 -10e-6,2.98162 -0.88045,5.31505 -2.6413,7.0003 -1.75009,1.68525 -4.18615,2.52788 -7.30817,2.52788 -3.13285,0 -5.58511,-0.84263 -7.35678,-2.52788 -1.76088,-1.68525 -2.64132,-4.01868 -2.64131,-7.0003 -10e-6,-2.981592 0.88043,-5.315012 2.64131,-7.000282 1.77167,-1.68524 4.22393,-2.52786 7.35678,-2.52788"
         inkscape:connector-curvature="0" />
      <path
         id="path5925"
         style="font-size:40px;font-style:normal;font-variant:normal;font-weight:bold;font-stretch:normal;fill:#000000;fill-opacity:1;stroke:none;font-family:DejaVu Sans;-inkscape-font-specification:DejaVu Sans Bold"
         d="m 612.4564,93.568178 0,4.40759 c -1.24235,-0.51852 -2.44147,-0.90743 -3.59736,-1.16671 -1.15593,-0.25926 -2.24702,-0.38889 -3.27329,-0.38891 -1.1019,2e-5 -1.92292,0.14046 -2.46306,0.42132 -0.52935,0.27009 -0.79402,0.6914 -0.79402,1.26394 0,0.46454 0.19985,0.82103 0.59957,1.06949 0.4105,0.248475 1.1397,0.432115 2.18759,0.550945 l 1.02087,0.14583 c 2.97079,0.378117 4.96932,0.999287 5.99562,1.863507 1.02626,0.86426 1.53939,2.22002 1.53941,4.06731 -2e-5,1.93372 -0.71301,3.38671 -2.13898,4.35897 -1.42599,0.97227 -3.55417,1.4584 -6.38452,1.4584 -1.19912,0 -2.44146,-0.0972 -3.727,-0.29168 -1.27475,-0.18365 -2.5873,-0.46453 -3.93766,-0.84263 l 0,-4.40758 c 1.15591,0.56175 2.33882,0.98306 3.54875,1.26394 1.22073,0.28087 2.45766,0.42131 3.71081,0.42131 1.13429,0 1.98772,-0.15664 2.56029,-0.46993 0.57254,-0.31328 0.85882,-0.7778 0.85882,-1.39357 0,-0.51854 -0.19986,-0.90204 -0.59955,-1.15051 -0.38892,-0.25926 -1.17213,-0.45912 -2.34963,-0.59956 l -1.02088,-0.12964 c -2.5819,-0.32407 -4.39139,-0.92364 -5.42846,-1.79869 -1.03708,-0.87503 -1.55562,-2.20378 -1.55562,-3.986282 0,-1.9229 0.65898,-3.34888 1.97693,-4.27795 1.31795,-0.92903 3.33809,-1.39355 6.06043,-1.39357 1.06948,2e-5 2.19298,0.0811 3.37051,0.24307 1.1775,0.16205 2.45765,0.41592 3.84043,0.76159"
         inkscape:connector-curvature="0" />
      <path
         id="path5927"
         style="font-size:40px;font-style:normal;font-variant:normal;font-weight:bold;font-stretch:normal;fill:#000000;fill-opacity:1;stroke:none;font-family:DejaVu Sans;-inkscape-font-specification:DejaVu Sans Bold"
         d="m 624.38281,87.848048 0,5.15298 5.97942,0 0,4.14832 -5.97942,0 0,7.697082 c -10e-6,0.84264 0.16744,1.41519 0.50234,1.71767 0.33488,0.29168 0.99926,0.43752 1.99314,0.43751 l 2.9816,0 0,4.14832 -4.97474,0 c -2.29022,0 -3.91607,-0.47532 -4.87751,-1.42598 -0.95066,-0.96146 -1.42599,-2.58729 -1.42599,-4.87752 l 0,-7.697082 -2.88438,0 0,-4.14832 2.88438,0 0,-5.15298 5.80116,0"
         inkscape:connector-curvature="0" />
      <path
         id="path5929"
         style="font-size:40px;font-style:normal;font-variant:normal;font-weight:bold;font-stretch:normal;fill:#000000;fill-opacity:1;stroke:none;font-family:DejaVu Sans;-inkscape-font-specification:DejaVu Sans Bold"
         d="m 633.92718,93.001028 5.80117,0 0,18.148902 -5.80117,0 0,-18.148902 m 0,-7.06509 5.80117,0 0,4.73167 -5.80117,0 0,-4.73167"
         inkscape:connector-curvature="0" />
      <path
         id="path5931"
         style="font-size:40px;font-style:normal;font-variant:normal;font-weight:bold;font-stretch:normal;fill:#000000;fill-opacity:1;stroke:none;font-family:DejaVu Sans;-inkscape-font-specification:DejaVu Sans Bold"
         d="m 660,93.568178 0,4.73168 c -0.78863,-0.54013 -1.58264,-0.93984 -2.38204,-1.19912 -0.78863,-0.25926 -1.60964,-0.3889 -2.46306,-0.3889 -1.62045,0 -2.88439,0.47534 -3.79182,1.42598 -0.89665,0.93986 -1.34498,2.257812 -1.34497,3.953862 -10e-6,1.69607 0.44832,3.01943 1.34497,3.97008 0.90743,0.93986 2.17137,1.40978 3.79182,1.40978 0.90743,0 1.76626,-0.13503 2.57649,-0.4051 0.821,-0.27008 1.57721,-0.66978 2.26861,-1.19913 l 0,4.74788 c -0.90746,0.33489 -1.83111,0.58335 -2.77094,0.7454 -0.92907,0.17284 -1.86352,0.25927 -2.80336,0.25927 -3.27329,0 -5.83358,-0.83723 -7.68087,-2.51168 -1.8473,-1.68525 -2.77095,-4.02408 -2.77094,-7.0165 -10e-6,-2.992392 0.92364,-5.325822 2.77094,-7.000282 1.84729,-1.68524 4.40758,-2.52786 7.68087,-2.52788 0.95064,2e-5 1.88509,0.0864 2.80336,0.25927 0.92903,0.16206 1.85268,0.41053 2.77094,0.74539"
         inkscape:connector-curvature="0" />
    </g>
  </g>
  <path
     sodipodi:nodetypes="cscccssscccssssssssscccscccscccsssssscccccsssssssscccsscccsssssssssssssssssssssscccsscccssscccsccccssscccccscccssssssccccccssssssssssscccssssssssscccssccccccsssssssssssssscccsssccssc"
     id="path2980"
     d="m 326.2968,33.487044 c -8.56841,-0.866998 -15.63778,-5.022842 -18.33497,-10.778473 -1.16257,-2.480863 -1.35273,-5.169462 -0.54956,-7.769856 l 0.18969,-0.614127 -0.23374,-0.170256 c -0.12854,-0.09365 -0.36014,-0.394239 -0.51463,-0.667992 -0.21473,-0.380497 -0.38057,-0.545982 -0.70415,-0.702616 -0.43433,-0.210261 -0.5488,-0.374331 -0.26074,-0.373718 0.22587,4.67e-4 0.77372,0.343127 1.00805,0.630453 l 0.19543,0.239634 0.12409,-0.624271 c 0.11525,-0.579813 0.29276,-0.91269 0.39368,-0.738237 0.0237,0.04077 -0.0337,0.387599 -0.12715,0.770684 -0.22188,0.90886 -0.21851,1.07541 0.0251,1.246068 0.19789,0.138614 0.2131,0.1232 0.60809,-0.616016 2.25534,-4.2210352 7.21477,-7.1322902 13.67658,-8.0283352 1.62535,-0.225384 5.25166,-0.223213 6.91878,0.0041 3.41524,0.465755 6.23197,1.321603 9.04157,2.747217 7.23766,3.6724432 10.76841,10.0794022 8.73404,15.8489602 -0.37171,1.054205 -0.58755,1.475644 -1.30508,2.548368 -1.09205,1.632638 -2.91109,3.232537 -5.02298,4.417848 l -2.28218,1.078825 -0.91433,0.319581 c -1.22917,0.429626 -2.87684,0.825831 -4.39695,1.057289 -1.43809,0.218975 -4.88293,0.315044 -6.26869,0.174832 l 0,0 z m 5.4793,-0.644207 c 1.47277,-0.202309 3.18116,-0.585032 4.40804,-0.9875 0.68777,-0.225615 1.28093,-0.440921 1.31814,-0.478465 l 1.48443,-0.675482 0.48096,-0.242366 c 1.31202,-0.661169 3.33247,-2.232984 4.16046,-3.236671 0.58018,-0.703256 1.14228,-1.516215 1.47692,-2.135998 0.29672,-0.549562 0.74078,-1.636405 0.74078,-1.813079 0,-0.05368 -0.42669,-0.0909 -1.04478,-0.09112 -1.81525,-5.06e-4 -3.37821,-0.349893 -4.83226,-1.079758 -0.88247,-0.442959 -1.67941,-0.962218 -3.21397,-2.094131 -0.69516,-0.512766 -1.45564,-1.029474 -1.68997,-1.148236 l -0.42601,-0.215931 -0.77099,0.775005 -0.77098,0.775006 0.54692,0.06856 c 0.4398,0.05512 0.7379,0.02156 1.52205,-0.171482 0.53632,-0.132023 1.00833,-0.207435 1.0489,-0.167589 0.0405,0.03987 -0.31465,0.23237 -0.78938,0.42782 -0.47475,0.195445 -0.89549,0.382629 -0.93498,0.415953 -0.0395,0.03333 0.52469,0.532911 1.25373,1.110199 1.88755,1.494618 1.86577,1.584348 -0.11251,0.463477 -0.72667,-0.411737 -1.33159,-0.735622 -1.34425,-0.719741 -0.0127,0.01588 -0.11837,0.530371 -0.23489,1.14331 -0.29744,1.564592 -0.40409,1.572637 -0.34891,0.02633 l 0.0455,-1.273863 -0.19705,0.104302 c -0.10841,0.05738 -0.55796,0.346358 -0.99902,0.642205 -0.44104,0.29584 -0.82705,0.512755 -0.85778,0.482034 -0.0306,-0.03074 0.26721,-0.394004 0.66206,-0.807293 l 0.71791,-0.751436 -0.83526,-0.129692 c -0.45939,-0.07133 -0.84753,-0.139572 -0.86254,-0.151638 -0.0149,-0.01207 0.36597,-0.622605 0.84662,-1.356746 0.71601,-1.093568 0.84681,-1.346205 0.72382,-1.39792 -0.27106,-0.113979 -1.9047,-0.07672 -2.37898,0.05425 -1.00632,0.2779 -1.63551,0.647966 -3.62193,2.13029 -1.8134,1.35323 -3.92186,2.300933 -5.75221,2.585489 -0.60779,0.09449 -0.69545,0.129743 -0.56318,0.226456 0.13972,0.10217 0.0373,0.263247 -0.94844,1.491109 -0.60779,0.757115 -1.13184,1.421265 -1.16453,1.475902 -0.0327,0.05464 0.14512,0.406948 0.39515,0.782927 0.25004,0.375974 0.43425,0.716521 0.40938,0.756757 -0.0249,0.04022 -0.34052,-0.116125 -0.70145,-0.347475 -0.36092,-0.231345 -0.66797,-0.407633 -0.68235,-0.391742 -0.0145,0.01588 -0.322,0.621099 -0.68364,1.344902 -0.60083,1.202531 -0.79607,1.507948 -0.89851,1.405503 -0.0203,-0.02018 0.14977,-0.658202 0.37771,-1.417766 0.22795,-0.759561 0.39648,-1.399001 0.37452,-1.420969 -0.022,-0.02197 -0.34184,0.0287 -0.71082,0.112639 -0.91913,0.209049 -0.99159,0.06705 -0.18269,-0.358018 0.36009,-0.189228 0.65472,-0.371677 0.65472,-0.405447 0,-0.03378 -0.19599,-0.260378 -0.43553,-0.503576 -0.23955,-0.243199 -0.40642,-0.471293 -0.37085,-0.506868 0.0356,-0.03554 0.43647,0.08334 0.89085,0.264269 l 0.82615,0.328954 0.51983,-0.962085 c 0.2859,-0.529149 0.51773,-0.993813 0.51522,-1.032584 -0.0107,-0.162365 -1.67242,-1.310773 -2.48275,-1.715723 -0.48198,-0.240859 -1.18045,-0.644273 -1.55217,-0.896475 l -0.67582,-0.458551 -0.49787,0.246389 c -0.42079,0.208247 -0.62009,0.246389 -1.28747,0.246389 -0.69057,0 -0.86585,-0.03611 -1.39764,-0.288142 -0.76605,-0.363014 -1.248,-0.783729 -1.52209,-1.328719 -0.21543,-0.428361 -0.49853,-1.539251 -0.70031,-2.748011 -0.14418,-0.78274 -0.23347,-1.453216 -0.39627,-2.135996 0.0714,-0.373752 -0.21498,-0.284658 -0.37322,0.116084 -1.71352,8.830745 3.92037,13.238293 10.15303,16.028307 3.02275,1.353122 5.65741,1.873608 8.21317,2.101898 1.0388,0.104281 4.4809,0.04874 5.47931,-0.08841 l 0,0 z m 14.51283,-9.891548 c 0.0138,-0.01116 -0.31099,-0.04838 -0.72188,-0.08264 -3.42396,-0.28555 -6.14414,-1.731489 -8.72047,-4.63543 -0.56365,-0.635321 -0.91515,-1.113765 -0.95609,-1.301349 -0.0356,-0.163156 -0.16661,-0.725168 -0.29114,-1.248908 l -0.22641,-0.952269 1.14804,-0.69189 1.14805,-0.691889 0.80204,0.139998 c 0.44112,0.07699 0.82481,0.117229 0.85262,0.08941 0.045,-0.04489 -0.85125,-0.486763 -1.44448,-0.712305 l -0.22089,-0.08399 0.35322,-0.487011 c 0.19428,-0.267859 0.63896,-0.876511 0.9882,-1.352571 0.34924,-0.476055 0.61961,-0.911636 0.60084,-0.9679512 -0.0188,-0.05632 -0.47015,0.2913942 -1.00307,0.7726872 -0.53292,0.481296 -1.05291,0.95069 -1.15552,1.043103 -0.18595,0.167443 -0.18668,0.163238 -0.21222,-1.230523 -0.014,-0.7691982 -0.0606,-1.3985402 -0.10325,-1.3985402 -0.0426,0 -0.21948,0.714075 -0.39278,1.5868332 l -0.31514,1.586828 -0.69601,-0.654637 c -1.07183,-1.008109 -1.08396,-0.931019 -0.10124,0.64387 l 0.65702,1.052941 -1.07211,0.389165 c -0.58964,0.214045 -1.09012,0.407209 -1.11216,0.429252 -0.0221,0.02206 0.0221,0.364723 0.098,0.761518 0.0759,0.39679 0.13803,0.757826 0.13803,0.802308 0,0.04449 -0.20353,-0.02136 -0.45229,-0.146308 -0.82979,-0.416777 -1.53354,-0.551404 -2.891,-0.553042 -1.14123,-0.0016 -1.3246,0.02262 -2.04313,0.267199 -0.43417,0.147794 -1.37448,0.537852 -2.08957,0.866803 -3.7533,1.726558 -4.5415,1.976983 -6.21095,1.973403 -0.92936,-0.002 -1.66633,-0.0895 -1.78929,-0.212448 -0.0249,-0.02486 0.3964,-0.589637 0.93606,-1.255107 0.53967,-0.665469 0.98123,-1.243011 0.98123,-1.283429 0,-0.04042 -0.21941,-0.296678 -0.48758,-0.569472 l -0.48756,-0.495987 0.74295,-0.687332 c 0.40864,-0.378038 0.71578,-0.688997 0.68256,-0.691022 -0.0331,-0.002 -0.42683,0.164806 -0.87468,0.37073 -0.44786,0.205929 -0.84334,0.341751 -0.87887,0.301826 -0.0355,-0.03992 -0.15955,-0.657669 -0.27562,-1.372764 -0.11605,-0.715094 -0.24145,-1.334211 -0.27865,-1.375812 -0.0749,-0.0837 -0.15333,0.767113 -0.18258,1.979464 -0.0106,0.434165 -0.0291,0.799615 -0.0416,0.812102 -0.0124,0.01248 -0.47058,-0.295349 -1.01828,-0.684089 -0.54768,-0.388745 -1.01604,-0.686554 -1.04079,-0.661809 -0.0248,0.02476 0.3497,0.481497 0.83212,1.015004 l 0.87711,0.970009 -0.73455,0.457846 c -0.40402,0.251811 -0.73456,0.48552 -0.73456,0.519346 0,0.03383 0.36566,-0.04069 0.8126,-0.165515 1.2706,-0.354972 1.23475,-0.354671 1.63209,-0.01365 l 0.35513,0.304798 -0.83362,0.764464 c -0.45848,0.420457 -0.96835,0.877847 -1.13303,1.01643 l -0.29946,0.251967 -0.59694,-0.309505 c -0.45622,-0.236534 -0.58258,-0.344811 -0.53597,-0.459271 0.15335,-0.376729 0.15265,-1.294836 -0.002,-1.828128 -0.19311,-0.668591 -0.76035,-1.267095 -1.5817,-1.66895 -0.85311,-0.417383 -1.34333,-0.377704 -3.99354,0.323254 -1.22587,0.324235 -2.2469,0.605072 -2.26893,0.624087 -0.15166,0.130783 2.3087,2.156787 3.89705,3.20906 2.61183,1.730336 4.89571,2.70216 7.10163,3.021838 1.24353,0.180215 2.69211,0.07055 3.99978,-0.302794 1.16496,-0.332597 3.0119,-1.264952 4.57834,-2.311194 1.37209,-0.916423 1.78537,-1.096926 2.91448,-1.272869 1.01953,-0.158877 2.25355,0.102297 3.24996,0.687858 0.21734,0.127722 1.29368,0.948605 2.39187,1.824184 2.41331,1.924133 3.8345,2.896166 4.74824,3.24759 1.44522,0.555827 3.35335,0.883439 4.49228,0.771287 0.25539,-0.02516 0.47567,-0.05488 0.48952,-0.06606 l 0,0 z m -33.34687,-7.456524 c -0.21212,-0.234374 -0.19892,-0.536492 0.0336,-0.768993 0.2512,-0.251193 0.6209,-0.203141 0.85443,0.111057 0.16231,0.21842 0.16823,0.27334 0.055,0.510782 -0.16149,0.338517 -0.6945,0.421698 -0.94295,0.147154 z m -1.48884,2.894279 c 0.14254,-0.217533 0.14487,-0.268406 0.0224,-0.487563 -0.26038,-0.466026 -1.01312,-0.297051 -1.01312,0.227419 0,0.511965 0.70447,0.696958 0.99068,0.260144 z"
     style="fill:#000000"
     inkscape:connector-curvature="0" />
  <g
     id="g6588"
     transform="matrix(0.38316079,0,0,0.38316079,206.74592,-4.6733082)">
    <g
       transform="matrix(0.83144722,0,0,0.83144722,184.75865,61.443103)"
       id="g3085">
      <path
         style="fill:#000000;fill-opacity:1;fill-rule:evenodd;stroke:none"
         d="M 231.5625 0.03125 C 221.25625 0.03125 212.90625 8.3812537 212.90625 18.6875 C 212.90625 27.382049 218.85976 34.647497 226.90625 36.71875 C 227.90025 34.930487 229.43931 32.381061 230.21875 31.3125 C 230.71971 30.62571 231.19301 29.988011 231.25 29.90625 C 231.30699 29.82449 231.43567 29.873172 231.5625 30 C 231.68933 30.126829 231.35703 30.912052 230.8125 31.75 L 229.8125 33.28125 L 231.03125 32.125 C 232.38372 30.842119 232.84931 30.722362 233.46875 31.46875 C 234.0554 32.175619 231.75529 34.75601 228.625 37.09375 C 229.58629 37.246432 230.55813 37.34375 231.5625 37.34375 C 241.86875 37.34375 250.25 28.993746 250.25 18.6875 C 250.25 17.187976 250.05371 15.740757 249.71875 14.34375 C 248.71201 15.894481 246.79091 18.201912 243.90625 21.3125 L 243.21875 20.59375 L 242.4375 19.78125 L 246.59375 15.375 C 247.60388 14.303599 248.48422 13.407948 249.21875 12.65625 C 249.04621 12.152849 248.86968 11.670451 248.65625 11.1875 C 246.42837 13.742087 241.47685 18.46875 240.78125 18.46875 C 240.65529 18.46875 240.88531 18.008371 241.28125 17.46875 C 242.69585 15.540841 246.29544 12.041265 248.3125 10.4375 C 245.25807 4.2750051 238.90371 0.03125 231.5625 0.03125 z M 233.53125 4.28125 C 235.83054 4.2587364 239.12566 4.4369065 239.875 4.75 C 242.14674 5.6991935 242.93359 8.7730861 241.25 10.15625 C 240.59519 10.694211 240.19661 10.714497 237.46875 10.46875 C 235.80418 10.318793 233.21221 10.190594 231.6875 10.1875 C 226.9169 10.177818 227.12774 10.923244 233.1875 15.625 C 235.38952 17.333543 237.13226 18.773989 237.0625 18.84375 C 236.99274 18.913511 234.74478 19.102397 232.09375 19.25 C 227.86449 19.485474 227.08358 19.614842 225.59375 20.34375 C 223.59852 21.319924 222.93109 22.339686 223.65625 23.375 C 224.3403 24.351621 226.80657 25.523304 229.875 26.3125 C 231.33733 26.68861 232.59333 27.036349 232.65625 27.09375 C 232.71917 27.151151 232.47523 27.620508 232.09375 28.15625 C 231.293 29.280803 230.28707 29.400038 227.21875 28.65625 C 225.10751 28.144466 222.79521 27.028213 220.21875 25.28125 C 217.86737 23.686898 216.65625 22.101001 216.65625 20.625 C 216.65625 17.523484 223.29149 15.391817 229.5 16.5 L 230.90625 16.75 L 229 15.46875 C 225.84958 13.364981 222.84375 9.7725021 222.84375 8.125 C 222.84375 7.9441541 223.11831 7.5066858 223.46875 7.15625 C 224.25329 6.3717116 226.29937 6.3280066 230.9375 7 C 235.23017 7.6219423 237.8125 7.6192652 237.8125 7 C 237.8125 6.3157025 236.36296 5.7173587 233.71875 5.25 C 232.44055 5.0240807 231.34008 4.7082494 231.25 4.5625 C 231.13859 4.3822274 232.15168 4.2947582 233.53125 4.28125 z M 240.3125 18.8125 C 240.37669 18.829635 240.43312 18.870622 240.5 18.9375 C 240.63376 19.071257 240.2485 19.708956 239.65625 20.34375 C 239.06399 20.978545 237.18149 23.292459 235.46875 25.5 C 233.756 27.707541 232.19505 29.53125 232 29.53125 C 231.80495 29.53125 231.76137 29.339032 231.90625 29.09375 C 232.2696 28.478578 234.22479 26.022845 237.375 22.21875 C 238.83747 20.452717 240.09524 18.925511 240.15625 18.84375 C 240.18676 18.80287 240.24831 18.795365 240.3125 18.8125 z M 242 20.25 C 242.13996 20.25 242.63983 20.521021 243.125 20.84375 L 243.875 21.3125 C 242.72139 22.556196 241.49238 23.866156 240 25.40625 C 234.71768 30.857448 234.25355 31.248207 233.625 30.78125 C 232.98154 30.30322 233.06444 30.165004 235.125 28.03125 C 236.3204 26.793383 238.27903 24.52075 239.5 23 C 240.72097 21.47925 241.86004 20.25 242 20.25 z M 237.71875 28.5 C 237.96285 28.5 238.59719 28.727057 239.125 29 C 240.45593 29.68825 240.26529 30.768605 238.75 31.25 C 237.21615 31.737291 235.0788 32.047553 234.84375 31.8125 C 234.56207 31.530817 237.19224 28.5 237.71875 28.5 z M 231.4375 29.46875 C 231.45394 29.452306 231.59111 29.551865 231.84375 29.75 C 232.15038 29.990477 232.375 30.246345 232.375 30.3125 C 232.375 30.574701 232.13493 30.405671 231.71875 29.875 C 231.52062 29.622359 231.42106 29.485194 231.4375 29.46875 z M 228.8125 30.53125 C 229.56783 30.516682 230.02826 30.528256 230.0625 30.5625 C 230.13099 30.630988 230.01076 30.976252 229.78125 31.34375 C 229.29995 32.114431 228.91428 32.118296 224.9375 31.5 C 223.37863 31.257632 222.0327 31.001452 221.96875 30.9375 C 221.9048 30.873547 223.68271 30.737695 225.90625 30.625 C 227.01802 30.568653 228.05717 30.545818 228.8125 30.53125 z "
         transform="matrix(3.138949,0,0,3.138949,-871.17821,-59.229706)"
         id="path3079" />
    </g>
    <text
       id="text3111"
       y="85.284348"
       x="-4.678925"
       style="font-size:75.51189423px;font-style:normal;font-weight:normal;fill:#000000;fill-opacity:1;stroke:none;font-family:Bitstream Vera Sans"
       xml:space="preserve"><tspan
         y="85.284348"
         x="-4.678925"
         id="tspan3113"
         sodipodi:role="line">(</tspan></text>
    <text
       xml:space="preserve"
       style="font-size:75.51189423px;font-style:normal;font-weight:normal;fill:#000000;fill-opacity:1;stroke:none;font-family:Bitstream Vera Sans"
       x="103.32108"
       y="85.284348"
       id="text3119"><tspan
         sodipodi:role="line"
         id="tspan3121"
         x="103.32108"
         y="85.284348">)</tspan></text>
  </g>
  <g
     id="g7566"
     transform="matrix(0.63625888,0,0,0.63625888,-4.366656,-28.57546)">
    <g
       transform="matrix(0.19903242,0,0,0.19903242,192.02329,52.713997)"
       id="g6648">
      <path
         d="M 0,113.5 0,0 24.09581,0 48.19162,0 44.61345,4.75 C 29.94371,24.224 19.63704,48.4742 14.331207,76 c -2.313278,12.00091 -2.619544,51.39818 -0.485862,62.5 4.439015,23.09677 9.627555,39.00146 17.779375,54.5 4.95945,9.4291 14.97118,23.89785 20.77243,30.01991 L 56.16866,227 28.08433,227 0,227 0,113.5 z"
         id="path3791"
         style="fill:#000000"
         inkscape:connector-curvature="0" />
      <path
         d="m 313,226.28785 c 0,-0.39168 1.75241,-2.52918 3.89424,-4.75 7.48936,-7.76554 28.35737,-38.69784 26.97073,-39.97825 C 343.29984,181.03777 291.07058,155 290.58897,155 c -0.23422,0 -1.44684,1.6875 -2.69472,3.75 -1.24788,2.0625 -4.77209,7.11312 -7.83156,11.22361 -15.45333,20.76193 -31.80988,33.60759 -51.15972,40.17841 -8.78727,2.98399 -10.31968,3.19451 -23.40297,3.21512 -15.79365,0.0249 -21.0014,-1.09356 -33.5,-7.19457 -8.90189,-4.34532 -21.51982,-16.29742 -26.91686,-25.49648 C 136.25269,165.6249 130.37392,142.86623 129.34536,119.75 l -0.65629,-14.75 103.54196,0 103.54197,0 0.45064,-3.07037 C 337.25727,94.88702 335.16907,59.43687 333.22361,51 329.44065,34.59448 323.55525,20.10136 315.55903,7.5 313.81401,4.75 312.0478,1.9375 311.63412,1.25 311.04106,0.264393 315.75929,0 333.94098,0 L 357,0 l 0,113.5 0,113.5 -22,0 c -12.1,0 -22,-0.32047 -22,-0.71215 z"
         id="path3789"
         style="fill:#000000"
         inkscape:connector-curvature="0" />
      <path
         d="m 132.41568,45.92409 c 3.36284,-25.35031 28.89715,-43.946584 55.00975,-40.062818 4.17156,0.620442 8.36988,1.540419 9.32961,2.044394 0.95973,0.503974 4.35216,2.164924 7.53875,3.691 C 216.23827,17.316953 225,31.95136 225,46.1815 l 0,4.8185 -46.62883,0 -46.62883,0 0.67334,-5.07591 z"
         id="path3785"
         style="fill:#000000"
         inkscape:connector-curvature="0" />
    </g>
  </g>
  <g
     id="g7586"
     transform="matrix(0.63625888,0,0,0.63625888,-3.3440465,-29.675462)">
    <path
       style="fill:#000000"
       id="path2909"
       d="m 406.67122,102.22946 c 0,-0.0328 3.76621,-5.708841 8.36935,-12.613364 l 8.36935,-12.553677 -8.42905,-12.642744 -8.42906,-12.642744 6.32916,0.0034 6.32917,0.0034 8.37908,12.580709 c 4.6085,6.919391 8.37908,12.620297 8.37908,12.668681 0,0.04839 -3.77058,5.749291 -8.37908,12.668681 l -8.37908,12.580708 -6.26946,0.003 c -3.4482,0.002 -6.26946,-0.0235 -6.26946,-0.0563 z"
       inkscape:connector-curvature="0" />
    <path
       style="fill:none;stroke:#000000;stroke-width:1;stroke-miterlimit:4;stroke-opacity:1;stroke-dasharray:none;marker-start:none"
       id="path2907"
       d="m 423.54824,102.22946 c 0,-0.0328 3.76621,-5.708841 8.36935,-12.613364 l 8.36935,-12.553677 -8.42905,-12.642744 -8.42906,-12.642744 6.27972,0 6.27973,0 16.83735,25.256106 16.83735,25.256103 -6.28001,0 -6.28,0 -5.26789,-7.903674 c -2.89734,-4.347021 -5.27735,-7.903675 -5.28892,-7.903675 -0.0116,0 -2.39159,3.556654 -5.28893,7.903675 l -5.26789,7.903674 -6.22055,0 c -3.4213,0 -6.22055,-0.0269 -6.22055,-0.0597 z"
       inkscape:connector-curvature="0" />
    <path
       style="fill:#000000"
       id="path2905"
       d="m 461.36191,83.41963 c -1.51374,-2.272506 -2.75225,-4.171171 -2.75225,-4.219255 0,-0.04808 4.38565,-0.08742 9.74589,-0.08742 l 9.74588,0 0,4.219255 0,4.219256 -6.99363,0 -6.99364,0 -2.75225,-4.131832 z"
       inkscape:connector-curvature="0" />
    <path
       style="fill:#000000"
       id="path2888"
       d="m 452.96418,70.83708 c -1.50348,-2.260442 -2.75143,-4.157724 -2.77322,-4.216182 -0.0232,-0.0621 5.76989,-0.106287 13.93543,-0.106287 l 13.97504,0 0,4.219256 0,4.219255 -11.20182,-0.0031 -11.20183,-0.0031 -2.7336,-4.109894 z"
       inkscape:connector-curvature="0" />
  </g>
  <g
     id="g7560"
     transform="matrix(0.63625888,0,0,0.63625888,-2.3029277,-28.575455)">
    <g
       transform="matrix(0.84945729,0,0,0.84945729,558.89259,118.90918)"
       id="g5800">
      <path
         d="m -481.45681,-17.139548 c -6.67143,-1.88208 -12.56822,-6.293519 -16.14867,-12.080969 -2.957,-4.7797 -3.03125,-5.21726 -3.36793,-19.84654 -0.43501,-18.90166 0.43902,-22.41008 7.28891,-29.25824 4.01302,-4.01201 6.306,-5.40376 11.12096,-6.75 7.72338,-2.15943 7.48501,-2.19897 6.81897,1.13121 -0.37586,1.87932 0.10955,3.93705 1.44788,6.13775 1.38489,2.27727 1.76697,3.96992 1.22412,5.42287 -0.43406,1.16174 -1.32671,5.2312 -1.98367,9.04325 -1.53848,8.92708 -4.25755,12.98207 -8.17917,12.19775 -2.68915,-0.53784 -2.80146,-0.4174 -2.23798,2.40002 1.17008,5.85036 -3.97047,7.79394 -10.28772,3.88967 -3.94597,-2.43875 -4.12978,-1.8385 -1.09677,3.58156 1.52002,2.71632 3.67819,4.69142 6.72493,6.15449 2.83425,1.36102 4.68227,2.98344 5.01794,4.40536 0.54917,2.32633 0.92136,2.59864 7.2698,5.31881 8.25703,3.53797 18.76228,0.86404 24.99341,-6.36165 2.92758,-3.39484 9.39097,-7.68203 10.26453,-6.80848 1.08971,1.08972 -2.24144,9.24876 -5.17559,12.67666 -7.02064,8.202029 -21.91693,12.068899 -33.69395,8.746479 z"
         id="path5710"
         style="fill:#000000"
         inkscape:connector-curvature="0" />
      <path
         d="m -472.46242,-44.846297 c 1.34733,-1.36977 2.79693,-1.96098 3.83316,-1.56334 2.68762,1.03133 1.13456,3.11197 -2.57689,3.45228 l -3.42299,0.31386 2.16672,-2.2028 z"
         id="path5640"
         style="fill:#000000"
         inkscape:connector-curvature="0" />
      <path
         d="m -471.44393,-81.305147 c -2.60006,-5.45238 -2.33627,-5.81307 3.78908,-5.18088 7.75525,0.80041 8.23887,1.3838 4.41645,5.32754 -4.1751,4.30761 -6.09782,4.27324 -8.20553,-0.14666 z"
         id="path5632"
         style="fill:#000000"
         inkscape:connector-curvature="0" />
    </g>
  </g>
  <g
     id="g8427"
     transform="matrix(0.63625888,0,0,0.63625888,-1.4675467,-31.115851)">
    <path
       id="path8423"
       d="m 597.25,57.25 -2.46875,12.5 4.25,0 c 2.67651,0 4.51495,0.472856 5.53125,1.40625 1.01629,0.933842 1.31223,2.439517 0.90625,4.53125 l -2,10.28125 -4.84375,0 1.90625,-9.78125 c 0.21643,-1.112186 0.12551,-1.845365 -0.25,-2.25 -0.37551,-0.404635 -1.15348,-0.625 -2.375,-0.625 l -3.84375,0 -2.4375,12.65625 -4.78125,0 5.625,-28.6875 c -21.80631,0.778484 -39.03125,10.331671 -39.03125,22 0,6.214537 4.88668,11.835703 12.75,15.84375 l 4.90625,-25.375 9.25,0 c 2.7845,0 4.81666,0.726243 6.09375,2.1875 1.27664,1.461704 1.66574,3.505403 1.15625,6.125 -0.20971,1.079026 -0.56287,2.075237 -1.0625,2.96875 -0.49964,0.893961 -1.16217,1.696341 -1.96875,2.4375 -0.96118,0.899786 -2.01258,1.555718 -3.1875,1.9375 -1.17492,0.382678 -2.68071,0.5625 -4.5,0.5625 l -4.125,0 -2.15625,11.09375 c 6.93875,2.677357 15.48524,4.28125 24.75,4.28125 2.41143,0 4.79369,-0.13806 7.09375,-0.34375 l 6.21875,-31.25 9.28125,0 c 2.7845,0 4.81666,0.726243 6.09375,2.1875 1.27664,1.461704 1.66529,3.505403 1.15625,6.125 -0.21016,1.079026 -0.59456,2.075237 -1.09375,2.96875 -0.50008,0.893961 -1.13092,1.696341 -1.9375,2.4375 -0.96118,0.899786 -2.04338,1.555718 -3.21875,1.9375 -1.17447,0.382678 -2.64946,0.5625 -4.46875,0.5625 l -4.125,0 -2.96875,14.4375 c 17.28876,-2.719124 29.90625,-11.14615 29.90625,-21.125 0,-11.841153 -17.76721,-21.506452 -40.03125,-22.03125 z"
       style="fill:#000000;fill-opacity:1;stroke:none"
       inkscape:connector-curvature="0" />
    <path
       id="path8417"
       d="m 575.25,73.25 -1.8125,9.25 2.9375,0 c 1.94027,0 3.36252,-0.36245 4.3125,-1.09375 0.94952,-0.731301 1.60501,-1.9771 1.9375,-3.6875 0.3186,-1.642289 0.17147,-2.793462 -0.4375,-3.46875 -0.60942,-0.675288 -1.82755,-1 -3.65625,-1 l -3.28125,0 z"
       style="fill:#000000;fill-opacity:1;stroke:none"
       inkscape:connector-curvature="0" />
    <path
       id="path8360"
       d="M 612.8125,73.25 611,82.5 l 2.9375,0 c 1.94117,0 3.39422,-0.36245 4.34375,-1.09375 0.95042,-0.731301 1.57331,-1.9771 1.90625,-3.6875 0.31859,-1.642289 0.17147,-2.793462 -0.4375,-3.46875 -0.60942,-0.675288 -1.82755,-1 -3.65625,-1 l -3.28125,0 z"
       style="fill:#000000;fill-opacity:1;stroke:none"
       inkscape:connector-curvature="0" />
  </g>
  <g
     id="g7551"
     transform="matrix(0.63625888,0,0,0.63625888,-0.39723851,-29.118531)">
    <path
       style="fill:none;stroke:#000000;stroke-width:1;stroke-miterlimit:4;stroke-opacity:1;stroke-dasharray:none"
       id="path3055"
       d="m 49.746564,61.156727 c -0.269932,-4.55e-4 -0.544814,6.05e-4 -0.836323,0.0079 l -2.871902,0.07101 -0.149907,4.071157 c -0.141999,3.8615 -0.192542,4.149972 -0.931,5.728023 -0.95582,2.042538 -2.51158,3.645816 -4.489319,4.615554 l -1.49907,0.733755 -9.089094,0.126238 c -10.168297,0.143118 -10.035021,0.119633 -12.079343,2.004019 -0.617533,0.569222 -1.391818,1.633226 -1.719984,2.359062 -0.578251,1.278966 -0.593296,1.549228 -0.670637,8.954967 -0.09005,8.62226 0.03377,9.534977 1.570078,11.329818 1.601037,1.87045 5.807025,3.61995 9.964867,4.14216 4.71425,0.59209 11.25783,-0.75152 14.225378,-2.91924 1.584445,-1.15739 2.424281,-2.489867 2.721995,-4.307857 0.273021,-1.667207 0.330459,-5.145146 0.09468,-5.759582 -0.134385,-0.350203 -0.981289,-0.406889 -6.87994,-0.410271 -3.699677,-0.002 -6.876707,-0.09594 -7.061405,-0.213026 -0.190734,-0.120916 -0.299806,-0.532134 -0.252475,-0.946781 l 0.08679,-0.725865 11.74008,-0.126238 c 13.038513,-0.140199 12.499689,-0.07189 14.099142,-1.893561 1.629582,-1.855993 3.10281,-5.809337 3.574098,-9.601934 C 59.780353,74.476241 58.68771,68.05909 56.989435,64.872804 55.493986,62.067058 53.7955,61.163616 49.746564,61.15669 z M 37.754009,95.453855 c 1.747499,-0.03184 3.239065,1.843435 2.295942,3.913359 -0.165893,0.364103 -0.611466,0.819906 -0.994119,1.017786 -1.109344,0.57366 -2.130433,0.45382 -3.053368,-0.37082 -0.707894,-0.632501 -0.820543,-0.906244 -0.820543,-1.91723 0,-1.010984 0.112649,-1.284728 0.820543,-1.91723 0.557921,-0.498502 1.169045,-0.715251 1.751545,-0.725865 z"
       inkscape:connector-curvature="0" />
    <path
       style="fill:#000000"
       id="path3051"
       d="m 29.501237,46.379058 c -2.562107,0.02586 -5.123323,0.175299 -6.556456,0.433942 -2.784062,0.50245 -5.086499,1.455434 -5.933158,2.461629 -1.002507,1.191415 -1.238755,2.368686 -1.254484,6.154075 l -0.01578,3.534647 6.911499,0.126238 c 7.52556,0.137367 7.620453,0.159984 7.266541,1.570078 L 29.761603,61.290854 18.707939,61.519659 7.6621646,61.740575 6.2498835,62.403321 C 2.4234478,64.197751 0.64010694,68.346315 0.62442826,75.500452 0.60818406,82.913533 2.708396,87.930804 6.368231,89.228772 7.0350802,89.46527 8.4619721,89.602574 10.3526,89.615374 l 2.94291,0.02366 0.08679,-4.228953 0.08679,-4.228954 0.852103,-1.577968 c 0.997065,-1.838625 2.466884,-3.277616 4.36308,-4.276293 L 20.033431,74.616778 29.375,74.490539 c 10.35214,-0.139893 10.248954,-0.123578 12.181911,-1.869891 0.55418,-0.500668 1.28049,-1.504961 1.609528,-2.232823 0.581396,-1.2861 0.596129,-1.545402 0.670636,-9.104874 0.06319,-6.411795 0.01159,-8.014421 -0.307704,-9.112764 -0.808755,-2.782014 -3.666583,-4.883637 -7.463787,-5.491328 -1.435201,-0.229685 -4.002239,-0.32568 -6.564346,-0.299814 z m -8.102864,3.826572 c 0.483691,-0.01946 1.000868,0.08038 1.530628,0.299815 0.913204,0.378261 1.570079,1.491498 1.570079,2.658875 0,1.08862 -0.415001,1.812748 -1.388612,2.4064 -1.440894,0.878576 -2.871402,0.50903 -3.889691,-1.002008 -0.669166,-0.992973 -0.712387,-1.49051 -0.220915,-2.666766 0.441382,-1.056374 1.334391,-1.653496 2.398511,-1.696316 z"
       inkscape:connector-curvature="0" />
  </g>
  <g
     id="g7576"
     transform="matrix(0.63625888,0,0,0.63625888,-4.0664148,-28.80912)">
    <path
       style="fill:none;fill-opacity:1;stroke:#000000;stroke-width:1;stroke-linecap:round;stroke-linejoin:round;stroke-miterlimit:4;stroke-opacity:1;stroke-dasharray:none"
       id="rect4060"
       d="m 297.36059,48.600671 -13.5299,13.529891 40.64115,40.641148 0,-54.145307 c 0,-0.01499 -0.0125,-0.02573 -0.0274,-0.02573 l -27.0838,0 z"
       inkscape:connector-curvature="0" />
    <path
       style="fill:#000000;fill-opacity:1;stroke:#000000;stroke-width:0.17929417;stroke-linecap:round;stroke-linejoin:round;stroke-miterlimit:4;stroke-opacity:1;stroke-dasharray:none"
       id="path4595"
       d="m 283.7869,62.086769 -13.74264,13.742637 0,27.083804 c 0,0.015 0.0125,0.0274 0.0275,0.0274 l 54.32888,0 c 0.015,0 0.0274,-0.0124 0.0274,-0.0274 l 0,-0.18529 -40.64115,-40.641151 z"
       inkscape:connector-curvature="0" />
    <path
       style="fill:none;stroke:#000000;stroke-width:1;stroke-linecap:butt;stroke-linejoin:miter;stroke-miterlimit:4;stroke-opacity:1;stroke-dasharray:none"
       id="path4604"
       d="m 297.50121,48.667728 13.5933,13.593298 13.2477,40.357504 -31.3721,-22.233107 31.6025,-31.6025 -13.47663,13.53824 -13.59477,-13.653435 z"
       inkscape:connector-curvature="0" />
    <path
       style="fill:none;stroke:#000000;stroke-width:1;stroke-linecap:butt;stroke-linejoin:bevel;stroke-miterlimit:4;stroke-opacity:1;stroke-dasharray:none"
       id="path4606"
       d="m 297.39028,48.571123 0.0341,32.758742 -16.74203,-16.050844 16.7079,-16.707898 z"
       inkscape:connector-curvature="0" />
  </g>
  <g
     id="g7555"
     transform="matrix(0.63625888,0,0,0.63625888,-0.97295885,-28.457554)">
    <path
       style="fill:none;fill-opacity:1;stroke:#000000;stroke-width:1;stroke-miterlimit:4;stroke-opacity:1;stroke-dasharray:none"
       id="path3652"
       d="M 88.643676,46.655998 C 76.16879,49.988935 66.98107,61.365831 66.98107,74.891395 c 0,8.851809 3.934001,16.780343 10.15038,22.139914 L 94.528972,58.969573 91.463719,50.767821 c -0.700001,-1.876524 -1.638111,-3.247348 -2.820043,-4.111823 z"
       inkscape:connector-curvature="0" />
    <path
       style="fill:none;fill-opacity:1;stroke:#000000;stroke-width:1;stroke-miterlimit:4;stroke-opacity:1;stroke-dasharray:none"
       id="path3648"
       d="m 83.345164,101.14313 c 3.88048,1.90435 8.246668,2.9733 12.860941,2.9733 5.058125,0 9.815145,-1.28569 13.964435,-3.54694 L 98.25983,69.159364 83.345164,101.14313 z"
       inkscape:connector-curvature="0" />
    <path
       style="fill:#000000;fill-opacity:1;stroke:#000000;stroke-width:0.14012603;stroke-opacity:1"
       id="path3637"
       d="m 116.51562,95.905921 c 5.49786,-5.31419 8.91552,-12.764244 8.91552,-21.014526 0,-15.636819 -12.28077,-28.407233 -27.723061,-29.190006 0.07678,0.180296 0.149405,0.364081 0.218949,0.551746 l 18.588592,49.652786 z"
       inkscape:connector-curvature="0" />
  </g>
  <g
     transform="matrix(0.17424364,0,0,0.17424364,373.48479,-20.251263)"
     id="layer1"
     inkscape:label="Layer 1">
    <path
       sodipodi:nodetypes="ccccccccc"
       d="m 204.46652,130.78039 52.36884,0 0,20.28516 -28.49491,0 0,153.89813 28.49491,0 0,20.28516 -52.36884,0 0,-194.46845"
       style="font-size:211.95922852px;font-style:normal;font-variant:normal;font-weight:bold;font-stretch:normal;fill:#000000;fill-opacity:1;stroke:none;font-family:Helvetica;-inkscape-font-specification:Helvetica Bold"
       id="path2821"
       inkscape:connector-curvature="0" />
    <path
       sodipodi:nodetypes="ccccc"
       d="m 280.22539,116.22383 23.80401,0 0,221.95922 -23.80401,0 0,-221.95922"
       style="font-size:211.95922852px;font-style:normal;font-variant:normal;font-weight:bold;font-stretch:normal;fill:#000000;fill-opacity:1;stroke:none;font-family:Helvetica;-inkscape-font-specification:Helvetica Bold"
       id="path2823"
       inkscape:connector-curvature="0" />
    <path
       sodipodi:nodetypes="ccccccccc"
       d="m 378.54631,325.24884 -52.36883,0 0,-20.28516 28.4949,0 0,-153.89813 -28.4949,0 0,-20.28516 52.36883,0 0,194.46845"
       style="font-size:211.95922852px;font-style:normal;font-variant:normal;font-weight:bold;font-stretch:normal;fill:#000000;fill-opacity:1;stroke:none;font-family:Helvetica;-inkscape-font-specification:Helvetica Bold"
       id="path2825"
       inkscape:connector-curvature="0" />
  </g>
  <g
     id="g3437"
     transform="matrix(0.73589477,0,0,0.73589477,-0.45945015,-34.054386)">
    <path
       inkscape:connector-curvature="0"
       id="path3260"
       d="m 631.03929,98.07011 c -8.61114,-1.043206 -16.13409,-6.405055 -19.90587,-14.187541 -1.84728,-3.811586 -2.55491,-6.969868 -2.54456,-11.356973 0.006,-2.436195 0.0138,-2.521202 0.32356,-3.407092 1.98424,-5.674951 6.22967,-8.929609 11.64917,-8.930555 1.25183,-2.28e-4 2.54993,0.142441 2.70474,0.297246 0.0292,0.02924 -0.40126,0.529115 -0.95668,1.110824 -2.89327,3.030223 -4.40616,6.845411 -4.40162,11.099932 0.002,2.038338 0.20147,3.335352 0.77896,5.069584 1.88968,5.674795 6.53531,9.726825 12.49749,10.900604 1.41333,0.278242 4.39041,0.280578 5.77363,0.0045 1.21812,-0.243098 2.58911,-0.663812 3.6086,-1.107367 0.71416,-0.310711 0.77952,-0.319866 1.20701,-0.169039 0.50192,0.177089 2.34883,0.554126 3.65965,0.7471 2.02523,0.298147 5.69123,0.0909 8.26818,-0.467415 0.58601,-0.126964 1.09244,-0.203887 1.12538,-0.170939 0.11724,0.117232 -1.5113,2.077841 -2.74714,3.307313 -0.69066,0.687097 -1.77559,1.645917 -2.41096,2.130711 -5.33801,4.072974 -12.06322,5.924556 -18.62954,5.129076 z"
       style="fill:#000000" />
    <path
       inkscape:connector-curvature="0"
       id="path3258"
       d="m 631.88776,86.046833 c -0.48542,-0.08588 -1.23924,-0.264469 -1.67516,-0.396875 l -0.79257,-0.240736 0,-1.290666 c 0,-1.613384 0.34955,-3.090417 1.33267,-5.631341 1.04393,-2.698057 2.20907,-5.27183 2.30583,-5.09353 0.046,0.08472 0.29941,0.920634 0.56318,1.857585 1.41057,5.010514 2.59108,7.815999 3.98993,9.482015 0.36325,0.432622 0.61669,0.813628 0.56322,0.846679 -0.0535,0.03305 -0.52478,0.166028 -1.04733,0.295503 -1.23958,0.307135 -3.96796,0.396366 -5.23977,0.171366 z"
       style="fill:#000000;stroke:#000000;stroke-width:0.69999999;stroke-miterlimit:4;stroke-dasharray:none" />
    <path
       inkscape:connector-curvature="0"
       id="path3256"
       d="m 645.96536,84.310457 -0.43334,-0.04499 0.61671,-0.702511 c 3.66093,-4.170205 4.98484,-9.577542 3.64723,-14.896618 -1.33406,-5.304921 -5.50628,-9.737536 -10.72662,-11.396069 -1.81644,-0.577096 -2.92063,-0.744026 -4.93616,-0.746244 -2.16537,-0.0024 -3.38027,0.191465 -5.3144,0.847967 l -1.33946,0.454652 -0.3073,-0.216737 c -1.36791,-0.964772 -4.56813,-1.836482 -6.73857,-1.835522 -1.97254,9.09e-4 -4.00766,0.471328 -5.77748,1.335573 -0.5934,0.289773 -1.12637,0.549445 -1.18437,0.577051 -0.24846,0.118247 1.11274,-1.502928 2.26328,-2.69555 3.98587,-4.131651 8.9483,-6.688019 14.70728,-7.576363 1.80281,-0.27809 5.46566,-0.27809 7.26846,0 9.44112,1.456326 17.12709,7.706578 20.38521,16.577298 1.60618,4.373055 2.00892,10.249976 0.91264,13.317254 -1.2246,3.426267 -3.63753,5.650923 -7.12622,6.570173 -1.72894,0.455565 -4.04989,0.624487 -5.91689,0.43064 z"
       style="fill:none;stroke:#000000;stroke-width:0.69999999000000002;stroke-miterlimit:4;stroke-dasharray:none" />
    <path
       inkscape:connector-curvature="0"
       id="path3254"
       d="M 625.26896,82.927537 C 619.864,78.331386 619.0214,70.182939 623.3633,64.498643 c 0.58299,-0.763235 1.95689,-2.133659 2.55373,-2.547269 l 0.4228,-0.293002 0.60315,0.402778 c 0.82975,0.554093 1.71544,1.45483 2.31012,2.349356 0.64097,0.964149 1.93698,3.617529 2.49972,5.117779 l 0.43773,1.166956 -2.4013,4.720724 c -2.33044,4.58144 -3.13303,6.350038 -3.44275,7.586439 -0.0821,0.327932 -0.18063,0.596241 -0.21885,0.596241 -0.0382,0 -0.42463,-0.301998 -0.85869,-0.671108 z"
       style="fill:#000000;stroke:#000000;stroke-width:0.69999999;stroke-miterlimit:4;stroke-dasharray:none" />
    <path
       inkscape:connector-curvature="0"
       id="path3250"
       d="m 641.49689,83.384527 c -0.31738,-0.107445 -0.74951,-0.340459 -0.96028,-0.517811 -1.87282,-1.57588 -4.15371,-6.32459 -5.67616,-11.817526 -1.53412,-5.535065 -2.77817,-8.421573 -4.61326,-10.703947 -0.21345,-0.26547 -0.36729,-0.482672 -0.34186,-0.482672 0.0254,0 0.44198,-0.101218 0.92568,-0.224929 2.94839,-0.75407 6.22426,-0.426088 9.00326,0.901413 1.42846,0.68236 2.41068,1.358787 3.54281,2.439825 2.0497,1.9572 3.50127,4.660955 3.99739,7.445676 0.19457,1.092128 0.19502,3.446705 9e-4,4.542789 -0.56132,3.169033 -2.24995,6.057729 -4.77884,8.175029 l -0.52255,0.437507 -0.57706,-0.195354 z"
       style="fill:none;stroke:#000000;stroke-width:0.69999999000000002;stroke-miterlimit:4;stroke-dasharray:none" />
  </g>
  <g
     id="g3425"
     transform="matrix(0.73589477,0,0,0.73589477,-3.9608225,-32.075073)">
    <g
       transform="matrix(0.537136,0,0,0.537136,578.3679,14.301975)"
       id="g3053">
      <path
         style="fill:#000000"
         d="m 237.25,156.75735 -7.25,-3.85498 0.0216,-5.20118 c 0.0214,-5.16535 0.0601,-5.22872 5.6231,-9.20117 7.28181,-5.19986 17.65176,-15.38124 23.68749,-23.25676 5.11511,-6.67426 12.30301,-19.68798 15.18542,-27.49324 0.96478,-2.6125 2.13173,-4.75 2.59324,-4.75 0.4615,0 3.75583,1.335893 7.32074,2.968652 l 6.48164,2.968652 -0.55182,5.281348 c -0.62253,5.958108 -0.30741,5.458028 -25.52613,40.509148 -8.61561,11.97471 -16.71561,22.69747 -18,23.82836 l -2.33525,2.05615 -7.25,-3.85498 z m -61,-33.38339 c -4.80409,-2.73359 -6.25,-4.08468 -6.25,-5.84014 0,-1.25609 -0.26908,-3.62918 -0.59794,-5.27352 -0.53655,-2.68272 0.31064,-4.01192 8.25,-12.943957 23.01556,-25.893261 37.94307,-42.814044 38.91323,-44.109314 0.89643,-1.196839 2.02835,-0.936129 7.14109,1.644774 5.7491,2.902136 6.09653,3.284326 6.46114,7.107637 0.40319,4.227862 -0.0809,4.692501 -3.16766,3.040507 -1.53318,-0.820536 -3.18198,0.04868 -9.18426,4.841748 -11.94657,9.539846 -21.30464,20.582748 -28.31206,33.409355 -3.15236,5.77019 -3.64374,7.51364 -3.38214,12 0.28298,4.85278 -1.19655,9.79751 -2.90658,9.71411 -0.39315,-0.0192 -3.52732,-1.63521 -6.96482,-3.5912 z m 49.25,-6.30901 c -14.21946,-3.46171 -20.0899,-17.628797 -11.40408,-27.5214 5.84455,-6.656569 18.07071,-8.477365 27.2703,-4.061262 11.56786,5.552953 12.99973,20.834122 2.62582,28.023252 -5.72448,3.96706 -11.91946,5.1595 -18.49204,3.55941 z m 12.10577,-12.54228 c 5.14329,-3.37001 2.19142,-9.719667 -5.15966,-11.098737 -3.6171,-0.678572 -10.17728,1.711949 -11.06801,4.03317 -2.7534,7.175227 8.54947,12.096527 16.22767,7.065567 z"
         id="path3049"
         inkscape:connector-curvature="0"
         sodipodi:nodetypes="ccsssssscssscccssssssssssscssssssssss" />
      <path
         style="fill:none;stroke:#000000;stroke-width:1px;stroke-linecap:butt;stroke-linejoin:miter;stroke-opacity:1"
         d="m 222.67642,64.543889 55.93804,27.538727 -35.71429,52.065404 -63.46816,-33.77797 0.4303,8.821 60.24096,32.0568"
         id="path3051-7"
         inkscape:connector-curvature="0" />
    </g>
  </g>
  <g
     style="font-size:10px;font-style:normal;font-weight:bold;line-height:125%;letter-spacing:0px;word-spacing:0px;fill:#000000;fill-opacity:1;stroke:none;font-family:Sans;-inkscape-font-specification:DemonCubicBlockFont Bold"
     id="text3208"
     transform="matrix(1.282524,0,0,1.282524,609.79362,-77.615889)">
    <g
       id="g4476"
       transform="matrix(2.2939945,0,0,2.2939945,75.594851,58.110079)">
      <path
         inkscape:connector-curvature="0"
         id="path3226"
         d="m -52.78125,4 c -0.909723,7.7e-6 -1.640233,0.1949925 -2.15625,0.625 -0.514843,0.429042 -0.75,1.0464149 -0.75,1.8125 0,0.6173338 0.156924,1.1184105 0.53125,1.5 l 0,0.03125 c 0.376854,0.380483 0.965779,0.619903 1.71875,0.78125 l 0.71875,0.15625 c 0.426059,0.093987 0.683047,0.2295773 0.78125,0.3125 0.110215,0.09105 0.187496,0.2058001 0.1875,0.375 -4e-6,0.1879277 -0.07815,0.3297708 -0.25,0.4375 -0.164902,0.103369 -0.450107,0.156251 -0.84375,0.15625 -0.382574,10e-7 -0.765598,-0.06785 -1.1875,-0.1875 -0.417277,-0.122358 -0.856575,-0.3201883 -1.3125,-0.5625 l -0.28125,-0.15625 0,0.34375 0,1.59375 0,0.125 0.125,0.0625 c 0.469917,0.174165 0.923904,0.315179 1.40625,0.40625 0.479956,0.09061 0.96455,0.125 1.4375,0.125 0.833,0 1.403289,-0.236316 1.90625,-0.53125 l -0.03125,0.1875 -0.0625,0.21875 0.25,0 1.8125,0 0.15625,0 0.03125,-0.15625 1.0625,-4.5 1.0625,4.5 0.03125,0.15625 0.15625,0 1.8125,0 0.15625,0 0.03125,-0.15625 1.0625,-4.5 1.0625,4.5 0.03125,0.15625 0.15625,0 1.625,0 0.1875,0 4.5,0 0.1875,0 0,-0.1875 0,-1.84375 0,-0.1875 -0.1875,0 -3.125,0 0,-5.28125 0,-0.1875 -0.1875,0 -1.875,0 -0.1875,0 0,0.1875 0,2.84375 -0.6875,-2.84375 -0.03125,-0.15625 -0.15625,0 -2.40625,0 -0.15625,0 L -44.5,4.3125 -45.375,8.15625 -46.21875,4.3125 -46.25,4.15625 l -0.15625,0 -2.46875,0 -0.15625,0 -0.03125,0.15625 -0.875,3.8125 C -50.00817,8.0104993 -50.059919,7.8748307 -50.15625,7.78125 -50.540521,7.4079685 -51.136277,7.1671688 -51.96875,7 l -0.8125,-0.15625 c -0.366506,-0.075175 -0.584218,-0.1742546 -0.6875,-0.25 -0.109489,-0.084599 -0.156251,-0.1374856 -0.15625,-0.28125 -2e-6,-0.2104114 0.06586,-0.3182234 0.21875,-0.40625 0.162484,-0.093549 0.475964,-0.1874943 0.90625,-0.1875 0.312899,5.5e-6 0.689518,0.066996 1.0625,0.15625 0.365939,0.087582 0.701362,0.2307998 1.09375,0.40625 l 0.28125,0.125 0,-0.3125 0,-1.5625 0,-0.15625 -0.125,-0.03125 c -0.464529,-0.1236426 -0.917372,-0.1909551 -1.34375,-0.25 C -51.962321,4.030756 -52.370242,4.000007 -52.78125,4 z m 0,0.375 c 0.389766,6.8e-6 0.772209,0.033062 1.1875,0.09375 0.378571,0.052425 0.761387,0.1211951 1.15625,0.21875 l 0,1.125 C -50.745338,5.6870367 -51.070562,5.5728629 -51.375,5.5 -51.763746,5.4069738 -52.135823,5.3437565 -52.5,5.34375 c -0.468158,6.3e-6 -0.826554,0.033665 -1.09375,0.1875 -0.276814,0.1593808 -0.406252,0.4708392 -0.40625,0.78125 -3e-6,0.2468708 0.104271,0.4570046 0.28125,0.59375 0.18968,0.1391078 0.479782,0.2314353 0.875,0.3125 l 0.8125,0.15625 c 0.788609,0.1583606 1.325667,0.4279771 1.625,0.71875 0.156222,0.1517623 0.266991,0.35538 0.34375,0.59375 l 0.21875,0.6875 0.15625,-0.71875 0.96875,-4.125 2.15625,0 1,4.46875 0,0.0625 0.375,0 0,-0.0625 1.03125,-4.46875 2.09375,0 1.03125,4.21875 0,0.0625 0.375,-0.0625 0,-0.03125 0,-4.21875 1.5,0 0,5.28125 0,0.1875 0.1875,0 3.125,0 0,1.46875 -4.125,0 -0.1875,0 -1.65625,0 -1.21875,-5.0625 0,-0.0625 -0.375,0 0,0.0625 -1.21875,5.0625 -1.5,0 -1.21875,-5.0625 0,-0.0625 -0.375,0 0,0.0625 -1.21875,5.0625 -1.4375,0 0.0625,-0.25 0.125,-0.53125 L -50.625,11 c -0.427865,0.341701 -1.09463,0.5625 -2.03125,0.5625 -0.451536,0 -0.92397,-0.03985 -1.375,-0.125 -0.407516,-0.07694 -0.804306,-0.224858 -1.21875,-0.375 l 0,-1.125 c 0.371257,0.180802 0.738037,0.333195 1.09375,0.4375 0.45049,0.127754 0.887776,0.187501 1.3125,0.1875 0.426661,10e-7 0.759946,-0.04868 1.03125,-0.21875 0.264337,-0.165707 0.437494,-0.4301117 0.4375,-0.75 -6e-6,-0.2865247 -0.123237,-0.5311489 -0.3125,-0.6875 -0.194775,-0.1644679 -0.509401,-0.2736692 -0.96875,-0.375 L -53.375,8.375 C -54.080367,8.2238534 -54.543524,7.9593676 -54.84375,7.65625 -55.127087,7.3570105 -55.3125,6.9671603 -55.3125,6.4375 c 0,-0.6857261 0.202341,-1.1477792 0.625,-1.5 0.421481,-0.3512281 1.058155,-0.5624929 1.90625,-0.5625 z"
         style="font-size:medium;font-style:normal;font-variant:normal;font-weight:normal;font-stretch:normal;text-indent:0;text-align:start;text-decoration:none;line-height:125%;letter-spacing:0;word-spacing:0;text-transform:none;direction:ltr;block-progression:tb;writing-mode:lr-tb;text-anchor:start;baseline-shift:baseline;color:#000000;fill:#000000;fill-opacity:1;fill-rule:nonzero;stroke:none;stroke-width:0.40000001;marker:none;visibility:visible;display:inline;overflow:visible;enable-background:accumulate;font-family:DemonCubicBlockFont;-inkscape-font-specification:DemonCubicBlockFont Bold" />
      <path
         sodipodi:nodetypes="cccc"
         inkscape:connector-curvature="0"
         id="path4464"
         d="m -41.055046,8.7339446 0.418577,1.5204094 -0.0057,-1.6866938 z"
         style="fill:#000000;stroke:#000000;stroke-width:0;stroke-linecap:butt;stroke-linejoin:miter;stroke-miterlimit:4;stroke-opacity:1;stroke-dasharray:none" />
    </g>
  </g>
</svg>
